<?xml version="1.0" encoding="utf-8"?>
<!-- Generator: Adobe Illustrator 23.0.3, SVG Export Plug-In . SVG Version: 6.00 Build 0)  -->
<svg version="1.1" id="Layer_1" xmlns="http://www.w3.org/2000/svg" xmlns:xlink="http://www.w3.org/1999/xlink" x="0px" y="0px"
	 viewBox="0 0 1252.08 1149" style="enable-background:new 0 0 1252.08 1149;" xml:space="preserve">
<style type="text/css">
	.st0{fill:none;stroke:#F6958C;stroke-miterlimit:10;}
	.st1{opacity:0.7;fill:#F37369;}
	.st2{fill:none;}
	.st3{fill:#F37369;}
	.st4{opacity:0.37;fill:#F6958C;}
	.st5{opacity:0.55;fill:#F37369;}
	.st6{opacity:0.93;fill:#F6958C;}
	.st7{fill:#F6958C;}
	.st8{opacity:0.57;fill:#F37369;}
	.st9{opacity:0.77;fill:#F37369;}
</style>
<g>
	<path class="st0" d="M425.6,568.53"/>
	<polygon class="st1" points="893.19,159.16 923.1,121.96 904.38,127.1 874.15,165.21 	"/>
	<polygon class="st1" points="988.49,104.03 961.1,137.59 992.17,127.72 1020.08,95.37 	"/>
	<polygon class="st1" points="921.01,150.32 949.7,114.67 931.08,119.78 901.53,156.51 	"/>
	<polygon class="st1" points="952.66,140.27 980.44,106.24 957.68,112.48 929.36,147.67 	"/>
	<g>
		<g>
			<path class="st2" d="M552.84,494.08v-1.65c-2.09,0.45-4.17,0.91-6.25,1.36v1.65C548.66,494.98,550.75,494.53,552.84,494.08z"/>
			<path class="st2" d="M568.57,490.66v-1.65c-2.08,0.45-4.16,0.9-6.25,1.36v1.65C564.41,491.56,566.5,491.11,568.57,490.66z"/>
			<path class="st2" d="M584.31,487.25v-1.65c-2.07,0.45-4.15,0.9-6.25,1.36v1.65C580.16,488.15,582.24,487.69,584.31,487.25z"/>
			<path class="st2" d="M576.44,488.95v-1.65c-2.07,0.45-4.16,0.9-6.25,1.36v1.65C572.28,489.86,574.37,489.4,576.44,488.95z"/>
			<path class="st2" d="M544.97,495.78v-1.65c-2.09,0.45-4.18,0.91-6.25,1.36v1.65C540.79,496.69,542.88,496.24,544.97,495.78z"/>
			<path class="st2" d="M560.7,492.37v-1.65c-2.08,0.45-4.17,0.9-6.25,1.36v1.65C556.54,493.27,558.62,492.82,560.7,492.37z"/>
			<path class="st2" d="M489.89,507.74v-1.65c-5.1,1.11-9.83,2.13-14.12,3.07v1.65C480.05,509.88,484.79,508.85,489.89,507.74z"/>
			<path class="st2" d="M474.16,511.16v-1.65c-2.23,0.48-4.31,0.94-6.25,1.36v1.65C469.84,512.1,471.93,511.65,474.16,511.16z"/>
			<path class="st2" d="M491.51,507.39c2.03-0.44,4.12-0.9,6.25-1.36v-1.65c-2.43,0.53-4.8,1.04-7.09,1.54h0.84V507.39z"/>
			<path class="st2" d="M537.1,497.49v-1.65c-2.1,0.46-4.18,0.91-6.25,1.36v1.65C532.92,498.4,535,497.95,537.1,497.49z"/>
			<path class="st2" d="M513.5,502.62v-1.53h1.61v1.18c2.06-0.45,4.15-0.9,6.25-1.36v-1.44h1.61v1.09c2.07-0.45,4.15-0.9,6.25-1.36
				v-1.65c-7.58,1.65-14.97,3.25-21.99,4.78v1.65C509.29,503.53,511.38,503.08,513.5,502.62z"/>
			<path class="st2" d="M499.37,505.68c2.04-0.44,4.13-0.9,6.25-1.36v-1.65c-2.57,0.56-5.08,1.1-7.53,1.64h1.28V505.68z"/>
			<path class="st2" d="M592.18,485.54v-1.65c-2.06,0.45-4.15,0.9-6.25,1.36v1.65C588.03,486.44,590.12,485.99,592.18,485.54z"/>
			<path class="st2" d="M654.42,472.1c0.25-0.05,0.46-0.12,0.7-0.18v-1.66c-0.34,0.09-0.67,0.18-1.03,0.26
				c-0.9,0.19-2.7,0.57-5.23,1.11v1.65C651.58,472.7,653.48,472.29,654.42,472.1z"/>
			<path class="st2" d="M647.25,473.63v-1.65c-1.8,0.39-3.9,0.84-6.25,1.34v1.65C643.35,474.47,645.44,474.02,647.25,473.63z"/>
			<path class="st2" d="M667.89,460.07l7.51-41.19l-1.59-0.29l-7.52,41.33c0,0.3-0.2,6.9-9.55,9.89v1.7
				C667.74,468.23,667.91,460.07,667.89,460.07z"/>
			<polygon class="st2" points="446.43,502.73 446.47,502.77 585.48,469.59 			"/>
			<path class="st2" d="M639.39,475.32v-1.65c-1.94,0.42-4.02,0.87-6.25,1.35v1.65C635.36,476.19,637.44,475.74,639.39,475.32z"/>
			<path class="st2" d="M466.29,512.87v-1.65c-2.34,0.51-4.43,0.96-6.25,1.36v1.65C461.85,513.84,463.94,513.38,466.29,512.87z"/>
			<path class="st2" d="M600.04,483.83v-1.65c-2.06,0.45-4.14,0.9-6.25,1.36v1.65C595.9,484.73,597.99,484.28,600.04,483.83z"/>
			<path class="st2" d="M607.91,482.13v-1.65c-2.05,0.44-4.13,0.89-6.25,1.35v1.65C603.78,483.02,605.87,482.57,607.91,482.13z"/>
			<path class="st2" d="M615.78,480.43v-1.65c-2.03,0.44-4.12,0.89-6.26,1.36v1.65C611.66,481.32,613.75,480.87,615.78,480.43z"/>
			<path class="st2" d="M623.65,478.72v-1.65c-2.01,0.44-4.1,0.89-6.25,1.35v1.65C619.55,479.61,621.63,479.16,623.65,478.72z"/>
			<path class="st2" d="M631.52,477.02v-1.65c-1.99,0.43-4.08,0.88-6.25,1.35v1.65C627.44,477.9,629.53,477.45,631.52,477.02z"/>
			<path class="st3" d="M277.94,528.27l13.44,10.54l153.11-35.09c0.01,0,141-34.13,141-34.13l28.82-45.03l60.16-22.7l46.47,15.85
				l-6.73,24.45l0.84-0.19l72.63-28.24l17.35-14.93l3.63-57.29L277.94,528.27z"/>
			<g>
				<path class="st4" d="M614.31,424.56l-28.82,45.03c0,0,0.23,0.09,12.15-2.89c27.85-6.97,39.51-41.57,39.62-41.92l1.53,0.5
					c-0.12,0.36-12.1,35.88-40.79,43.17c-26.06,6.62-133.14,32.08-150.7,36.25l7.56,8.99c3.94-0.88,12.71-2.85,12.71-2.85
					l189.17-41.03c9.36-3,9.55-9.59,9.55-9.89l10.22-57.36l-2.05-0.7L614.31,424.56z"/>
				<path class="st5" d="M678.06,403.09l-10.17,56.98c0.01,0-0.15,8.16-11.16,11.45v10.28l48.02-4.92l9.45-34.71l6.73-24.45
					L678.06,403.09z"/>
			</g>
			<g>
				<path class="st6" d="M601.66,483.49v11.66l6.25-1.54v-11.48C605.87,482.57,603.78,483.02,601.66,483.49z"/>
				<path class="st6" d="M460.03,514.23v6l6.25,7.45v-14.81C463.94,513.38,461.85,513.84,460.03,514.23z"/>
				<path class="st6" d="M593.79,485.19v11.88l6.25-1.54v-11.7C597.99,484.28,595.9,484.73,593.79,485.19z"/>
				<path class="st6" d="M609.53,481.78v11.43l6.26-1.54v-11.25C613.75,480.87,611.66,481.32,609.53,481.78z"/>
				<path class="st6" d="M585.92,486.9V499l6.25-1.54v-11.93C590.12,485.99,588.03,486.44,585.92,486.9z"/>
				<path class="st6" d="M625.26,478.38v10.97l6.25-1.54v-10.79C629.53,477.45,627.44,477.9,625.26,478.38z"/>
				<path class="st6" d="M617.4,480.08v11.2l6.25-1.53v-11.02C621.63,479.16,619.55,479.61,617.4,480.08z"/>
				<path class="st6" d="M641,474.97v10.51l6.25-1.54v-10.32C645.44,474.02,643.35,474.47,641,474.97z"/>
				<path class="st6" d="M458.42,518.27v-3.69c-0.91,0.2-1.73,0.38-2.46,0.54L458.42,518.27z"/>
				<path class="st6" d="M654.42,472.1c-0.94,0.2-2.84,0.6-5.55,1.18v10.27l6.25-1.54v-10.09
					C654.88,471.98,654.67,472.05,654.42,472.1z"/>
				<path class="st6" d="M578.05,488.6v12.33l6.25-1.54v-12.15C582.24,487.69,580.16,488.15,578.05,488.6z"/>
				<path class="st6" d="M538.71,497.14v13.45l6.25-1.53v-13.28C542.88,496.24,540.79,496.69,538.71,497.14z"/>
				<path class="st6" d="M530.85,498.85v13.68l6.25-1.54v-13.5C535,497.95,532.92,498.4,530.85,498.85z"/>
				<path class="st6" d="M491.51,507.39v14.79l6.25-1.53v-14.61C495.63,506.5,493.54,506.95,491.51,507.39z"/>
				<path class="st6" d="M499.37,505.68v14.57l6.25-1.54v-14.39C503.51,504.79,501.42,505.24,499.37,505.68z"/>
				<path class="st6" d="M522.98,500.56v13.9l6.25-1.54V499.2C527.13,499.65,525.05,500.11,522.98,500.56z"/>
				<path class="st6" d="M515.11,502.27v14.12l6.25-1.54v-13.95C519.26,501.37,517.17,501.82,515.11,502.27z"/>
				<path class="st6" d="M467.9,512.52v15.46l6.25-1.54v-15.28C471.93,511.65,469.84,512.1,467.9,512.52z"/>
				<path class="st6" d="M546.58,495.43v13.23l6.25-1.54v-13.05C550.75,494.53,548.66,494.98,546.58,495.43z"/>
				<path class="st6" d="M633.13,476.67v10.74l6.25-1.53v-10.56C637.44,475.74,635.36,476.19,633.13,476.67z"/>
				<path class="st6" d="M570.19,490.31v12.56l6.25-1.54v-12.38C574.37,489.4,572.28,489.86,570.19,490.31z"/>
				<path class="st6" d="M507.24,503.98v14.34l6.25-1.53v-14.17C511.38,503.08,509.29,503.53,507.24,503.98z"/>
				<path class="st6" d="M562.32,492.02v12.78l6.25-1.54v-12.6C566.5,491.11,564.41,491.56,562.32,492.02z"/>
				<path class="st6" d="M554.45,493.73v13.01l6.25-1.54v-12.83C558.62,492.82,556.54,493.27,554.45,493.73z"/>
				<path class="st6" d="M475.77,510.81v15.23l6.25-1.54v-15.96h1.61v15.56l6.25-1.54v-14.84
					C484.79,508.85,480.05,509.88,475.77,510.81z"/>
			</g>
		</g>
		<path class="st3" d="M425.87,554.28"/>
		<path class="st3" d="M426.41,552.66"/>
		<polygon class="st1" points="629.92,382.96 615.22,402.36 630.46,399.21 645.7,379.19 		"/>
		<polygon class="st1" points="685.85,347.26 673.73,350.37 657.76,371.33 669.49,368.53 		"/>
		<polygon class="st1" points="707.26,341.78 693.46,345.31 676.97,366.75 689.98,363.64 		"/>
		<polygon class="st1" points="600.99,389.87 589.77,392.55 576.73,410.31 587.27,408.13 		"/>
		<polygon class="st1" points="622.5,384.73 608.37,388.11 594.44,406.65 608.01,403.85 		"/>
		<polygon class="st1" points="764.28,327.17 745.63,350.35 763.46,346.09 782.43,322.52 		"/>
		<polygon class="st1" points="790.26,320.51 771.15,344.26 789.73,339.82 809.53,315.57 		"/>
		<polygon class="st1" points="733.15,335.14 715,339.79 697.59,361.82 715.35,357.58 		"/>
		<polygon class="st1" points="640.71,314.98 629.08,318.32 613.43,339.97 624.52,337.03 		"/>
		<polygon class="st1" points="582.49,394.29 572.45,396.68 560.12,413.74 569.65,411.77 		"/>
		<polygon class="st1" points="756.46,329.17 740.91,333.15 722.98,355.76 737.95,352.19 		"/>
		<polygon class="st1" points="525.68,407.85 515.02,410.4 504.5,425.23 514.88,423.09 		"/>
		<polygon class="st1" points="752.8,260.23 739.33,264.2 722.32,286.54 735.46,282.77 		"/>
		<polygon class="st1" points="589.03,282.72 602.64,278.36 622.6,250.19 608.93,254.53 		"/>
		<polygon class="st1" points="629.46,269.76 645.05,264.76 665.74,236.49 649.35,241.7 		"/>
		<polygon class="st1" points="610.32,275.9 621.78,272.22 641.69,244.13 630.26,247.76 		"/>
		<polygon class="st1" points="565.23,398.41 550.7,401.88 538.79,418.15 553.09,415.19 		"/>
		<polygon class="st1" points="697.61,293.63 714.54,288.77 731.48,266.52 714.31,271.58 		"/>
		<polygon class="st1" points="543.43,403.61 532.82,406.15 521.83,421.65 531.73,419.61 		"/>
		<polygon class="st1" points="833.12,286.68 813.24,291.95 795.33,314.21 814.69,309.25 		"/>
		<polygon class="st1" points="674.31,300.31 689.84,295.85 706.49,273.88 690.65,278.55 		"/>
		<polygon class="st1" points="485.69,429.12 497.55,426.67 507.87,412.1 495.64,415.03 		"/>
		<polygon class="st1" points="545.6,320.37 530.87,341.45 544.38,337.57 558.57,317.48 545.85,321.23 		"/>
		<polygon class="st1" points="781.09,274.72 762.14,280.15 741.78,305.91 760.23,301.02 		"/>
		<polygon class="st1" points="496.35,390.82 509.11,387.55 522.03,369.24 509.02,372.69 		"/>
		<polygon class="st1" points="513.32,366.54 526.39,363.08 539.93,343.89 526.46,347.75 		"/>
		<polygon class="st1" points="652.89,262.25 666.86,257.77 687.16,229.68 673.56,234 		"/>
		<polygon class="st1" points="806,267.57 789.09,272.42 768.05,298.94 784.22,294.65 		"/>
		<polygon class="st1" points="480.35,413.7 492.74,410.74 504.81,393.65 492.09,396.91 		"/>
		<polygon class="st1" points="590.86,324.24 604.35,320.38 619.64,299.48 605.44,303.67 		"/>
		<polygon class="st1" points="730.49,289.23 717.42,292.98 698.91,317.29 711.47,313.96 		"/>
		<polygon class="st1" points="621.54,320.48 607.28,324.57 591.8,345.71 606.04,341.94 		"/>
		<polygon class="st1" points="466.85,433.01 478.75,430.55 488.51,416.73 476.17,419.67 		"/>
		<polygon class="st1" points="754.16,282.44 738.33,286.98 719.15,311.92 733.97,307.98 		"/>
		<polygon class="st1" points="553.68,355.83 564.59,352.94 578.93,332.7 567.81,335.89 		"/>
		<polygon class="st1" points="562.75,295.85 549.23,315.19 563.07,311.11 576.73,291.75 562.85,296.2 		"/>
		<polygon class="st1" points="633.67,311.96 645.39,308.6 661.05,287.28 648.93,290.85 		"/>
		<polygon class="st1" points="887.01,220.67 865.51,227.01 846.2,251 867.16,244.99 		"/>
		<polygon class="st1" points="947.06,147.13 923.87,154.49 901.21,182.65 924.03,175.34 		"/>
		<polygon class="st1" points="653,306.42 666.59,302.52 682.87,280.85 668.72,285.02 		"/>
		<polygon class="st1" points="918.4,182.23 895.69,189.51 870.84,220.39 892.44,214.03 		"/>
		<polygon class="st1" points="566.99,289.79 581.37,285.18 601.29,256.96 586.7,261.6 		"/>
		<polygon class="st1" points="830.26,237.4 812.79,242.55 794.26,265.9 811.26,261.03 		"/>
		<polygon class="st1" points="861.79,251.57 840.93,257.55 818.37,285.59 838.34,280.28 		"/>
		<polygon class="st1" points="536.11,380.63 546.93,377.86 560.22,359.11 549.31,362 		"/>
		<polygon class="st1" points="572.29,329.57 583.41,326.38 597.94,305.88 586.74,309.18 		"/>
		<polygon class="st1" points="661.77,308.94 648.32,312.8 631.99,335.05 644.69,331.68 		"/>
		<polygon class="st1" points="601.06,368.99 590.51,371.69 576.79,390.67 586.92,388.25 		"/>
		<polygon class="st1" points="519.26,404.41 529.93,401.86 542.6,383.96 531.78,386.74 		"/>
		<polygon class="st1" points="570.55,308.9 583.76,305.01 597.98,284.94 584.39,289.29 		"/>
		<polygon class="st1" points="561.32,379.17 549.85,382.11 537.07,400.16 547.85,397.58 		"/>
		<polygon class="st1" points="583.18,373.57 568.71,377.28 555.12,395.84 569.58,392.39 		"/>
		<polygon class="st1" points="777.46,252.97 760.69,257.91 743.3,280.52 759.31,275.93 		"/>
		<polygon class="st1" points="516.35,385.69 528.86,382.49 542,363.94 529.33,367.3 		"/>
		<polygon class="st1" points="804.72,244.93 785.5,250.59 767.29,273.64 786.26,268.2 		"/>
		<polygon class="st1" points="533.68,361.14 546.37,357.77 560.36,338.03 547.36,341.76 		"/>
		<polygon class="st1" points="551.82,335.44 564.84,331.71 579.24,311.39 566.05,315.28 		"/>
		<polygon class="st1" points="591.26,302.8 602.46,299.5 617.12,278.8 605.66,282.47 		"/>
		<polygon class="st1" points="779.1,301.02 763.02,305.28 745.89,326.88 761.52,322.88 		"/>
		<polygon class="st1" points="857.36,229.41 838.41,235 819.34,258.71 838.12,253.32 		"/>
		<polygon class="st1" points="832.85,259.87 814.07,265.26 792.12,292.55 810.47,287.68 		"/>
		<polygon class="st1" points="805.34,294.05 787,298.92 769.34,320.87 787.5,316.22 		"/>
		<polygon class="st1" points="674.64,255.28 687.59,251.13 708.25,222.98 694.91,227.22 		"/>
		<polygon class="st1" points="499.87,409.04 512.12,406.11 524.53,388.59 512.04,391.79 		"/>
		<polygon class="st1" points="620.39,364.03 608.46,367.09 594.2,386.51 605.55,383.8 		"/>
		<polygon class="st1" points="642.47,358.38 627.89,362.11 612.92,382.04 627.1,378.66 		"/>
		<polygon class="st1" points="686.51,325.59 670.08,329.95 654.71,350.24 670.89,346.09 		"/>
		<polygon class="st1" points="887.32,192.19 867.81,198.44 843.73,228.38 862.69,222.8 		"/>
		<polygon class="st1" points="728.96,314.32 714.3,318.21 698.25,339.09 712.22,335.51 		"/>
		<polygon class="st1" points="706.63,320.25 694.13,323.57 678.46,344.16 690.64,341.04 		"/>
		<polygon class="st1" points="755.19,307.36 736.77,312.25 719.96,333.53 738.13,328.87 		"/>
		<polygon class="st1" points="915.52,157.15 896.04,163.33 873.32,191.59 892.83,185.34 		"/>
		<polygon class="st1" points="846.36,200.23 864.94,194.28 887.7,165.98 868.75,172 		"/>
		<polygon class="st1" points="818.16,209.28 838.07,202.89 860.5,174.63 840.53,180.97 		"/>
		<polygon class="st1" points="662.48,331.97 647.56,335.93 632.54,355.92 647.17,352.17 		"/>
		<polygon class="st1" points="859.43,201.13 840.95,207.05 818.01,235.96 835.58,230.78 		"/>
		<polygon class="st1" points="718.74,241.14 735.33,235.83 756.72,207.59 739.94,212.92 		"/>
		<polygon class="st1" points="791.54,217.81 809.89,211.92 832.29,183.59 813.2,189.65 		"/>
		<polygon class="st1" points="695.44,248.61 710.77,243.7 731.98,215.45 716.08,220.5 		"/>
		<polygon class="st1" points="790.7,244.01 809.95,238.34 832.66,209.71 812.78,216.09 		"/>
		<polygon class="st1" points="769.19,224.97 783.43,220.41 805.12,192.22 790.63,196.82 		"/>
		<polygon class="st1" points="743.35,233.26 761.15,227.55 782.6,199.37 764.72,205.05 		"/>
		<polygon class="st1" points="695.52,272.07 711.42,267.38 730.24,242.54 713.71,247.84 		"/>
		<polygon class="st1" points="673.45,278.57 687.74,274.36 705.74,250.4 690.56,255.26 		"/>
		<polygon class="st1" points="719.24,265.08 736.44,260.01 756.02,234.28 738.26,239.97 		"/>
		<polygon class="st1" points="609.96,297.29 624.35,293.04 640.19,271.41 624.8,276.34 		"/>
		<polygon class="st1" points="653.57,284.43 665.78,280.83 682.71,257.78 669.85,261.9 		"/>
		<polygon class="st1" points="632,290.79 645.98,286.67 662.08,264.39 648.03,268.89 		"/>
		<polygon class="st1" points="666.17,352.3 650.01,356.45 634.52,376.88 650.33,373.11 		"/>
		<polygon class="st1" points="744.28,257.69 757.82,253.71 778.24,227.15 764.08,231.7 		"/>
		<polygon class="st1" points="664.8,374.63 653.13,377.42 637.68,397.72 641.72,396.88 650.9,393.63 650.45,393.29 		"/>
		<polygon class="st1" points="765.72,251.38 782.66,246.38 804.51,218.73 786.35,224.56 		"/>
		<polygon class="st1" points="571.9,351 584.36,347.69 599.69,326.75 586.38,330.57 		"/>
		<polygon class="st1" points="579.81,353.91 567.53,357.17 554.18,376 565.82,373.02 		"/>
		<polygon class="st1" points="709.63,295.21 692.73,300.06 674.83,323.68 691.29,319.31 		"/>
		<polygon class="st1" points="865.88,167.83 896.48,129.26 877.22,134.54 845.89,174.18 		"/>
		<polygon class="st1" points="646.34,237.57 681.27,188.27 670.27,191.29 634.9,241.2 		"/>
		<polygon class="st1" points="605.91,250.41 634.77,209.53 616.5,218.98 591.27,255.07 		"/>
		<polygon class="st1" points="627.25,243.63 661.03,195.96 644.1,204.71 613.55,247.99 		"/>
		<polygon class="st1" points="603.57,409.71 590.05,412.5 587.32,416.14 602.88,410.63 		"/>
		<polygon class="st1" points="691.93,223.09 725.94,176.03 713.5,179.44 678.41,227.38 		"/>
		<polygon class="st1" points="670.59,229.87 705.99,181.5 688.63,186.25 653.99,235.14 		"/>
		<polygon class="st1" points="572.45,416.14 567.24,423.24 579.72,418.82 579.41,418.6 582.88,413.98 		"/>
		<polygon class="st1" points="555.92,419.55 548.45,429.89 559.84,425.86 559.49,425.61 565.37,417.6 		"/>
		<polygon class="st1" points="548.9,421 534.53,423.97 523.82,438.61 540.42,432.73 		"/>
		<polygon class="st1" points="510.78,428.88 500.4,431.03 485.39,452.21 497.21,448.03 		"/>
		<polygon class="st1" points="517.73,427.44 505.13,445.22 516.09,441.34 515.91,441.21 527.46,425.43 		"/>
		<polygon class="st1" points="442.91,467.24 456.17,462.55 474.67,436.34 462.81,438.79 		"/>
		<polygon class="st1" points="481.61,434.91 464.07,459.76 477.92,454.85 477.69,454.69 493.45,432.46 		"/>
		<polygon class="st1" points="684.97,302.29 669.48,306.73 652.25,329.67 667.23,325.7 		"/>
		<polygon class="st1" points="713.11,216.36 746.96,170.26 733.39,173.98 699.68,220.63 		"/>
		<polygon class="st1" points="685.13,369.78 672.28,372.85 658.3,391.01 672.74,385.9 672.52,385.73 		"/>
		<polygon class="st1" points="822.6,307.23 841.44,302.4 861.5,279.15 841.1,284.56 		"/>
		<polygon class="st1" points="846.32,278.17 867.11,272.65 893.03,242.61 869.95,249.23 		"/>
		<polygon class="st1" points="797.5,337.97 814.19,333.98 835.91,308.81 817.44,313.55 		"/>
		<polygon class="st1" points="619.96,343.25 608.95,346.17 594.94,365.56 605.58,362.83 		"/>
		<polygon class="st1" points="640,337.93 627.42,341.27 612.98,360.93 625.04,357.84 		"/>
		<polygon class="st1" points="875.32,242.65 898.81,235.92 920.47,210.81 895.24,218.25 		"/>
		<polygon class="st1" points="611.94,318.19 626.14,314.13 641.34,293.08 627.29,297.23 		"/>
		<polygon class="st1" points="837.65,176.8 869.34,136.7 849.8,142.06 818.37,182.93 		"/>
		<polygon class="st1" points="932.49,172.63 961.42,163.35 986.13,134.72 955.5,144.45 		"/>
		<polygon class="st1" points="900.67,211.6 926.31,204.04 955.36,170.38 926.87,179.51 		"/>
		<polygon class="st1" points="601.56,348.13 587.26,351.93 573.21,371.12 587.61,367.44 		"/>
		<polygon class="st1" points="740.68,356.51 734.67,363.99 755.84,356.49 755.39,356.12 758.5,352.26 		"/>
		<polygon class="st1" points="692.74,367.96 680.82,383.04 700.75,375.99 710.48,363.72 		"/>
		<polygon class="st1" points="737,208.77 770.84,163.71 754.48,168.2 720.95,213.87 		"/>
		<polygon class="st1" points="761.79,200.9 794.98,157.09 778.46,161.62 744.95,206.25 		"/>
		<polygon class="st1" points="709.34,372.95 725.98,367.06 732.99,358.35 718.1,361.9 		"/>
		<polygon class="st1" points="787.7,192.67 820.01,150.23 802.65,154.99 769.79,198.36 		"/>
		<polygon class="st1" points="763.48,353.79 784.36,346.4 784.68,346 766.19,350.42 		"/>
		<polygon class="st1" points="810.29,185.49 842.06,144.18 827.7,148.12 795.73,190.12 		"/>
		<path class="st7" d="M498.1,504.31"/>
		<g>
			<path class="st8" d="M688.43,587.74c0-0.04-0.02-0.07-0.02-0.11c0,1.21,25.02-110.56,25.02-110.56l-0.03,0L627.9,710.1
				l33.47,1.41l-0.79-0.18L688.43,587.74z"/>
			<polygon class="st5" points="485.05,524.81 485.57,524.69 485.05,524.69 			"/>
			<path class="st9" d="M655.73,483.13L467.2,528.69l10.62,11.15l165.25-31.69l0.31,1.58l-164.09,31.59l131.96-16.64
				c0.17-0.04,6.12-1.34,9.83,1.84c2.09,1.78,3.02,4.58,2.77,8.3c-0.79,11.94-15.89,171.73-16.14,174.42l18.5,0.78l85.4-232.76
				L655.73,483.13z"/>
		</g>
		<path class="st3" d="M530.67,343.39"/>
		<path class="st3" d="M509.72,368.88"/>
		<path class="st3" d="M491.51,394.18"/>
		<path class="st3" d="M475.1,416.48"/>
		<path class="st3" d="M462.32,436.34"/>
		<g>
			<path class="st3" d="M497.76,449.63"/>
			<g>
				<line class="st2" x1="263.92" y1="434.29" x2="265.31" y2="431.46"/>
				<polygon class="st2" points="518.39,290.96 505.09,310.28 513.03,307.28 526.82,287.26 				"/>
				<polygon class="st2" points="488.33,304.17 476.77,320.96 484.71,317.96 496.76,300.46 				"/>
				<polygon class="st2" points="401.25,378.28 409.04,366.96 401.41,369.5 393.91,380.4 				"/>
				<polygon class="st1" points="288.46,472.64 295.75,462.05 279.06,464.38 272,474.64 				"/>
				<polygon class="st1" points="331.45,410.21 337.24,401.81 318.41,407.26 313.29,414.68 				"/>
				<polygon class="st1" points="258.07,494.86 264.91,506.82 284.79,477.96 268.33,479.96 				"/>
				<polygon class="st1" points="378.42,342.01 355,354.12 351.72,358.89 373.34,349.39 				"/>
				<polygon class="st1" points="341.57,395.52 347.05,387.57 327.49,394.07 322.74,400.96 				"/>
				<polygon class="st1" points="311.68,438.92 318.51,429.01 301.2,432.25 294.83,441.49 				"/>
				<polygon class="st1" points="322.4,423.35 327.32,416.22 309.16,420.68 305.09,426.59 				"/>
				<polygon class="st1" points="346.49,366.48 343.13,371.35 363.51,363.67 368.12,356.98 				"/>
				<polygon class="st1" points="299.47,456.64 307.91,444.39 291.06,446.96 282.78,458.98 				"/>
				<polygon class="st1" points="351.61,380.95 358.69,370.66 338.32,378.34 332.05,387.45 				"/>
				<polygon class="st1" points="381.92,397.81 389.58,386.69 370.75,392.13 363.76,402.27 				"/>
				<polygon class="st1" points="405.97,362.88 415.33,349.3 394.95,356.98 386.41,369.38 				"/>
				<polygon class="st1" points="406.6,340.07 399.77,350 420.14,342.31 428.22,330.57 				"/>
				<polygon class="st1" points="334.21,467.07 342.13,455.58 325.44,457.91 317.75,469.08 				"/>
				<polygon class="st1" points="279.08,525.23 299.02,518.17 330.54,472.4 314.08,474.4 				"/>
				<polygon class="st1" points="358.51,431.79 366.63,420 349.32,423.24 341.67,434.35 				"/>
				<polygon class="st1" points="345.86,450.17 354.75,437.26 337.9,439.82 329.17,452.5 				"/>
				<polygon class="st1" points="443.51,308.38 420.09,320.48 411.82,332.49 433.45,322.99 				"/>
				<polygon class="st1" points="393.91,380.4 401.41,369.5 381.85,376 375.08,385.84 				"/>
				<polygon class="st1" points="370.52,414.35 377.78,403.81 359.63,408.27 353.21,417.59 				"/>
				<polygon class="st1" points="267.58,511.49 274.42,523.46 307.67,475.18 291.21,477.18 				"/>
				<polygon class="st1" points="311.33,469.86 318.94,458.81 302.25,461.15 294.87,471.86 				"/>
				<polygon class="st1" points="410.97,325.2 387.55,337.3 381.77,345.69 403.39,336.19 				"/>
				<polygon class="st1" points="335.1,435.35 342.57,424.51 325.26,427.74 318.25,437.92 				"/>
				<polygon class="st1" points="346.46,418.85 352.55,410.01 334.39,414.48 329.15,422.09 				"/>
				<polygon class="st1" points="322.66,453.41 331.33,440.82 314.48,443.39 305.98,455.74 				"/>
				<polygon class="st1" points="356.68,404.01 363.41,394.25 344.58,399.69 338.53,408.47 				"/>
				<polygon class="st1" points="367.74,387.96 374.23,378.53 354.67,385.04 348.91,393.4 				"/>
				<polygon class="st1" points="376.55,353.27 371.45,360.67 391.82,352.99 398.17,343.78 				"/>
				<polygon class="st1" points="378.79,371.92 387.01,359.98 366.63,367.67 359.23,378.42 				"/>
				<polygon class="st1" points="394.58,409.85 403.02,397.6 384.86,402.07 377.27,413.09 				"/>
				<polygon class="st1" points="369.05,446.93 378.16,433.69 361.32,436.26 352.36,449.26 				"/>
				<polygon class="st1" points="476.06,291.56 452.64,303.66 441.88,319.29 463.5,309.79 				"/>
				<polygon class="st1" points="420.08,372.83 428.6,360.46 409.04,366.96 401.25,378.28 				"/>
				<polygon class="st1" points="381.93,428.22 390.69,415.5 373.38,418.74 365.08,430.79 				"/>
				<polygon class="st1" points="306.8,515.42 326.74,508.36 353.42,469.62 336.96,471.62 				"/>
				<polygon class="st1" points="407.15,391.6 415.74,379.13 396.92,384.57 389,396.07 				"/>
				<polygon class="st1" points="357.09,464.29 365.32,452.33 348.64,454.67 340.63,466.29 				"/>
				<polygon class="st1" points="436.65,326.87 428.08,339.32 448.46,331.63 458.28,317.37 				"/>
				<polygon class="st1" points="433.15,353.85 443.64,338.62 423.27,346.31 413.59,360.35 				"/>
				<polygon class="st1" points="445.18,436.29 460.1,434.21 470.27,419.66 455.03,421.98 				"/>
				<polygon class="st1" points="432.18,455.16 446.69,453.4 456.32,439.63 441.45,441.7 				"/>
				<polygon class="st1" points="607.24,223.76 582.82,236.38 562.1,266.47 584.15,256.78 				"/>
				<polygon class="st1" points="556.88,274.05 541.36,296.6 561.67,288.94 578.82,264.42 				"/>
				<polygon class="st1" points="522.35,324.2 541.46,317.85 556.76,295.96 536.55,303.59 				"/>
				<polygon class="st1" points="505.96,348.01 524.02,342.79 536.81,324.5 517.8,330.82 				"/>
				<polygon class="st1" points="473.55,395.08 489.55,392.09 502.86,373.05 485.83,377.24 				"/>
				<polygon class="st1" points="489.97,371.24 507.07,367.03 519.6,349.11 501.63,354.31 				"/>
				<polygon class="st1" points="458.79,416.51 474.11,414.18 485.59,397.75 469.66,400.74 				"/>
				<polygon class="st1" points="417.73,476.16 435.06,470.02 442.96,458.73 428.52,460.48 				"/>
				<polygon class="st1" points="255.41,490.19 261.91,480.74 250.78,482.1 				"/>
				<polygon class="st1" points="345.88,358.83 312.03,376.33 343.29,362.6 				"/>
				<polygon class="st1" points="319.86,396.6 275.13,411.47 273.27,415.26 315.4,403.09 				"/>
				<polygon class="st1" points="330.38,381.34 280.75,400.05 278.13,405.37 324.42,389.99 				"/>
				<polygon class="st1" points="288.45,391.97 335.19,374.35 338.06,370.18 				"/>
				<polygon class="st1" points="311.07,409.38 270.38,421.14 268.1,425.79 306.22,416.42 				"/>
				<polygon class="st1" points="298.34,427.85 302.08,422.42 265.31,431.46 263.92,434.29 				"/>
				<polygon class="st1" points="284.49,447.96 264.45,451.01 264.74,452.87 259.96,462.17 276.28,459.88 				"/>
				<polygon class="st1" points="272.56,465.29 257.25,467.43 252.32,477.03 265.58,475.42 				"/>
				<polygon class="st1" points="294.45,433.51 262.63,439.46 263.7,446.23 288.26,442.49 				"/>
				<polygon class="st1" points="482.89,372.98 494.29,356.43 475.43,361.88 464.7,377.45 				"/>
				<polygon class="st1" points="526.82,287.26 513.03,307.28 533.42,299.59 548.45,277.76 				"/>
				<polygon class="st1" points="514.73,326.74 528.61,306.58 508.21,314.27 495.15,333.25 				"/>
				<polygon class="st1" points="425.77,455.94 434.95,442.61 418.21,444.95 409.26,457.95 				"/>
				<polygon class="st1" points="438.67,437.2 448.46,422.98 431.57,425.56 421.94,439.54 				"/>
				<polygon class="st1" points="452.23,417.51 462.91,402 445.56,405.24 435.34,420.08 				"/>
				<polygon class="st1" points="466.8,396.34 478.76,378.98 460.56,383.45 449.45,399.59 				"/>
				<polygon class="st1" points="498.62,350.13 510.18,333.35 490.59,339.86 479.76,355.58 				"/>
				<polygon class="st1" points="573.69,241.1 550.28,253.2 532.04,279.68 553.67,270.17 				"/>
				<polygon class="st1" points="389.95,485.99 409.96,478.91 422.1,461.26 405.59,463.27 				"/>
				<polygon class="st1" points="472.42,357.71 482.97,342.4 463.41,348.9 453.59,363.15 				"/>
				<polygon class="st1" points="487.52,335.78 500.27,317.27 479.9,324.95 467.96,342.28 				"/>
				<polygon class="st1" points="541.15,257.92 517.73,270.02 501.99,292.88 523.61,283.38 				"/>
				<polygon class="st1" points="362.23,495.8 382.17,488.74 399.18,464.05 382.71,466.05 				"/>
				<polygon class="st1" points="496.76,300.46 484.71,317.96 505.09,310.28 518.39,290.96 				"/>
				<polygon class="st1" points="415.43,440.45 425,426.56 408.15,429.13 398.74,442.78 				"/>
				<polygon class="st1" points="428.77,421.09 438.81,406.5 421.5,409.74 411.92,423.65 				"/>
				<polygon class="st1" points="402.84,458.73 411.71,445.86 395.02,448.19 386.38,460.73 				"/>
				<polygon class="st1" points="442.71,400.85 453.49,385.2 435.33,389.66 425.39,404.09 				"/>
				<polygon class="st1" points="457.62,379.19 468.09,364 449.26,369.44 439.46,383.66 				"/>
				<polygon class="st1" points="508.6,274.74 485.19,286.84 471.93,306.08 493.55,296.58 				"/>
				<polygon class="st1" points="334.51,505.61 354.45,498.55 376.3,466.84 359.84,468.84 				"/>
				<polygon class="st1" points="460.34,344.81 471.96,327.95 451.58,335.63 440.78,351.31 				"/>
				<polygon class="st1" points="446.25,365.27 455.78,351.43 436.22,357.93 427.42,370.71 				"/>
				<polygon class="st1" points="466.71,313.67 456.4,328.64 476.77,320.96 488.33,304.17 				"/>
				<polygon class="st1" points="392.24,443.69 401.58,430.12 384.73,432.69 375.55,446.02 				"/>
				<polygon class="st1" points="405.35,424.65 414.75,411 397.44,414.24 388.5,427.22 				"/>
				<polygon class="st1" points="418.64,405.35 428.25,391.4 410.1,395.87 401.33,408.59 				"/>
				<polygon class="st1" points="379.97,461.51 388.52,449.09 371.83,451.43 363.5,463.51 				"/>
				<polygon class="st1" points="432.39,385.4 441.92,371.56 423.09,377 414.23,389.86 				"/>
			</g>
		</g>
	</g>
</g>
<polygon class="st3" points="888.67,264.96 868.13,288.69 886.75,276.26 888.92,264.8 "/>
<polygon class="st3" points="867.63,279.46 866.41,288.21 885.96,265.62 "/>
<polygon class="st3" points="884.15,289.97 886.04,280.02 866.16,304.91 883.65,292.6 883.79,291.9 "/>
<polygon class="st3" points="880.37,296.89 863.57,308.7 862.21,318.55 "/>
<polygon class="st3" points="883.92,280.09 865.87,292.15 864.1,304.9 "/>
<polygon class="st3" points="891.56,250.93 870.97,274.92 889.69,260.79 "/>
<polygon class="st3" points="880.93,306.75 880.96,306.79 882.95,296.32 864.25,318.63 "/>
<polygon class="st3" points="860.41,331.54 862.44,330.4 879.42,309.81 861.67,322.45 "/>
<polygon class="st3" points="941.66,213.58 941.81,213.41 945.17,201.6 922.88,224.96 941.54,214.34 941.78,213.49 "/>
<polygon class="st3" points="950.76,181.96 927.93,208.55 946.2,197.97 "/>
<polygon class="st3" points="925.23,211.99 922.32,223.2 942.67,201.88 "/>
<polygon class="st3" points="938.47,225.13 940.75,217.12 919.13,239.9 936.59,231.75 937.99,226.83 "/>
<polygon class="st3" points="916.5,246.06 916.37,246.21 913.5,257.28 934.54,234.49 917.33,242.51 916.39,246.13 "/>
<polygon class="st3" points="928.33,250.51 932.79,245.1 935.39,235.95 915.61,257.37 "/>
<polygon class="st3" points="920.23,231.3 918.42,238.3 936.89,218.84 921.13,227.81 920.63,229.74 "/>
<polygon class="st3" points="912.08,262.78 911.81,263.83 909.28,273.61 925.6,253.81 912.58,260.85 "/>
<polygon class="st3" points="914.13,235.71 895.52,247.37 893.52,257.89 896.09,255.96 "/>
<polygon class="st3" points="904.41,278.32 904.63,278.7 907.27,268.5 889.47,286.81 "/>
<polygon class="st3" points="917.22,230.04 917.75,228 920.56,217.14 897.1,244.48 916.65,232.23 "/>
<polygon class="st3" points="907.78,253.29 892.64,262.53 890.85,271.96 "/>
<polygon class="st3" points="887.19,291.25 884.95,303.11 903.37,280.77 889.25,288.79 "/>
<polygon class="st3" points="905.34,268.17 890.04,276.26 888.23,285.77 "/>
<polygon class="st3" points="913.84,243.12 915.53,236.57 895.78,258.72 912.43,248.55 913.54,244.28 "/>
<polyline class="st3" points="908.87,262.3 911.71,251.36 891.47,273.67 908.22,264.82 908.71,262.94 "/>
<polygon class="st3" points="836.39,327.32 817.14,348.05 835.69,334.2 836.39,327.32 "/>
<polygon class="st3" points="813.85,343.38 813.4,349.71 831.17,330.57 "/>
<polygon class="st3" points="812.62,360.83 812.09,368.32 830.52,349.64 "/>
<polygon class="st3" points="837.8,313.55 814.04,341.24 836.68,324.48 "/>
<polygon class="st3" points="811.87,371.38 811.12,382 830.32,359.17 "/>
<polygon class="st3" points="813.17,353.03 812.83,357.79 828.9,341.28 "/>
<polygon class="st3" points="832.37,366.67 833.24,358.2 814.29,380.73 "/>
<polygon class="st3" points="810.3,393.62 828.09,372.04 810.88,385.43 "/>
<polygon class="st3" points="815.83,366.82 833.56,355.09 834.27,348.14 "/>
<polygon class="st3" points="816.09,356.75 834.57,345.21 835.41,336.91 "/>
<polygon class="st3" points="855.53,314.23 839.88,324.93 839.3,330.66 "/>
<polygon class="st3" points="855.21,326.05 838.93,334.25 838.08,342.62 "/>
<polygon class="st3" points="840.66,331.58 858.38,322.64 859.84,312.16 "/>
<polygon class="st3" points="840.02,342.99 856.88,333.52 857.97,325.63 "/>
<polygon class="st3" points="841.47,309.44 840.22,321.66 859.66,296.49 "/>
<polygon class="st3" points="842.77,321 860.27,309.03 862.08,296 "/>
<polygon class="st3" points="852.34,337.92 837.72,346.13 837.13,351.93 "/>
<polygon class="st3" points="863.85,283.21 845.5,304.59 862.57,292.43 "/>
<polygon class="st3" points="836.05,362.39 856.27,337.88 856.49,336.29 836.88,354.35 "/>
<polygon class="st3" points="985.5,143.06 982.77,151.89 1007.98,124.57 "/>
<polygon class="st3" points="1004.45,141.25 981.31,156.59 976.9,170.85 "/>
<polygon class="st3" points="1000.85,155.81 1005.34,142.66 981.37,168.41 "/>
<polygon class="st3" points="984.15,152.77 1007.08,137.57 1012.31,122.25 "/>
<polygon class="st3" points="974.57,178.4 972.53,184.99 999.37,158.7 975.98,173.83 975.09,176.71 "/>
<polyline class="st3" points="1019.11,102.33 987.01,139.73 1013.9,117.61 1019.11,102.33 "/>
<polygon class="st3" points="990.89,174.65 996.91,167.36 998.96,161.35 977.24,182.63 "/>
<polyline class="st3" points="969.84,193.67 966.62,204.09 987.92,178.26 971.67,187.75 970.16,192.63 "/>
<polygon class="st3" points="960.77,209.97 961.21,210.64 964.77,199.14 945.37,220.06 "/>
<polygon class="st3" points="946.79,207.71 967.55,183.97 950.73,195.77 949.96,196.59 "/>
<polygon class="st3" points="973.46,163.1 954.83,179.46 951.17,192.31 "/>
<polygon class="st3" points="945.57,212.05 945.55,212.07 943.32,219.9 961.38,200.43 945.93,210.73 945.55,212.06 "/>
<polygon class="st3" points="967.68,189.74 969.34,184.38 950.88,205.49 965.91,195.46 967.55,190.16 "/>
<polygon class="st3" points="980.98,146.76 954.5,177.6 977.75,157.18 "/>
<polygon class="st3" points="940.46,229.95 940.25,230.69 937.91,238.89 959.48,212.74 942.12,224.13 "/>
<polygon class="st3" points="971.33,176.83 971.84,176.29 976.22,162.14 953.6,191.79 970.78,179.73 971.76,176.56 "/>
<polygon class="st3" points="834.27,348.06 834.27,348.14 834.42,347.98 "/>
<polygon class="st3" points="835.69,334.2 835.68,334.32 836.09,333.9 "/>
<polygon class="st3" points="863.07,292.08 862.57,292.43 862.54,292.7 "/>
<polygon class="st3" points="836.39,327.32 836.39,327.32 836.39,327.32 "/>
<polygon class="st3" points="888.96,264.62 888.67,264.96 888.92,264.8 "/>
<polygon class="st3" points="916.5,246.06 916.39,246.13 916.37,246.21 "/>
<line class="st3" x1="908.71" y1="262.94" x2="908.87" y2="262.3"/>
<polygon class="st3" points="945.57,212.05 945.55,212.06 945.55,212.07 "/>
<polygon class="st3" points="949.96,196.59 950.73,195.77 950.05,196.25 "/>
<polygon class="st3" points="941.78,213.49 941.81,213.41 941.66,213.58 "/>
</svg>
