<?xml version="1.0" encoding="utf-8"?>
<!-- Generator: Adobe Illustrator 23.0.3, SVG Export Plug-In . SVG Version: 6.00 Build 0)  -->
<svg version="1.1" id="Layer_1" xmlns="http://www.w3.org/2000/svg" xmlns:xlink="http://www.w3.org/1999/xlink" x="0px" y="0px"
	 viewBox="0 0 1252.08 1149" style="enable-background:new 0 0 1252.08 1149;" xml:space="preserve">
<style type="text/css">
	.st0{opacity:0.27;fill:#010101;}
	.st1{opacity:0.11;fill:#010101;}
	.st2{fill:#CDCFCF;}
	.st3{fill:#B2B2B2;}
	.st4{fill:#87898C;}
	.st5{fill:#979797;}
	.st6{fill:#676767;}
	.st7{clip-path:url(#SVGID_2_);fill:#87898C;}
	.st8{clip-path:url(#SVGID_4_);fill:#87898C;}
	.st9{clip-path:url(#SVGID_6_);fill:#87898C;}
	.st10{clip-path:url(#SVGID_8_);fill:#87898C;}
	.st11{clip-path:url(#SVGID_10_);fill:#87898C;}
	.st12{clip-path:url(#SVGID_12_);fill:#87898C;}
	.st13{clip-path:url(#SVGID_14_);fill:#87898C;}
	.st14{clip-path:url(#SVGID_16_);fill:#87898C;}
	.st15{clip-path:url(#SVGID_18_);fill:#87898C;}
	.st16{opacity:0.62;fill:#B2B2B2;}
	.st17{opacity:0.84;fill:#B2B2B2;}
	.st18{opacity:0.68;fill:#B2B2B2;}
	.st19{opacity:0.55;}
	.st20{opacity:0.55;fill:#818181;}
	.st21{opacity:0.81;fill:#818181;}
	.st22{opacity:0.79;fill:#B2B2B2;}
	.st23{opacity:0.87;fill:#B2B2B2;}
	.st24{fill:#8E8D8D;}
</style>
<polygon class="st0" points="0,735.11 1252.08,794 1252.08,731.9 424.37,728.68 0,716.91 "/>
<polygon class="st1" points="0,716.91 70.4,692.5 145.97,692.28 146.23,713.43 425.71,714.76 606.67,708.61 660.09,710.71 
	665.22,689.41 690.99,688 1109,688 1252.08,731.9 424.37,728.68 "/>
<g>
	<path class="st2" d="M727.49,696.66c5.26,1.51,5.28,3.96,0.06,5.46c-5.22,1.51-13.71,1.51-18.97,0c-5.25-1.51-5.28-3.95-0.06-5.46
		C713.74,695.15,722.23,695.15,727.49,696.66"/>
	<path class="st3" d="M718.08,702.35c-3.32,0-6.44-0.36-8.75-1.03c-2.07-0.59-3.21-1.34-3.21-2.1c0-0.75,1.12-1.49,3.15-2.08
		c2.3-0.67,5.4-1.03,8.73-1.03c3.32,0,6.43,0.37,8.75,1.03c2.07,0.59,3.21,1.34,3.21,2.1c0,0.75-1.12,1.49-3.15,2.08
		C724.5,701.99,721.4,702.35,718.08,702.35"/>
	<path class="st4" d="M709.77,698.1c2.3-0.67,5.4-1.03,8.72-1.03c3.32,0,6.43,0.37,8.75,1.03c1.27,0.37,2.19,0.79,2.71,1.23
		c0-0.03,0.01-0.06,0.01-0.09c0-0.76-1.14-1.51-3.21-2.1c-2.32-0.67-5.43-1.03-8.75-1.03c-3.33,0-6.43,0.37-8.73,1.03
		c-2.03,0.59-3.15,1.33-3.15,2.08c0,0.29,0.18,0.59,0.5,0.87C706.7,699.37,707.81,698.67,709.77,698.1"/>
	<path class="st5" d="M718.02,699.36c-0.91,0-2.46-0.74-2.46-1.65l0.81-24.72c0-0.91,0.74-1.65,1.65-1.65
		c0.91,0,1.64,0.74,1.64,1.65l0.82,24.72C720.48,698.62,718.92,699.36,718.02,699.36"/>
	<path class="st6" d="M720.26,691.05l-0.6-18.06c0-0.91-0.73-1.65-1.64-1.65c-0.91,0-1.65,0.74-1.65,1.65l-0.63,19.19
		C717.04,691.42,718.67,691.06,720.26,691.05"/>
	<path class="st3" d="M709.07,679.42c0-4.94,4-22.94,8.94-22.94c4.94,0,8.94,18.01,8.94,22.94c0,4.94-4,8.94-8.94,8.94
		C713.08,688.36,709.07,684.35,709.07,679.42"/>
	<path class="st3" d="M718.02,685.87c-3.1,0-5.91-0.93-8-2.45c1.47,2.93,4.5,4.94,8,4.94c3.5,0,6.53-2.01,8-4.94
		C723.93,684.93,721.11,685.87,718.02,685.87"/>
	<g>
		<defs>
			<path id="SVGID_1_" d="M704.61,700.73c0,1,1.32,1.99,3.96,2.75c5.26,1.51,13.75,1.51,18.97,0c2.59-0.75,3.89-1.73,3.9-2.71
				l0.01-1.36c0,0.98-1.3,1.96-3.9,2.71c-5.22,1.51-13.71,1.51-18.97,0c-2.64-0.76-3.96-1.76-3.96-2.75L704.61,700.73z"/>
		</defs>
		<clipPath id="SVGID_2_">
			<use xlink:href="#SVGID_1_"  style="overflow:visible;"/>
		</clipPath>
		<path class="st7" d="M731.44,699.41l-0.01,1.36c-0.01,0.98-1.31,1.96-3.9,2.71c-5.22,1.51-13.71,1.51-18.96,0
			c-2.64-0.76-3.96-1.75-3.96-2.75l0.01-1.36c-0.01,0.99,1.32,1.99,3.96,2.75c5.26,1.51,13.75,1.51,18.97,0
			C730.14,701.37,731.44,700.39,731.44,699.41"/>
	</g>
</g>
<g>
	<path class="st2" d="M771.49,696.66c5.26,1.51,5.28,3.96,0.06,5.46c-5.22,1.51-13.71,1.51-18.97,0c-5.25-1.51-5.28-3.95-0.06-5.46
		C757.74,695.15,766.23,695.15,771.49,696.66"/>
	<path class="st3" d="M762.08,702.35c-3.32,0-6.44-0.36-8.75-1.03c-2.07-0.59-3.21-1.34-3.21-2.1c0-0.75,1.12-1.49,3.15-2.08
		c2.3-0.67,5.4-1.03,8.73-1.03c3.32,0,6.43,0.37,8.75,1.03c2.07,0.59,3.21,1.34,3.21,2.1c0,0.75-1.12,1.49-3.15,2.08
		C768.5,701.99,765.4,702.35,762.08,702.35"/>
	<path class="st4" d="M753.77,698.1c2.3-0.67,5.4-1.03,8.72-1.03c3.32,0,6.43,0.37,8.75,1.03c1.27,0.37,2.19,0.79,2.71,1.23
		c0-0.03,0.01-0.06,0.01-0.09c0-0.76-1.14-1.51-3.21-2.1c-2.32-0.67-5.43-1.03-8.75-1.03c-3.33,0-6.43,0.37-8.73,1.03
		c-2.03,0.59-3.15,1.33-3.15,2.08c0,0.29,0.18,0.59,0.5,0.87C750.7,699.37,751.81,698.67,753.77,698.1"/>
	<path class="st5" d="M762.02,699.36c-0.91,0-2.46-0.74-2.46-1.65l0.81-24.72c0-0.91,0.74-1.65,1.65-1.65
		c0.91,0,1.64,0.74,1.64,1.65l0.82,24.72C764.48,698.62,762.92,699.36,762.02,699.36"/>
	<path class="st6" d="M764.26,691.05l-0.6-18.06c0-0.91-0.74-1.65-1.64-1.65c-0.91,0-1.65,0.74-1.65,1.65l-0.63,19.19
		C761.04,691.42,762.67,691.06,764.26,691.05"/>
	<path class="st3" d="M753.07,679.42c0-4.94,4-22.94,8.94-22.94c4.94,0,8.94,18.01,8.94,22.94c0,4.94-4,8.94-8.94,8.94
		C757.08,688.36,753.07,684.35,753.07,679.42"/>
	<path class="st3" d="M762.02,685.87c-3.1,0-5.91-0.93-8-2.45c1.47,2.93,4.5,4.94,8,4.94c3.5,0,6.53-2.01,8-4.94
		C767.93,684.93,765.11,685.87,762.02,685.87"/>
	<g>
		<defs>
			<path id="SVGID_3_" d="M748.61,700.73c0,1,1.32,1.99,3.96,2.75c5.26,1.51,13.75,1.51,18.97,0c2.59-0.75,3.89-1.73,3.9-2.71
				l0.01-1.36c0,0.98-1.3,1.96-3.9,2.71c-5.22,1.51-13.71,1.51-18.97,0c-2.64-0.76-3.96-1.76-3.96-2.75L748.61,700.73z"/>
		</defs>
		<clipPath id="SVGID_4_">
			<use xlink:href="#SVGID_3_"  style="overflow:visible;"/>
		</clipPath>
		<path class="st8" d="M775.44,699.41l-0.01,1.36c-0.01,0.98-1.3,1.96-3.9,2.71c-5.22,1.51-13.71,1.51-18.96,0
			c-2.64-0.76-3.96-1.75-3.96-2.75l0.01-1.36c-0.01,0.99,1.32,1.99,3.96,2.75c5.26,1.51,13.75,1.51,18.97,0
			C774.14,701.37,775.44,700.39,775.44,699.41"/>
	</g>
</g>
<g>
	<path class="st2" d="M815.49,696.66c5.26,1.51,5.28,3.96,0.06,5.46c-5.22,1.51-13.71,1.51-18.97,0c-5.25-1.51-5.28-3.95-0.06-5.46
		C801.74,695.15,810.23,695.15,815.49,696.66"/>
	<path class="st3" d="M806.08,702.35c-3.32,0-6.44-0.36-8.75-1.03c-2.07-0.59-3.21-1.34-3.21-2.1c0-0.75,1.12-1.49,3.15-2.08
		c2.3-0.67,5.4-1.03,8.73-1.03c3.32,0,6.43,0.37,8.75,1.03c2.07,0.59,3.21,1.34,3.21,2.1c0,0.75-1.12,1.49-3.15,2.08
		C812.5,701.99,809.4,702.35,806.08,702.35"/>
	<path class="st4" d="M797.77,698.1c2.3-0.67,5.4-1.03,8.72-1.03c3.32,0,6.43,0.37,8.75,1.03c1.27,0.37,2.19,0.79,2.71,1.23
		c0-0.03,0.01-0.06,0.01-0.09c0-0.76-1.14-1.51-3.21-2.1c-2.32-0.67-5.43-1.03-8.75-1.03c-3.33,0-6.43,0.37-8.73,1.03
		c-2.03,0.59-3.15,1.33-3.15,2.08c0,0.29,0.18,0.59,0.5,0.87C794.7,699.37,795.81,698.67,797.77,698.1"/>
	<path class="st5" d="M806.02,699.36c-0.91,0-2.46-0.74-2.46-1.65l0.81-24.72c0-0.91,0.74-1.65,1.65-1.65
		c0.91,0,1.64,0.74,1.64,1.65l0.82,24.72C808.48,698.62,806.92,699.36,806.02,699.36"/>
	<path class="st6" d="M808.26,691.05l-0.6-18.06c0-0.91-0.74-1.65-1.64-1.65c-0.91,0-1.65,0.74-1.65,1.65l-0.63,19.19
		C805.04,691.42,806.67,691.06,808.26,691.05"/>
	<path class="st3" d="M797.07,679.42c0-4.94,4-22.94,8.94-22.94c4.94,0,8.94,18.01,8.94,22.94c0,4.94-4,8.94-8.94,8.94
		C801.08,688.36,797.07,684.35,797.07,679.42"/>
	<path class="st3" d="M806.02,685.87c-3.1,0-5.91-0.93-8-2.45c1.47,2.93,4.5,4.94,8,4.94c3.5,0,6.53-2.01,8-4.94
		C811.93,684.93,809.11,685.87,806.02,685.87"/>
	<g>
		<defs>
			<path id="SVGID_5_" d="M792.61,700.73c0,1,1.32,1.99,3.96,2.75c5.26,1.51,13.75,1.51,18.97,0c2.59-0.75,3.89-1.73,3.9-2.71
				l0.01-1.36c0,0.98-1.3,1.96-3.9,2.71c-5.22,1.51-13.71,1.51-18.97,0c-2.64-0.76-3.96-1.76-3.96-2.75L792.61,700.73z"/>
		</defs>
		<clipPath id="SVGID_6_">
			<use xlink:href="#SVGID_5_"  style="overflow:visible;"/>
		</clipPath>
		<path class="st9" d="M819.44,699.41l-0.01,1.36c-0.01,0.98-1.3,1.96-3.9,2.71c-5.22,1.51-13.71,1.51-18.96,0
			c-2.64-0.76-3.96-1.75-3.96-2.75l0.01-1.36c-0.01,0.99,1.32,1.99,3.96,2.75c5.26,1.51,13.75,1.51,18.97,0
			C818.14,701.37,819.44,700.39,819.44,699.41"/>
	</g>
</g>
<g>
	<path class="st2" d="M859.49,696.66c5.26,1.51,5.28,3.96,0.06,5.46c-5.22,1.51-13.71,1.51-18.97,0c-5.25-1.51-5.28-3.95-0.06-5.46
		C845.74,695.15,854.23,695.15,859.49,696.66"/>
	<path class="st3" d="M850.08,702.35c-3.32,0-6.44-0.36-8.75-1.03c-2.07-0.59-3.21-1.34-3.21-2.1c0-0.75,1.12-1.49,3.15-2.08
		c2.3-0.67,5.4-1.03,8.73-1.03c3.32,0,6.43,0.37,8.75,1.03c2.07,0.59,3.21,1.34,3.21,2.1c0,0.75-1.12,1.49-3.15,2.08
		C856.5,701.99,853.4,702.35,850.08,702.35"/>
	<path class="st4" d="M841.77,698.1c2.3-0.67,5.4-1.03,8.72-1.03c3.32,0,6.43,0.37,8.75,1.03c1.27,0.37,2.19,0.79,2.71,1.23
		c0-0.03,0.01-0.06,0.01-0.09c0-0.76-1.14-1.51-3.21-2.1c-2.32-0.67-5.43-1.03-8.75-1.03c-3.33,0-6.43,0.37-8.73,1.03
		c-2.03,0.59-3.15,1.33-3.15,2.08c0,0.29,0.18,0.59,0.5,0.87C838.7,699.37,839.81,698.67,841.77,698.1"/>
	<path class="st5" d="M850.02,699.36c-0.91,0-2.46-0.74-2.46-1.65l0.81-24.72c0-0.91,0.74-1.65,1.65-1.65
		c0.91,0,1.64,0.74,1.64,1.65l0.82,24.72C852.48,698.62,850.92,699.36,850.02,699.36"/>
	<path class="st6" d="M852.26,691.05l-0.6-18.06c0-0.91-0.74-1.65-1.64-1.65c-0.91,0-1.65,0.74-1.65,1.65l-0.63,19.19
		C849.04,691.42,850.67,691.06,852.26,691.05"/>
	<path class="st3" d="M841.07,679.42c0-4.94,4-22.94,8.94-22.94c4.94,0,8.94,18.01,8.94,22.94c0,4.94-4,8.94-8.94,8.94
		C845.08,688.36,841.07,684.35,841.07,679.42"/>
	<path class="st3" d="M850.02,685.87c-3.1,0-5.91-0.93-8-2.45c1.47,2.93,4.5,4.94,8,4.94c3.5,0,6.53-2.01,8-4.94
		C855.93,684.93,853.11,685.87,850.02,685.87"/>
	<g>
		<defs>
			<path id="SVGID_7_" d="M836.61,700.73c0,1,1.32,1.99,3.96,2.75c5.26,1.51,13.75,1.51,18.97,0c2.59-0.75,3.89-1.73,3.9-2.71
				l0.01-1.36c0,0.98-1.3,1.96-3.9,2.71c-5.22,1.51-13.71,1.51-18.97,0c-2.64-0.76-3.96-1.76-3.96-2.75L836.61,700.73z"/>
		</defs>
		<clipPath id="SVGID_8_">
			<use xlink:href="#SVGID_7_"  style="overflow:visible;"/>
		</clipPath>
		<path class="st10" d="M863.44,699.41l-0.01,1.36c-0.01,0.98-1.3,1.96-3.9,2.71c-5.22,1.51-13.71,1.51-18.96,0
			c-2.64-0.76-3.96-1.75-3.96-2.75l0.01-1.36c-0.01,0.99,1.32,1.99,3.96,2.75c5.26,1.51,13.75,1.51,18.97,0
			C862.14,701.37,863.44,700.39,863.44,699.41"/>
	</g>
</g>
<g>
	<path class="st2" d="M903.49,696.66c5.26,1.51,5.28,3.96,0.06,5.46c-5.22,1.51-13.71,1.51-18.97,0c-5.25-1.51-5.28-3.95-0.06-5.46
		C889.74,695.15,898.23,695.15,903.49,696.66"/>
	<path class="st3" d="M894.08,702.35c-3.32,0-6.44-0.36-8.75-1.03c-2.07-0.59-3.21-1.34-3.21-2.1c0-0.75,1.12-1.49,3.15-2.08
		c2.3-0.67,5.4-1.03,8.73-1.03c3.32,0,6.43,0.37,8.75,1.03c2.07,0.59,3.21,1.34,3.21,2.1c0,0.75-1.12,1.49-3.15,2.08
		C900.5,701.99,897.4,702.35,894.08,702.35"/>
	<path class="st4" d="M885.77,698.1c2.3-0.67,5.4-1.03,8.72-1.03c3.32,0,6.43,0.37,8.75,1.03c1.27,0.37,2.19,0.79,2.71,1.23
		c0-0.03,0.01-0.06,0.01-0.09c0-0.76-1.14-1.51-3.21-2.1c-2.32-0.67-5.43-1.03-8.75-1.03c-3.33,0-6.43,0.37-8.73,1.03
		c-2.03,0.59-3.15,1.33-3.15,2.08c0,0.29,0.18,0.59,0.5,0.87C882.7,699.37,883.81,698.67,885.77,698.1"/>
	<path class="st5" d="M894.02,699.36c-0.91,0-2.46-0.74-2.46-1.65l0.81-24.72c0-0.91,0.74-1.65,1.65-1.65
		c0.91,0,1.64,0.74,1.64,1.65l0.82,24.72C896.48,698.62,894.92,699.36,894.02,699.36"/>
	<path class="st6" d="M896.26,691.05l-0.6-18.06c0-0.91-0.74-1.65-1.64-1.65c-0.91,0-1.65,0.74-1.65,1.65l-0.63,19.19
		C893.04,691.42,894.67,691.06,896.26,691.05"/>
	<path class="st3" d="M885.07,679.42c0-4.94,4-22.94,8.94-22.94c4.94,0,8.94,18.01,8.94,22.94c0,4.94-4,8.94-8.94,8.94
		C889.08,688.36,885.07,684.35,885.07,679.42"/>
	<path class="st3" d="M894.02,685.87c-3.1,0-5.91-0.93-8-2.45c1.47,2.93,4.5,4.94,8,4.94c3.5,0,6.53-2.01,8-4.94
		C899.93,684.93,897.11,685.87,894.02,685.87"/>
	<g>
		<defs>
			<path id="SVGID_9_" d="M880.61,700.73c0,1,1.32,1.99,3.96,2.75c5.26,1.51,13.75,1.51,18.97,0c2.59-0.75,3.89-1.73,3.9-2.71
				l0.01-1.36c0,0.98-1.3,1.96-3.9,2.71c-5.22,1.51-13.71,1.51-18.97,0c-2.64-0.76-3.96-1.76-3.96-2.75L880.61,700.73z"/>
		</defs>
		<clipPath id="SVGID_10_">
			<use xlink:href="#SVGID_9_"  style="overflow:visible;"/>
		</clipPath>
		<path class="st11" d="M907.44,699.41l-0.01,1.36c-0.01,0.98-1.3,1.96-3.9,2.71c-5.22,1.51-13.71,1.51-18.96,0
			c-2.64-0.76-3.96-1.75-3.96-2.75l0.01-1.36c-0.01,0.99,1.32,1.99,3.96,2.75c5.26,1.51,13.75,1.51,18.97,0
			C906.14,701.37,907.44,700.39,907.44,699.41"/>
	</g>
</g>
<g>
	<path class="st2" d="M947.49,696.66c5.26,1.51,5.28,3.96,0.06,5.46c-5.22,1.51-13.71,1.51-18.97,0c-5.25-1.51-5.28-3.95-0.06-5.46
		C933.74,695.15,942.23,695.15,947.49,696.66"/>
	<path class="st3" d="M938.08,702.35c-3.32,0-6.44-0.36-8.75-1.03c-2.07-0.59-3.21-1.34-3.21-2.1c0-0.75,1.12-1.49,3.15-2.08
		c2.3-0.67,5.4-1.03,8.73-1.03c3.32,0,6.43,0.37,8.75,1.03c2.07,0.59,3.21,1.34,3.21,2.1c0,0.75-1.12,1.49-3.15,2.08
		C944.5,701.99,941.4,702.35,938.08,702.35"/>
	<path class="st4" d="M929.77,698.1c2.3-0.67,5.4-1.03,8.72-1.03c3.32,0,6.43,0.37,8.75,1.03c1.27,0.37,2.19,0.79,2.71,1.23
		c0-0.03,0.01-0.06,0.01-0.09c0-0.76-1.14-1.51-3.21-2.1c-2.32-0.67-5.43-1.03-8.75-1.03c-3.33,0-6.43,0.37-8.73,1.03
		c-2.03,0.59-3.15,1.33-3.15,2.08c0,0.29,0.18,0.59,0.5,0.87C926.7,699.37,927.81,698.67,929.77,698.1"/>
	<path class="st5" d="M938.02,699.36c-0.91,0-2.46-0.74-2.46-1.65l0.81-24.72c0-0.91,0.74-1.65,1.65-1.65
		c0.91,0,1.64,0.74,1.64,1.65l0.82,24.72C940.48,698.62,938.92,699.36,938.02,699.36"/>
	<path class="st6" d="M940.26,691.05l-0.6-18.06c0-0.91-0.74-1.65-1.64-1.65c-0.91,0-1.65,0.74-1.65,1.65l-0.63,19.19
		C937.04,691.42,938.67,691.06,940.26,691.05"/>
	<path class="st3" d="M929.07,679.42c0-4.94,4-22.94,8.94-22.94c4.94,0,8.94,18.01,8.94,22.94c0,4.94-4,8.94-8.94,8.94
		C933.08,688.36,929.07,684.35,929.07,679.42"/>
	<path class="st3" d="M938.02,685.87c-3.1,0-5.91-0.93-8-2.45c1.47,2.93,4.5,4.94,8,4.94c3.5,0,6.53-2.01,8-4.94
		C943.93,684.93,941.11,685.87,938.02,685.87"/>
	<g>
		<defs>
			<path id="SVGID_11_" d="M924.61,700.73c0,1,1.32,1.99,3.96,2.75c5.26,1.51,13.75,1.51,18.97,0c2.59-0.75,3.89-1.73,3.9-2.71
				l0.01-1.36c0,0.98-1.3,1.96-3.9,2.71c-5.22,1.51-13.71,1.51-18.97,0c-2.64-0.76-3.96-1.76-3.96-2.75L924.61,700.73z"/>
		</defs>
		<clipPath id="SVGID_12_">
			<use xlink:href="#SVGID_11_"  style="overflow:visible;"/>
		</clipPath>
		<path class="st12" d="M951.44,699.41l-0.01,1.36c-0.01,0.98-1.3,1.96-3.9,2.71c-5.22,1.51-13.71,1.51-18.96,0
			c-2.64-0.76-3.96-1.75-3.96-2.75l0.01-1.36c-0.01,0.99,1.32,1.99,3.96,2.75c5.26,1.51,13.75,1.51,18.97,0
			C950.14,701.37,951.44,700.39,951.44,699.41"/>
	</g>
</g>
<g>
	<path class="st2" d="M991.49,696.66c5.26,1.51,5.28,3.96,0.06,5.46c-5.22,1.51-13.71,1.51-18.97,0c-5.25-1.51-5.28-3.95-0.06-5.46
		C977.74,695.15,986.23,695.15,991.49,696.66"/>
	<path class="st3" d="M982.08,702.35c-3.32,0-6.44-0.36-8.75-1.03c-2.07-0.59-3.21-1.34-3.21-2.1c0-0.75,1.12-1.49,3.15-2.08
		c2.3-0.67,5.4-1.03,8.73-1.03c3.32,0,6.43,0.37,8.75,1.03c2.07,0.59,3.21,1.34,3.21,2.1c0,0.75-1.12,1.49-3.15,2.08
		C988.5,701.99,985.4,702.35,982.08,702.35"/>
	<path class="st4" d="M973.77,698.1c2.3-0.67,5.4-1.03,8.72-1.03c3.32,0,6.43,0.37,8.75,1.03c1.27,0.37,2.19,0.79,2.71,1.23
		c0-0.03,0.01-0.06,0.01-0.09c0-0.76-1.14-1.51-3.21-2.1c-2.32-0.67-5.43-1.03-8.75-1.03c-3.33,0-6.43,0.37-8.73,1.03
		c-2.03,0.59-3.15,1.33-3.15,2.08c0,0.29,0.18,0.59,0.5,0.87C970.7,699.37,971.81,698.67,973.77,698.1"/>
	<path class="st5" d="M982.02,699.36c-0.91,0-2.46-0.74-2.46-1.65l0.81-24.72c0-0.91,0.74-1.65,1.65-1.65
		c0.91,0,1.64,0.74,1.64,1.65l0.82,24.72C984.48,698.62,982.92,699.36,982.02,699.36"/>
	<path class="st6" d="M984.26,691.05l-0.6-18.06c0-0.91-0.74-1.65-1.64-1.65c-0.91,0-1.65,0.74-1.65,1.65l-0.63,19.19
		C981.04,691.42,982.67,691.06,984.26,691.05"/>
	<path class="st3" d="M973.07,679.42c0-4.94,4-22.94,8.94-22.94c4.94,0,8.94,18.01,8.94,22.94c0,4.94-4,8.94-8.94,8.94
		C977.08,688.36,973.07,684.35,973.07,679.42"/>
	<path class="st3" d="M982.02,685.87c-3.1,0-5.91-0.93-8-2.45c1.47,2.93,4.5,4.94,8,4.94c3.5,0,6.53-2.01,8-4.94
		C987.93,684.93,985.11,685.87,982.02,685.87"/>
	<g>
		<defs>
			<path id="SVGID_13_" d="M968.61,700.73c0,1,1.32,1.99,3.96,2.75c5.26,1.51,13.75,1.51,18.97,0c2.59-0.75,3.89-1.73,3.9-2.71
				l0.01-1.36c0,0.98-1.3,1.96-3.9,2.71c-5.22,1.51-13.71,1.51-18.97,0c-2.64-0.76-3.96-1.76-3.96-2.75L968.61,700.73z"/>
		</defs>
		<clipPath id="SVGID_14_">
			<use xlink:href="#SVGID_13_"  style="overflow:visible;"/>
		</clipPath>
		<path class="st13" d="M995.44,699.41l-0.01,1.36c-0.01,0.98-1.3,1.96-3.9,2.71c-5.22,1.51-13.71,1.51-18.96,0
			c-2.64-0.76-3.96-1.75-3.96-2.75l0.01-1.36c-0.01,0.99,1.32,1.99,3.96,2.75c5.26,1.51,13.75,1.51,18.97,0
			C994.14,701.37,995.44,700.39,995.44,699.41"/>
	</g>
</g>
<g>
	<path class="st2" d="M1035.49,696.66c5.26,1.51,5.28,3.96,0.06,5.46c-5.22,1.51-13.71,1.51-18.97,0c-5.25-1.51-5.28-3.95-0.06-5.46
		C1021.74,695.15,1030.23,695.15,1035.49,696.66"/>
	<path class="st3" d="M1026.08,702.35c-3.32,0-6.44-0.36-8.75-1.03c-2.07-0.59-3.21-1.34-3.21-2.1c0-0.75,1.12-1.49,3.15-2.08
		c2.3-0.67,5.4-1.03,8.73-1.03c3.32,0,6.43,0.37,8.75,1.03c2.07,0.59,3.21,1.34,3.21,2.1c0,0.75-1.12,1.49-3.15,2.08
		C1032.5,701.99,1029.4,702.35,1026.08,702.35"/>
	<path class="st4" d="M1017.77,698.1c2.3-0.67,5.4-1.03,8.72-1.03c3.32,0,6.43,0.37,8.75,1.03c1.27,0.37,2.19,0.79,2.71,1.23
		c0-0.03,0.01-0.06,0.01-0.09c0-0.76-1.14-1.51-3.21-2.1c-2.32-0.67-5.43-1.03-8.75-1.03c-3.33,0-6.43,0.37-8.73,1.03
		c-2.03,0.59-3.15,1.33-3.15,2.08c0,0.29,0.18,0.59,0.5,0.87C1014.7,699.37,1015.81,698.67,1017.77,698.1"/>
	<path class="st5" d="M1026.02,699.36c-0.91,0-2.46-0.74-2.46-1.65l0.81-24.72c0-0.91,0.74-1.65,1.65-1.65
		c0.91,0,1.64,0.74,1.64,1.65l0.82,24.72C1028.48,698.62,1026.92,699.36,1026.02,699.36"/>
	<path class="st6" d="M1028.26,691.05l-0.6-18.06c0-0.91-0.74-1.65-1.64-1.65c-0.91,0-1.65,0.74-1.65,1.65l-0.63,19.19
		C1025.04,691.42,1026.67,691.06,1028.26,691.05"/>
	<path class="st3" d="M1017.07,679.42c0-4.94,4-22.94,8.94-22.94c4.94,0,8.94,18.01,8.94,22.94c0,4.94-4,8.94-8.94,8.94
		C1021.08,688.36,1017.07,684.35,1017.07,679.42"/>
	<path class="st3" d="M1026.02,685.87c-3.1,0-5.91-0.93-8-2.45c1.47,2.93,4.5,4.94,8,4.94c3.5,0,6.53-2.01,8-4.94
		C1031.93,684.93,1029.11,685.87,1026.02,685.87"/>
	<g>
		<defs>
			<path id="SVGID_15_" d="M1012.61,700.73c0,1,1.32,1.99,3.96,2.75c5.26,1.51,13.75,1.51,18.97,0c2.59-0.75,3.89-1.73,3.9-2.71
				l0.01-1.36c0,0.98-1.3,1.96-3.9,2.71c-5.22,1.51-13.71,1.51-18.97,0c-2.64-0.76-3.96-1.76-3.96-2.75L1012.61,700.73z"/>
		</defs>
		<clipPath id="SVGID_16_">
			<use xlink:href="#SVGID_15_"  style="overflow:visible;"/>
		</clipPath>
		<path class="st14" d="M1039.44,699.41l-0.01,1.36c-0.01,0.98-1.3,1.96-3.9,2.71c-5.22,1.51-13.71,1.51-18.96,0
			c-2.64-0.76-3.96-1.75-3.96-2.75l0.01-1.36c-0.01,0.99,1.32,1.99,3.96,2.75c5.26,1.51,13.75,1.51,18.97,0
			C1038.14,701.37,1039.44,700.39,1039.44,699.41"/>
	</g>
</g>
<g>
	<path class="st2" d="M1079.49,696.66c5.26,1.51,5.28,3.96,0.06,5.46c-5.22,1.51-13.71,1.51-18.97,0c-5.25-1.51-5.28-3.95-0.06-5.46
		C1065.74,695.15,1074.23,695.15,1079.49,696.66"/>
	<path class="st3" d="M1070.08,702.35c-3.32,0-6.44-0.36-8.75-1.03c-2.07-0.59-3.21-1.34-3.21-2.1c0-0.75,1.12-1.49,3.15-2.08
		c2.3-0.67,5.4-1.03,8.73-1.03c3.32,0,6.43,0.37,8.75,1.03c2.07,0.59,3.21,1.34,3.21,2.1c0,0.75-1.12,1.49-3.15,2.08
		C1076.5,701.99,1073.4,702.35,1070.08,702.35"/>
	<path class="st4" d="M1061.77,698.1c2.3-0.67,5.4-1.03,8.72-1.03c3.32,0,6.43,0.37,8.75,1.03c1.27,0.37,2.19,0.79,2.71,1.23
		c0-0.03,0.01-0.06,0.01-0.09c0-0.76-1.14-1.51-3.21-2.1c-2.32-0.67-5.43-1.03-8.75-1.03c-3.33,0-6.43,0.37-8.73,1.03
		c-2.03,0.59-3.15,1.33-3.15,2.08c0,0.29,0.18,0.59,0.5,0.87C1058.7,699.37,1059.81,698.67,1061.77,698.1"/>
	<path class="st5" d="M1070.02,699.36c-0.91,0-2.46-0.74-2.46-1.65l0.81-24.72c0-0.91,0.74-1.65,1.65-1.65
		c0.91,0,1.64,0.74,1.64,1.65l0.82,24.72C1072.48,698.62,1070.92,699.36,1070.02,699.36"/>
	<path class="st6" d="M1072.26,691.05l-0.6-18.06c0-0.91-0.74-1.65-1.64-1.65c-0.91,0-1.65,0.74-1.65,1.65l-0.63,19.19
		C1069.04,691.42,1070.67,691.06,1072.26,691.05"/>
	<path class="st3" d="M1061.07,679.42c0-4.94,4-22.94,8.94-22.94c4.94,0,8.94,18.01,8.94,22.94c0,4.94-4,8.94-8.94,8.94
		C1065.08,688.36,1061.07,684.35,1061.07,679.42"/>
	<path class="st3" d="M1070.02,685.87c-3.1,0-5.91-0.93-8-2.45c1.47,2.93,4.5,4.94,8,4.94c3.5,0,6.53-2.01,8-4.94
		C1075.93,684.93,1073.11,685.87,1070.02,685.87"/>
	<g>
		<defs>
			<path id="SVGID_17_" d="M1056.61,700.73c0,1,1.32,1.99,3.96,2.75c5.26,1.51,13.75,1.51,18.97,0c2.59-0.75,3.89-1.73,3.9-2.71
				l0.01-1.36c0,0.98-1.3,1.96-3.9,2.71c-5.22,1.51-13.71,1.51-18.97,0c-2.64-0.76-3.96-1.76-3.96-2.75L1056.61,700.73z"/>
		</defs>
		<clipPath id="SVGID_18_">
			<use xlink:href="#SVGID_17_"  style="overflow:visible;"/>
		</clipPath>
		<path class="st15" d="M1083.44,699.41l-0.01,1.36c-0.01,0.98-1.3,1.96-3.9,2.71c-5.22,1.51-13.71,1.51-18.96,0
			c-2.64-0.76-3.96-1.75-3.96-2.75l0.01-1.36c-0.01,0.99,1.32,1.99,3.96,2.75c5.26,1.51,13.75,1.51,18.97,0
			C1082.14,701.37,1083.44,700.39,1083.44,699.41"/>
	</g>
</g>
<polygon class="st3" points="427.33,698.6 425.72,698.58 425.79,691.46 425.7,691.46 146.24,698.14 146.24,714.06 426.26,714.6 
	608.9,709.22 610.14,694.64 427.4,691.49 "/>
<g>
	<g>
		<path class="st16" d="M146.24,606.96v89.57l279.46-6.68l0.1,0l1.18-126.36L146.24,606.96z M406.62,577.57l5.51-0.79v12.77
			l-5.51,0.71V577.57z M406.62,591.89l5.51-0.71V609l-5.51,0.61V591.89z M406.62,613.5l5.51-0.61v13.79l-5.51,0.49V613.5z
			 M406.62,628.79l5.51-0.49v16.76l-5.51,0.4V628.79z M388.13,580.21l5.25-0.75v12.5l-5.25,0.67V580.21z M388.13,594.26l5.25-0.67
			v17.49l-5.25,0.58V594.26z M388.13,615.54l5.25-0.58v13.4l-5.25,0.47V615.54z M388.13,630.45l5.25-0.47v16.44l-5.25,0.38V630.45z
			 M368.97,582.95l5.49-0.78v12.22l-5.49,0.71V582.95z M368.97,596.72l5.49-0.71v17.15l-5.49,0.61V596.72z M368.97,617.65l5.49-0.61
			v13.01l-5.49,0.49V617.65z M368.97,632.16l5.49-0.49v16.11l-5.49,0.4V632.16z M350.18,585.63l5.54-0.79v11.95l-5.54,0.71V585.63z
			 M350.18,599.13l5.54-0.71v16.82l-5.54,0.61V599.13z M350.18,619.72l5.54-0.61v12.62l-5.54,0.5V619.72z M350.18,633.85l5.54-0.5
			v15.79l-5.54,0.4V633.85z M331.36,588.32l5.49-0.79v11.68l-5.49,0.7V588.32z M331.36,601.55l5.49-0.7v16.49l-5.49,0.61V601.55z
			 M331.36,621.8l5.49-0.6v12.23l-5.49,0.49V621.8z M331.36,635.53l5.49-0.49v15.47l-5.49,0.4V635.53z M312.37,591.04l5.82-0.83
			v11.41l-5.82,0.75V591.04z M312.37,603.99l5.82-0.75v16.17l-5.82,0.65V603.99z M312.37,623.89l5.82-0.64v11.84l-5.82,0.52V623.89z
			 M312.37,637.24l5.82-0.52v15.14l-5.82,0.42V637.24z M294.09,593.65l5.29-0.76v11.13l-5.29,0.68V593.65z M294.09,606.33l5.29-0.68
			v15.84l-5.29,0.58V606.33z M294.09,625.91l5.29-0.58v11.45l-5.29,0.47V625.91z M294.09,638.87l5.29-0.47v14.82l-5.29,0.38V638.87z
			 M276.86,596.11l4.71-0.67v10.88l-4.71,0.6V596.11z M276.86,608.54l4.71-0.61v15.52l-4.71,0.52V608.54z M276.86,627.81l4.71-0.52
			v11.08l-4.71,0.42V627.81z M276.86,640.42l4.71-0.42v14.52l-4.71,0.34V640.42z M260.64,598.42l4.38-0.63v10.64l-4.38,0.56V598.42z
			 M260.64,610.62l4.38-0.56v15.23l-4.38,0.49V610.62z M260.64,629.6l4.38-0.48v10.74l-4.38,0.39V629.6z M260.64,641.87l4.38-0.39
			v14.23l-4.38,0.32V641.87z M245.49,600.59l3.9-0.56v10.41l-3.9,0.5V600.59z M245.49,612.57l3.9-0.5v14.96l-3.9,0.43V612.57z
			 M245.49,631.27l3.9-0.43v10.41l-3.9,0.35V631.27z M245.49,643.23l3.9-0.35v13.96l-3.9,0.28V643.23z M230.48,602.73l3.83-0.55
			v10.19l-3.83,0.49V602.73z M230.48,614.5l3.83-0.49v14.69l-3.83,0.42V614.5z M230.48,632.93l3.83-0.42v10.1l-3.83,0.34V632.93z
			 M230.48,644.57l3.83-0.34v13.7l-3.83,0.28V644.57z M216.22,604.77l3.3-0.47v9.98l-3.3,0.42V604.77z M216.22,616.33l3.3-0.42
			v14.43l-3.3,0.37V616.33z M216.22,634.5l3.3-0.36v9.8l-3.3,0.3V634.5z M216.22,645.85l3.3-0.3V659l-3.3,0.24V645.85z
			 M202.63,606.71l3.04-0.43v9.78l-3.04,0.39V606.71z M202.63,618.07l3.04-0.39v14.19l-3.04,0.33V618.07z M202.63,636l3.04-0.34
			v9.51l-3.04,0.27V636z M202.63,647.07l3.04-0.27V660l-3.04,0.22V647.07z M188.78,608.69l3.31-0.47v9.58l-3.31,0.43V608.69z
			 M188.78,619.85l3.31-0.43v13.95l-3.31,0.37V619.85z M188.78,637.53l3.31-0.37v9.23l-3.31,0.3V637.53z M188.78,648.31l3.31-0.3
			v12.98l-3.31,0.24V648.31z M175.62,610.57l2.97-0.42v9.39l-2.97,0.38V610.57z M175.62,621.54l2.97-0.38v13.72l-2.97,0.33V621.54z
			 M175.62,638.98l2.97-0.33v8.95l-2.97,0.27V638.98z M175.62,649.49l2.97-0.27v12.74l-2.97,0.21V649.49z M162.55,612.43l2.89-0.41
			v9.19l-2.89,0.37V612.43z M162.55,623.21l2.89-0.37v13.49l-2.89,0.32V623.21z M162.55,640.42l2.89-0.32v8.67l-2.89,0.26V640.42z
			 M162.55,650.66l2.89-0.26v12.52l-2.89,0.21V650.66z M149.73,614.26l2.7-0.38v9l-2.7,0.35V614.26z M149.73,624.86l2.7-0.35v13.26
			l-2.7,0.3V624.86z M149.73,641.83l2.7-0.3v8.41l-2.7,0.24V641.83z M149.73,651.8l2.7-0.24v12.3l-2.7,0.2V651.8z M152.26,689.84
			l-2.53,0.08v-12.94l2.53-0.13V689.84z M152.26,675.24l-2.53,0.13v-7.98l2.53-0.17V675.24z M156.62,689.71l-2.75,0.08v-13.02
			l2.75-0.13V689.71z M156.62,675.02l-2.75,0.14v-8.05l2.75-0.19V675.02z M156.62,663.55l-2.58,0.19v-12.32l2.58-0.23V663.55z
			 M156.62,649.57l-2.58,0.23v-8.44l2.58-0.28V649.57z M156.62,637.3l-2.58,0.29V624.3l2.58-0.33V637.3z M156.62,622.35l-2.58,0.33
			v-9.03l1.64-0.23l0.94-0.13V622.35z M165.28,689.45l-2.72,0.08v-13.18l2.72-0.14V689.45z M165.28,674.59l-2.72,0.13v-8.21
			l2.72-0.18V674.59z M169.69,689.31l-2.8,0.09v-13.27l2.8-0.14V689.31z M169.69,674.37l-2.8,0.14v-8.28l2.8-0.19V674.37z
			 M169.69,662.61l-2.64,0.19v-12.55l2.64-0.23V662.61z M169.69,648.4l-2.64,0.24v-8.71l2.64-0.29V648.4z M169.69,635.86l-2.64,0.29
			v-13.51l2.64-0.34V635.86z M169.69,620.67l-2.64,0.34v-9.22l2.64-0.38V620.67z M178.49,689.04l-2.87,0.09V675.7l2.87-0.14V689.04z
			 M178.49,673.94l-2.87,0.14v-8.44l2.87-0.19V673.94z M182.85,688.9l-2.75,0.09v-13.51l2.75-0.14V688.9z M182.85,673.72l-2.75,0.14
			v-8.52l2.75-0.19V673.72z M182.85,661.66l-2.65,0.19v-12.77l2.65-0.24V661.66z M182.85,647.22l-2.65,0.24v-8.98l2.65-0.29V647.22z
			 M182.85,634.4l-2.65,0.29v-13.74l2.65-0.34V634.4z M182.85,618.98l-2.65,0.34v-9.41l2.65-0.38V618.98z M192.06,688.62l-3.28,0.1
			v-13.68l3.28-0.16V688.62z M192.06,673.26l-3.28,0.16v-8.68l3.28-0.22V673.26z M196.7,688.48l-3.03,0.09V674.8l3.03-0.15V688.48z
			 M196.7,673.03l-3.03,0.15v-8.76l3.03-0.21V673.03z M196.7,660.65l-2.99,0.22v-13.01l2.99-0.27V660.65z M196.7,645.98l-2.99,0.27
			v-9.26l2.99-0.33V645.98z M196.7,632.87l-2.99,0.33v-13.98l2.99-0.38V632.87z M196.7,617.2l-2.99,0.39v-9.61l2.99-0.43V617.2z
			 M205.5,672.6l-2.87,0.14v-8.92l2.87-0.19V672.6z M210.29,672.36l-3.18,0.16v-9.01l3.18-0.21V672.36z M210.29,659.67l-3.01,0.22
			v-13.24l3.01-0.27V659.67z M210.29,644.76l-3.01,0.27v-9.54l3.01-0.33V644.76z M210.29,631.36l-3.01,0.33v-14.22l3.01-0.39V631.36
			z M210.29,615.46l-3.01,0.39v-9.8l3.01-0.43V615.46z M219.62,671.9l-3.4,0.17v-9.17l3.4-0.23V671.9z M224.55,671.65l-3.32,0.16
			v-9.26l3.32-0.22V671.65z M224.55,658.64l-3.42,0.25v-13.48l3.42-0.31V658.64z M224.55,643.48l-3.42,0.31v-9.83l3.42-0.38V643.48z
			 M224.55,629.78l-3.42,0.38v-14.46l3.42-0.44V629.78z M224.55,613.63l-3.42,0.44v-10l3.42-0.49V613.63z M234.15,687.32l-3.67,0.11
			v-14.46l3.67-0.18V687.32z M234.15,671.18l-3.67,0.18v-9.42l3.67-0.25V671.18z M239.56,687.16l-3.8,0.12v-14.56l3.8-0.19V687.16z
			 M239.56,670.91l-3.8,0.19v-9.52l3.8-0.26V670.91z M239.56,657.55l-3.63,0.26v-13.73l3.63-0.32V657.55z M239.56,642.14l-3.63,0.33
			v-10.14l3.63-0.4V642.14z M239.56,628.12l-3.63,0.4v-14.72l3.63-0.46V628.12z M239.56,611.7l-3.63,0.47v-10.22l3.63-0.52V611.7z
			 M249.28,686.86l-3.79,0.12v-14.75l3.79-0.19V686.86z M249.28,670.42l-3.79,0.19v-9.69l3.79-0.26V670.42z M254.72,686.69
			l-3.82,0.12v-14.85l3.82-0.19V686.69z M254.72,670.15l-3.82,0.19v-9.79l3.82-0.26V670.15z M254.72,656.45l-3.71,0.27v-13.99
			l3.71-0.33V656.45z M254.72,640.78l-3.71,0.33v-10.45l3.71-0.41V640.78z M254.72,626.44l-3.71,0.41v-14.99l3.71-0.48V626.44z
			 M254.72,609.76l-3.71,0.48V599.8l3.71-0.53V609.76z M265.01,686.37l-4.37,0.13v-15.03l4.37-0.22V686.37z M265.01,669.64
			l-4.37,0.22v-9.96l4.37-0.3V669.64z M270.93,686.19l-4.31,0.13v-15.14l4.31-0.21V686.19z M270.93,669.35l-4.31,0.22v-10.07
			l4.31-0.29V669.35z M270.93,655.28l-4.29,0.31v-14.26l4.29-0.38V655.28z M270.93,639.33l-4.29,0.38v-10.77l4.29-0.47V639.33z
			 M270.93,624.64l-4.29,0.47v-15.26l4.29-0.55V624.64z M270.93,607.67l-4.29,0.55v-10.66l4.29-0.61V607.67z M281.76,685.86
			l-4.9,0.15v-15.34l4.9-0.24V685.86z M281.76,668.81l-4.9,0.24V658.8l4.9-0.33V668.81z M288.16,685.66l-4.79,0.15v-15.46l4.79-0.24
			V685.66z M288.16,668.49l-4.79,0.24v-10.37l4.79-0.32V668.49z M288.16,654.03l-4.97,0.36v-14.54l4.97-0.45V654.03z M288.16,637.78
			l-4.97,0.45v-11.12l4.97-0.55V637.78z M288.16,622.73l-4.97,0.55v-15.55l4.97-0.64V622.73z M288.16,605.46l-4.97,0.64v-10.9
			l4.97-0.71V605.46z M299.31,685.32l-5.22,0.16v-15.66l5.22-0.26V685.32z M299.31,667.94l-5.22,0.26v-10.56l5.22-0.35V667.94z
			 M306.44,685.1l-5.52,0.17v-15.79l5.52-0.27V685.1z M306.44,667.59l-5.52,0.27v-10.69l5.52-0.37V667.59z M306.44,652.71l-5.45,0.4
			v-14.85l5.45-0.49V652.71z M306.44,636.15l-5.45,0.49v-11.48l5.45-0.6V636.15z M306.44,620.71l-5.45,0.6v-15.86l5.45-0.7V620.71z
			 M306.44,603.12l-5.45,0.7v-11.16l5.45-0.78V603.12z M318.27,684.73l-5.9,0.18v-16.01l5.9-0.29V684.73z M318.27,667l-5.9,0.29
			V656.4l5.9-0.4V667z M325.43,684.51l-5.54,0.17v-16.15l5.54-0.28V684.51z M325.43,666.64l-5.54,0.27V655.9l5.54-0.37V666.64z
			 M325.43,651.33l-5.63,0.41v-15.17l5.63-0.5V651.33z M325.43,634.45l-5.63,0.5v-11.88l5.63-0.62V634.45z M325.43,618.6l-5.63,0.62
			v-16.2l5.63-0.72V618.6z M325.43,600.68l-5.63,0.72v-11.43l5.63-0.8V600.68z M337.04,684.16l-5.68,0.17v-16.37l5.68-0.28V684.16z
			 M337.04,666.07l-5.68,0.28v-11.23l5.68-0.38V666.07z M344.25,683.93l-5.6,0.17v-16.5l5.6-0.28V683.93z M344.25,665.71l-5.6,0.28
			v-11.36l5.6-0.38V665.71z M344.25,649.97l-5.78,0.42V634.9l5.78-0.52V649.97z M344.25,632.76l-5.78,0.52v-12.26l5.78-0.64V632.76z
			 M344.25,616.52l-5.78,0.64v-16.52l5.78-0.74V616.52z M344.25,598.27l-5.78,0.74v-11.7l5.78-0.83V598.27z M355.9,665.13
			l-5.72,0.29v-11.57l5.72-0.39V665.13z M363.04,664.78l-5.53,0.27v-11.7l5.53-0.38V664.78z M363.04,648.61l-5.71,0.41v-15.82
			l5.71-0.51V648.61z M363.04,631.08l-5.71,0.51v-12.65l5.71-0.63V631.08z M363.04,614.44l-5.71,0.63v-16.85l5.71-0.73V614.44z
			 M363.04,595.86l-5.71,0.73v-11.98l5.71-0.82V595.86z M374.55,664.21l-5.58,0.28v-11.9l5.58-0.38V664.21z M382.2,663.83l-6.04,0.3
			V652.1l6.04-0.41V663.83z M382.2,647.22l-6.12,0.44v-16.14l6.12-0.55V647.22z M382.2,629.36l-6.12,0.55v-13.04l6.12-0.68V629.36z
			 M382.2,612.31l-6.12,0.68v-17.18l6.12-0.79V612.31z M382.2,593.4l-6.12,0.79v-12.25l6.12-0.87V593.4z M393.61,682.41l-5.48,0.17
			v-17.44l5.48-0.27V682.41z M393.61,663.26l-5.48,0.27v-12.24l5.48-0.37V663.26z M400.69,682.2l-5.47,0.17v-17.57l5.47-0.27V682.2z
			 M400.69,662.91l-5.47,0.27v-12.37l5.47-0.37V662.91z M400.69,645.89l-5.7,0.41v-16.47l5.7-0.51V645.89z M400.69,627.7l-5.7,0.51
			v-13.43l5.7-0.63V627.7z M400.69,610.27l-5.7,0.63v-17.52l5.7-0.73V610.27z M400.69,591.02l-5.7,0.73v-12.52l5.7-0.82V591.02z
			 M412.37,681.84l-5.75,0.18v-17.79l5.75-0.29V681.84z M412.37,662.33l-5.75,0.29v-12.58l5.75-0.39V662.33z M419.67,681.61
			l-5.68,0.18v-17.92l5.68-0.28V681.61z M419.67,661.97l-5.68,0.28v-12.71l5.68-0.38V661.97z M419.67,644.51l-5.92,0.43v-16.79
			l5.92-0.53V644.51z M419.67,626l-5.92,0.53v-13.82l5.92-0.65V626z M419.67,608.16l-5.92,0.66v-17.84l5.92-0.76V608.16z
			 M419.67,588.59l-5.92,0.76v-12.79l5.92-0.85V588.59z M475.2,683.21 M519.08,684.55"/>
		<g>
			<path class="st17" d="M433,487.5l-0.74,0.19l-53.35,13.6l-2.04,15.3l56.6-10.58C433.87,499.32,433.82,492.92,433,487.5z"/>
			<path class="st17" d="M376.91,518.22l-0.15-0.79l-187.76,39.81c-25.82,31.29-43.09,39.26-50.6,41.28l287.54-46.07
				c1.95-8.13,6.17-27.21,7.41-44.78L376.91,518.22z"/>
			<path class="st3" d="M520.17,566.44c-30.32-5.38-64.27-50.29-70.11-58.44l-14.24-0.45c-1.22,17.62-5.42,36.76-7.41,45.11
				C441.68,554.75,551.53,572.01,520.17,566.44z"/>
			<path class="st3" d="M435.09,505.88l13.47,0.41l-13.79-17.74C435.42,493.73,435.45,499.68,435.09,505.88z"/>
		</g>
		<polygon class="st18" points="427.07,554.41 146.24,598.93 146.24,605.32 427,561.85 		"/>
		<g class="st19">
			<path class="st20" d="M623.29,545.99l-26.93,3.21l0.03,0.17l-32.36,4.85v17.08c34.38,4.01,51.33,5.43,51.33,5.43l4.3,5.78
				l-3.08,36.27C619.28,589.93,621.91,561.49,623.29,545.99z"/>
			<polygon class="st21" points="582.46,536.87 562.54,545.4 564.03,545.62 564.03,552.6 592.94,548.26 			"/>
		</g>
		<g class="st19">
			<path class="st21" d="M530.15,541.29l-0.19,25.79c1.81,0.29,3.66,0.56,5.51,0.79c9.91,1.24,18.89,2.32,26.94,3.26v-24.11
				L530.15,541.29z M533.79,546.55l25.45,4.11c0.44,0.07,0.74,0.48,0.67,0.92c-0.06,0.4-0.41,0.68-0.79,0.68
				c-0.04,0-0.08,0-0.13-0.01l-25.45-4.1c-0.44-0.07-0.74-0.49-0.67-0.93C532.94,546.78,533.35,546.47,533.79,546.55z
				 M533.79,551.68l25.45,4.11c0.44,0.07,0.74,0.48,0.67,0.92c-0.06,0.39-0.41,0.68-0.79,0.68c-0.04,0-0.08,0-0.13-0.01l-25.45-4.11
				c-0.44-0.07-0.74-0.48-0.67-0.92C532.94,551.91,533.35,551.59,533.79,551.68z M533.57,557.63l25.65,3.49
				c0.44,0.06,0.75,0.47,0.69,0.91c-0.05,0.41-0.4,0.7-0.8,0.7c-0.04,0-0.07,0-0.11-0.01l-25.65-3.49
				c-0.44-0.06-0.75-0.47-0.69-0.91C532.72,557.88,533.13,557.55,533.57,557.63z M559.11,567.45c-0.03,0-0.06,0-0.09,0l-25.65-2.88
				c-0.44-0.05-0.76-0.45-0.71-0.89c0.05-0.44,0.45-0.76,0.89-0.71l25.65,2.88c0.44,0.05,0.76,0.45,0.71,0.89
				C559.87,567.14,559.52,567.45,559.11,567.45z"/>
		</g>
		<g>
			<path class="st20" d="M528.54,540.96l-0.61-0.12l-40.52,7.32c1.28,1.02,2.64,2.04,4.02,3.05c0.12-0.17,0.31-0.3,0.54-0.33
				l33.01-4.8c0.43-0.05,0.85,0.24,0.91,0.68c0.07,0.44-0.24,0.85-0.68,0.91L493,552.37c1.36,0.97,2.78,1.92,4.22,2.86l27.87-4.06
				c0.43-0.06,0.85,0.24,0.91,0.68c0.07,0.44-0.24,0.85-0.68,0.92l-26.03,3.79c1.89,1.17,3.84,2.29,5.85,3.36l19.94-3.2
				c0.44-0.07,0.85,0.23,0.92,0.67c0.07,0.44-0.23,0.86-0.67,0.92l-17.78,2.86c1.65,0.82,3.33,1.61,5.05,2.34l12.49-1.82
				c0.43-0.05,0.85,0.24,0.91,0.68c0.07,0.44-0.24,0.85-0.68,0.92l-8.68,1.26c2.8,0.61,7.04,1.48,11.7,2.26L528.54,540.96z"/>
		</g>
		<polygon class="st20" points="615.36,576.74 616.44,552.39 605.14,553.2 604.87,564.5 592.56,566.45 593.03,553.74 582.88,555.35 
			582.88,573.41 		"/>
		<polygon class="st22" points="509.05,606.87 508.85,612.91 616.23,623.02 616.63,618.26 		"/>
		<path class="st23" d="M608.61,687.31v-14.92l3.41,0.17l0.14-1.61l-3.54-0.18v-9.86l3.83,0.26v6.46l1.31-15.4v-10l0.84,0.08
			l0.14-1.61l-0.98-0.09v-10.42l1.85,0.21l0.49-5.79l-108.88-10.25l0.9-39.75l-79.52-11.02l-0.04,4.3l5.21,0.56
			c0.44,0.05,0.76,0.45,0.72,0.89c-0.05,0.41-0.4,0.72-0.8,0.72c-0.03,0-0.06,0-0.09,0l-5.05-0.55l-0.03,2.67l5.25,0.57
			c0.44,0.05,0.76,0.45,0.72,0.89c-0.05,0.41-0.4,0.72-0.8,0.72c-0.03,0-0.06,0-0.09,0l-5.09-0.55l-0.03,2.67l5.29,0.57
			c0.44,0.05,0.76,0.45,0.72,0.89c-0.05,0.41-0.4,0.72-0.8,0.72c-0.03,0-0.06,0-0.09,0l-5.13-0.55l-0.03,2.67l5.33,0.58
			c0.44,0.05,0.76,0.45,0.72,0.89c-0.05,0.41-0.4,0.72-0.8,0.72c-0.03,0-0.06,0-0.09,0l-5.17-0.56l-0.03,2.67l5.37,0.58
			c0.44,0.05,0.76,0.45,0.72,0.89c-0.05,0.41-0.4,0.72-0.8,0.72c-0.03,0-0.06,0-0.09-0.01l-5.21-0.56l-0.03,2.68l5.41,0.58
			c0.44,0.05,0.76,0.45,0.72,0.89c-0.05,0.41-0.4,0.72-0.8,0.72c-0.03,0-0.06,0-0.09,0l-5.25-0.57l-0.02,2.67l5.45,0.59
			c0.44,0.05,0.76,0.45,0.72,0.89c-0.05,0.41-0.4,0.72-0.8,0.72c-0.03,0-0.06,0-0.09,0l-5.29-0.57l-0.03,2.67l5.49,0.59
			c0.44,0.05,0.76,0.45,0.72,0.89c-0.05,0.41-0.4,0.72-0.8,0.72c-0.03,0-0.06,0-0.09,0l-5.33-0.58l-0.03,2.67l5.53,0.6
			c0.44,0.05,0.76,0.45,0.72,0.89c-0.05,0.41-0.4,0.72-0.8,0.72c-0.03,0-0.06,0-0.09,0l-5.37-0.58l-0.03,2.67l5.57,0.6
			c0.44,0.05,0.76,0.45,0.72,0.89c-0.05,0.41-0.4,0.72-0.8,0.72c-0.03,0-0.06,0-0.09,0l-5.41-0.59l-0.02,2.67l5.61,0.61
			c0.44,0.05,0.76,0.45,0.72,0.89c-0.05,0.41-0.4,0.72-0.8,0.72c-0.03,0-0.06,0-0.09,0l-5.45-0.59l-0.02,2.67l5.65,0.61
			c0.44,0.05,0.76,0.45,0.72,0.89c-0.05,0.41-0.4,0.72-0.8,0.72c-0.03,0-0.06,0-0.09,0l-5.49-0.59l-0.02,2.68c0,0,0.01,0,0.01,0
			l5.68,0.61c0.44,0.05,0.76,0.45,0.72,0.89c-0.05,0.41-0.4,0.72-0.8,0.72c-0.03,0-0.06,0-0.09,0l-5.53-0.6l-0.03,2.68
			c0.02,0,0.03-0.01,0.05,0l5.68,0.62c0.44,0.05,0.76,0.45,0.72,0.89c-0.05,0.41-0.4,0.72-0.8,0.72c-0.03,0-0.06,0-0.09,0l-5.57-0.6
			l-0.03,2.69c0.03,0,0.06-0.01,0.09-0.01l5.68,0.61c0.44,0.05,0.76,0.45,0.72,0.89c-0.05,0.41-0.4,0.72-0.8,0.72
			c-0.03,0-0.06,0-0.09,0l-5.61-0.61l-0.03,2.7c0.04,0,0.08-0.02,0.13-0.01l5.68,0.61c0.44,0.05,0.76,0.45,0.72,0.89
			c-0.05,0.41-0.4,0.72-0.8,0.72c-0.03,0-0.06,0-0.09,0l-5.65-0.61l-0.03,2.71c0.06-0.01,0.11-0.02,0.17-0.01l5.68,0.61
			c0.44,0.05,0.76,0.45,0.72,0.89c-0.05,0.41-0.4,0.72-0.8,0.72c-0.03,0-0.06,0-0.09,0l-5.68-0.61c-0.01,0-0.01,0-0.01,0l-0.02,2.72
			c0.07-0.01,0.14-0.03,0.21-0.02l5.68,0.61c0.44,0.05,0.76,0.45,0.72,0.89c-0.05,0.41-0.4,0.72-0.8,0.72c-0.03,0-0.06,0-0.09,0
			l-5.68-0.62c-0.02,0-0.03-0.01-0.05-0.01l-0.02,2.73c0.08-0.02,0.16-0.03,0.25-0.02l5.68,0.62c0.44,0.05,0.76,0.45,0.72,0.89
			c-0.05,0.41-0.4,0.72-0.8,0.72c-0.03,0-0.06,0-0.09,0l-5.68-0.61c-0.03,0-0.06-0.02-0.09-0.03l-0.02,2.75
			c0.09-0.02,0.19-0.04,0.29-0.03l5.68,0.61c0.44,0.05,0.76,0.45,0.72,0.89c-0.05,0.41-0.4,0.72-0.8,0.72c-0.03,0-0.06,0-0.09,0
			l-5.68-0.62c-0.05,0-0.09-0.03-0.13-0.04l-0.03,2.77c0.1-0.03,0.22-0.05,0.33-0.04l5.68,0.62c0.44,0.05,0.76,0.45,0.72,0.89
			c-0.05,0.41-0.4,0.72-0.8,0.72c-0.03,0-0.06,0-0.09-0.01l-5.68-0.61c-0.06-0.01-0.12-0.03-0.17-0.06l-0.03,2.81
			c0.11-0.04,0.24-0.07,0.37-0.06l5.68,0.62c0.44,0.05,0.76,0.45,0.72,0.89c-0.05,0.41-0.4,0.72-0.8,0.72c-0.03,0-0.06,0-0.09,0
			l-5.68-0.62c-0.08-0.01-0.14-0.04-0.21-0.07l-0.03,2.84c0.13-0.06,0.26-0.09,0.41-0.08l5.68,0.61c0.44,0.05,0.76,0.45,0.72,0.89
			c-0.05,0.41-0.4,0.72-0.8,0.72c-0.03,0-0.06,0-0.09,0l-5.68-0.62c-0.09-0.01-0.17-0.04-0.25-0.08l-0.03,2.88
			c0.14-0.07,0.29-0.12,0.45-0.1l5.68,0.61c0.44,0.05,0.76,0.45,0.72,0.89c-0.05,0.41-0.4,0.72-0.8,0.72c-0.03,0-0.06,0-0.09,0
			l-5.68-0.61c-0.11-0.01-0.21-0.05-0.29-0.09l-0.03,2.91c0.14-0.09,0.31-0.14,0.5-0.12l5.68,0.62c0.44,0.05,0.76,0.45,0.72,0.89
			c-0.05,0.41-0.4,0.72-0.8,0.72c-0.03,0-0.06,0-0.09,0l-5.68-0.61c-0.12-0.01-0.23-0.06-0.33-0.12l-0.03,2.96
			c0.15-0.1,0.34-0.16,0.54-0.14l5.68,0.62c0.44,0.05,0.76,0.45,0.72,0.89c-0.05,0.41-0.4,0.72-0.8,0.72c-0.03,0-0.06,0-0.09,0
			l-5.68-0.62c-0.14-0.02-0.26-0.08-0.37-0.15l-0.03,3.01c0.16-0.12,0.36-0.19,0.57-0.16l5.68,0.61c0.44,0.05,0.76,0.45,0.72,0.89
			c-0.05,0.41-0.4,0.72-0.8,0.72c-0.03,0-0.06,0-0.09,0l-5.68-0.62c-0.16-0.02-0.3-0.09-0.41-0.19l-0.03,3.08
			c0.16-0.14,0.38-0.22,0.62-0.2l5.68,0.62c0.44,0.05,0.76,0.45,0.72,0.89c-0.05,0.41-0.4,0.72-0.8,0.72c-0.03,0-0.06,0-0.09,0
			l-5.68-0.61c-0.18-0.02-0.33-0.11-0.45-0.22l-0.04,4.55l182.86,3.16l0.48-5.65L608.61,687.31z M500.09,617.67l5.71,0.63v12.65
			l-5.71-0.51V617.67z M488.78,652.83l5.57,0.38v11.9l-5.57-0.28V652.83z M449.34,682.41l-5.68-0.17V664.2l5.68,0.28V682.41z
			 M449.34,662.87l-5.68-0.28v-12.81l5.68,0.38V662.87z M449.58,643.58l-5.92-0.43v-16.89l5.92,0.53V643.58z M449.58,625.17
			l-5.92-0.53V610.7l5.92,0.65V625.17z M449.58,607.46l-5.92-0.66v-17.95l5.92,0.76V607.46z M449.58,587.99l-5.92-0.76v-12.88
			l5.92,0.84V587.99z M456.7,682.64l-5.75-0.18v-17.89l5.75,0.29V682.64z M456.7,663.24l-5.75-0.29v-12.68l5.75,0.39V663.24z
			 M456.7,644.1l-5.51-0.4v-16.76l5.51,0.49V644.1z M456.7,625.81l-5.51-0.49v-13.79l5.51,0.61V625.81z M456.7,608.25l-5.51-0.61
			v-17.81l5.51,0.71V608.25z M456.7,588.9l-5.51-0.71v-12.77l5.51,0.79V588.9z M468.1,682.99l-5.47-0.17v-17.67l5.47,0.27V682.99z
			 M468.1,663.8l-5.47-0.27v-12.47l5.47,0.37V663.8z M468.34,644.94l-5.71-0.41v-16.56l5.71,0.51V644.94z M468.34,626.86l-5.71-0.51
			v-13.55l5.71,0.63V626.86z M468.34,609.54l-5.71-0.63v-17.62l5.71,0.73V609.54z M468.34,590.4l-5.71-0.73v-12.6l5.71,0.82V590.4z
			 M475.2,683.21l-5.48-0.17V665.5l5.48,0.27V683.21z M475.2,664.15l-5.48-0.27v-12.34l5.48,0.37V664.15z M475.2,645.44l-5.25-0.38
			v-16.44l5.25,0.47V645.44z M475.2,627.47l-5.25-0.47v-13.4l5.25,0.58V627.47z M475.2,610.3l-5.25-0.58v-17.49l5.25,0.67V610.3z
			 M475.2,591.28l-5.25-0.67v-12.5l5.25,0.75V591.28z M481.13,683.4l0.02-17.64l5.93,0.39l0.08,17.42L481.13,683.4z M487.17,664.75
			l-6.04-0.3v-12.14l6.04,0.41V664.75z M487.7,646.65l-6.12-0.44v-16.24l6.12,0.55V646.65z M487.7,628.89l-6.12-0.55v-13.17
			l6.12,0.68V628.89z M487.7,611.97l-6.12-0.68V594l6.12,0.79V611.97z M487.7,593.16l-6.12-0.79v-12.34l6.12,0.88V593.16z
			 M494.35,683.79l-5.57-0.17l0.02-17.29l5.57,0.36L494.35,683.79z M494.81,647.16l-5.49-0.4v-16.11l5.49,0.49V647.16z
			 M494.81,629.52l-5.49-0.49v-13.01l5.49,0.6V629.52z M494.81,612.76l-5.49-0.61V595l5.49,0.71V612.76z M494.81,594.07l-5.49-0.7
			v-12.22l5.49,0.78V594.07z M500.09,632.07l5.71,0.51v15.82l-5.71-0.41V632.07z M500.28,683.98l-0.01-16.9l5.54,0.39v16.67
			L500.28,683.98z M505.81,665.67l-5.53-0.27v-11.8l5.53,0.37V665.67z M608.42,629.63l3.71,0.41v10.45l-3.71-0.33V629.63z
			 M598.1,628.49l4.39,0.48v10.65l-4.39-0.39V628.49z M592.2,627.84l4.29,0.47v10.77l-4.29-0.38V627.84z M581.56,626.66l4.71,0.52
			v10.99l-4.71-0.42V626.66z M574.97,625.94l4.97,0.55v11.12l-4.97-0.45V625.94z M563.75,624.7l5.29,0.58v11.34l-5.29-0.47V624.7z
			 M556.69,623.92l5.45,0.6v11.49l-5.45-0.49V623.92z M544.94,622.62l5.82,0.64v11.72l-5.82-0.52V622.62z M537.7,621.83l5.62,0.62
			v11.88l-5.62-0.5V621.83z M526.28,620.56l5.49,0.61v12.11l-5.49-0.49V620.56z M518.88,619.75l5.78,0.64v12.26l-5.78-0.52V619.75z
			 M507.42,618.48l5.54,0.61v12.5l-5.54-0.5V618.48z M507.42,632.72l5.54,0.5v15.7l-5.54-0.4V632.72z M507.43,684.2l-0.01-16.69
			l5.68,0.21l0.05,16.65L507.43,684.2z M513.15,666.04l-5.73-0.28v-11.67l5.73,0.39V666.04z M518.88,633.75l5.78,0.52v15.5
			l-5.78-0.42V633.75z M524.68,666.61l-5.59-0.28v-11.46l5.59,0.38V666.61z M526.28,634.41l5.49,0.49v15.37l-5.49-0.4V634.41z
			 M531.97,666.97l-5.68-0.28v-11.33l5.68,0.38V666.97z M537.7,635.44l5.62,0.5v15.17l-5.62-0.41V635.44z M543.44,685.31l-5.54-0.17
			v-16.25l5.54,0.27V685.31z M543.44,667.54l-5.54-0.27v-11.12l5.54,0.38V667.54z M544.94,636.09l5.82,0.52v15.04l-5.82-0.42V636.09
			z M550.95,685.54l-5.9-0.18v-16.12l5.9,0.29V685.54z M550.95,667.91l-5.9-0.29v-10.99l5.9,0.4V667.91z M556.69,637.14l5.45,0.49
			v14.85l-5.45-0.4V637.14z M562.4,685.89l-5.52-0.17v-15.9l5.52,0.27V685.89z M562.4,668.48l-5.52-0.28v-10.78l5.52,0.37V668.48z
			 M563.75,637.77l5.29,0.47v14.73l-5.29-0.38V637.77z M569.23,686.1l-5.22-0.16v-15.76l5.22,0.26V686.1z M569.23,668.82l-5.22-0.26
			v-10.65l5.22,0.35V668.82z M574.97,638.78l4.97,0.45v14.54l-4.97-0.36V638.78z M579.95,686.43l-4.79-0.15v-15.55l4.79,0.24V686.43
			z M579.95,669.35l-4.79-0.24v-10.45l4.79,0.32V669.35z M581.56,639.37l4.71,0.42v14.43l-4.71-0.34V639.37z M586.46,686.63
			l-4.89-0.15v-15.43l4.89,0.24V686.63z M586.46,669.68l-4.89-0.24v-10.34l4.89,0.33V669.68z M592.2,640.32l4.29,0.38v14.26
			l-4.29-0.31V640.32z M596.7,686.94l-4.31-0.13v-15.22l4.31,0.21V686.94z M596.7,670.19l-4.31-0.21v-10.15l4.31,0.29V670.19z
			 M598.1,640.85l4.39,0.39v14.15l-4.39-0.32V640.85z M602.68,687.13l-4.37-0.13v-15.12l4.37,0.22V687.13z M602.68,670.48
			l-4.37-0.22v-10.04l4.37,0.29V670.48z M608.42,641.77l3.71,0.33v13.99l-3.71-0.27V641.77z"/>
		<g>
			<path class="st22" d="M508.27,565.91c-41.77-5.56-79.59-11.53-79.59-11.53l-0.07,7.59L508.14,573L508.27,565.91L508.27,565.91z"
				/>
			<path class="st3" d="M614.59,577.86c-11.74-0.32-60.18-5.91-104.68-11.83l-0.03-0.56l0.03,0.56l-0.83,39.22l107.68,11.4
				l2.67-32.07L614.59,577.86z"/>
		</g>
	</g>
	<polygon class="st3" points="578.77,536.69 548.8,543.07 559.23,545.07 	"/>
</g>
<path class="st5" d="M517.72,711.64l0.77-26.64c0,0,0-15.86,6.94-15.33c0,0,7.49-2.38,7.49,15.33c0,17.71,0,26.13,0,26.13
	L517.72,711.64z"/>
<path class="st3" d="M382.48,700.98v-21.6c0,0,0-13.79-8.21-13.33c0,0-6.02-2.07-6.02,13.33c0,15.4,0,21.83,0,21.83L382.48,700.98z"
	/>
<path class="st3" d="M363.72,700.98v-21.6c0,0,0-13.79-8.21-13.33c0,0-6.02-2.07-6.02,13.33c0,15.4,0,21.83,0,21.83L363.72,700.98z"
	/>
<path class="st3" d="M224.55,714.3v-26.91c0,0,0-13.72-5.46-13.27c0,0-4-2.06-4,13.27c0,15.33,0,26.8,0,26.8L224.55,714.3z"/>
<path class="st3" d="M212.09,714.23v-26.86c0,0,0-13.7-5.46-13.24c0,0-4-2.06-4,13.24s0,26.8,0,26.8L212.09,714.23z"/>
<polygon class="st24" points="473.87,713.25 473.33,698.18 426.53,698.59 331.84,700.34 331.84,715.13 427.07,715.4 "/>
</svg>
