<?xml version="1.0" encoding="utf-8"?>
<!-- Generator: Adobe Illustrator 23.0.3, SVG Export Plug-In . SVG Version: 6.00 Build 0)  -->
<svg version="1.1" id="Layer_1" xmlns="http://www.w3.org/2000/svg" xmlns:xlink="http://www.w3.org/1999/xlink" x="0px" y="0px"
	 viewBox="0 0 1252.08 1149" style="enable-background:new 0 0 1252.08 1149;" xml:space="preserve">
<style type="text/css">
	.st0{fill:#FFFFFF;}
	.st1{fill:#F37369;}
	.st2{fill:#FDD3B6;}
	.st3{opacity:0.4;fill:#FFFFFF;}
</style>
<path class="st0" d="M742.08,809.44c-14.56,0-26.36-11.81-26.36-26.4c0-14.59,11.8-26.35,26.36-26.35
	c14.55,0,26.35,11.76,26.35,26.35C768.43,797.63,756.63,809.44,742.08,809.44z"/>
<g>
	<g>
		<path class="st1" d="M917.07,0H569.08C540.08,0,518,23.93,518,53.51v728.53c0,29.56,22.08,53.96,51.08,53.96h347.99
			c28.98,0,53.93-24.35,53.93-53.94V53.51C971,23.93,946.05,0,917.07,0z M687.41,49h111.34c3.53,0,6.38-0.03,6.38,3.52
			c0,3.52-2.85,3.48-6.38,3.48H687.41c-3.52,0-6.38,0.04-6.38-3.48C681.03,48.97,683.89,49,687.41,49z M650.31,42.83
			c5.23,0,9.48,4.25,9.48,9.48c0,5.24-4.24,9.48-9.48,9.48c-5.23,0-9.48-4.24-9.48-9.48C640.84,47.07,645.08,42.83,650.31,42.83z
			 M743.08,809.44c-14.56,0-26.36-11.81-26.36-26.4c0-14.59,11.8-26.35,26.36-26.35c14.55,0,26.35,11.76,26.35,26.35
			C769.43,797.63,757.63,809.44,743.08,809.44z M951,734H538V98h413V734z"/>
	</g>
	<g>
		<g>
			<g>
				<g>
					<path class="st2" d="M972.5,758.02l-60.98-133.9c0,0-17.85-38.69-66.94-23.81c0,0-53.56,19.34-25.29,83.31
						c28.27,63.97,89.26,211.25,89.26,211.25s0,111.61,77.36,168.15l31.29,82.98h223.1l-99.67-188.62l-13.39-331.78
						c0,0,4.46-28.27-40.17-58.02c-44.63-29.75-111.3-70.76-111.3-70.76l1.22,121.71c0,0,31.24,8.74,35.7,14.69
						c4.46,5.95,1.49,86.19,1.49,87.68c0,1.49-8.93,31.2-35.71,35.66"/>
				</g>
			</g>
			<path class="st3" d="M910.95,659.41l-67.44,27.77c0,0-28.76-43.64,3.97-62.48C880.2,605.85,902.03,628.66,910.95,659.41z"/>
		</g>
		<path class="st0" d="M1246.68,1149h-231.95l-31.9-83.89c-40.3-29.86-59.39-74.36-68.32-106.54c-8.92-32.15-9.73-58.05-9.8-62.91
			c-4.57-11.03-62-149.52-88.94-210.48c-9.8-22.17-11.21-41.72-4.21-58.1c9.47-22.14,30.8-30.06,31.71-30.39l0.19-0.06
			c26.89-8.15,44.9-0.74,55.28,6.91c11.27,8.3,16.07,18.54,16.27,18.97L976,756.42l-6.97,4.55l-61.02-135.26
			c-0.67-1.43-17.14-35.35-62.2-21.76c-1.29,0.5-19.36,7.78-27.21,26.24c-6.09,14.32-4.67,31.78,4.21,51.87
			c27.96,63.28,88.49,209.86,89.1,211.34l0.09,0.71v0.77c0,0.28,0.33,27.85,9.79,61.84c8.67,31.15,27.29,74.27,66.29,102.78
			l0.86,0.44l30.73,81.07h214.26l-97.1-183.17l-13.44-332.74l0.06-0.34c0.03-0.23,3.18-26.3-38.5-54.09
			c-36.34-24.23-87.92-56.25-105.25-66.96l0.27,111.64c9.69,2.83,31.43,9.71,35.81,15.56c1.46,1.94,4.87,6.49,2.32,87.87
			c-0.04,1.21-0.06,1.96-0.06,2.15c0,2.65-14.9,35.2-49.1,39.99l0.06-8.13c30.53-4.79,40.84-30.43,41.35-32.23
			c0.01-0.39,0.03-1.07,0.06-2.01c2.21-70.8-0.25-81.57-0.89-83.14c-2.64-3.08-19.34-9.2-33.56-13.18l-4.44-0.78l0.34-131.59
			l5.93,3.65c0.67,0.41,67.25,41.34,111.42,70.79c43.68,29.12,42.33,57.29,41.89,61.28l13.34,330.38L1246.68,1149z"/>
	</g>
</g>
</svg>
