<?xml version="1.0" encoding="utf-8"?>
<!-- Generator: Adobe Illustrator 23.0.3, SVG Export Plug-In . SVG Version: 6.00 Build 0)  -->
<svg version="1.1" xmlns="http://www.w3.org/2000/svg" xmlns:xlink="http://www.w3.org/1999/xlink" x="0px" y="0px"
	 viewBox="0 0 1432 935" style="enable-background:new 0 0 1432 935;" xml:space="preserve">
<style type="text/css">
	.st0{fill:url(#SVGID_1_);}
	.st1{opacity:0.25;fill:#F87268;}
	.st2{fill:#F87268;}
	.st3{fill:url(#SVGID_2_);}
	.st4{fill:url(#SVGID_3_);}
	.st5{fill:url(#SVGID_4_);}
	.st6{fill:url(#SVGID_5_);}
	.st7{opacity:0.23;fill:#F87268;}
	.st8{fill-rule:evenodd;clip-rule:evenodd;fill:#B1B1B1;}
	.st9{fill-rule:evenodd;clip-rule:evenodd;fill:#1F1C1D;}
	.st10{fill-rule:evenodd;clip-rule:evenodd;fill:#FFD3B6;}
	.st11{fill-rule:evenodd;clip-rule:evenodd;}
	.st12{fill-rule:evenodd;clip-rule:evenodd;fill:#CACACA;}
	.st13{fill-rule:evenodd;clip-rule:evenodd;fill:#D6E9EB;}
</style>
<g id="Calque_4">
</g>
<g id="Calque_1">
</g>
<g id="antwerp">
</g>
<g id="Calque_2">
	<linearGradient id="SVGID_1_" gradientUnits="userSpaceOnUse" x1="716" y1="1094.8475" x2="716" y2="-612.9134">
		<stop  offset="0" style="stop-color:#FFFFFF"/>
		<stop  offset="1" style="stop-color:#F87268"/>
	</linearGradient>
	<polygon class="st0" points="317.47,640.06 1120.77,640 1432,935 0,935 	"/>
	<path class="st1" d="M860,8v261H561V8H860 M868,0h-8H561h-8v8v261v8h8h299h8v-8V8V0L868,0z"/>
	<g>
		<g>
			<path class="st2" d="M561,8v261h299V8H561z M749,104.22l42,0.28V155l-42-0.05V104.22z M636,25.65l108,0.04V42.3l-108-0.04V25.65z
				 M679,189.94v-28.96l65-0.15V190L679,189.94z M744,195.58v16.61l-65,0.24v-16.61L744,195.58z M608,155.01V48h136v106.95
				L608,155.01z M579.64,25.59L631,25.66v16.61l-51,0.09L579.64,25.59z M603,247.05L580,247v-51h23V247.05z M603.04,190H580v-86h23
				L603.04,190z M603,99h-22.95L580,48h23V99z M673,246.79l-65,0.24v-28.72l65-0.24V246.79z M841,247.08l-162-0.06v-5.88l162,0.06
				V247.08z M841,235l-92,0.01v-39.42l91.96,0.04L841,235z M841,190l-92,0v-29.17l92,0.17V190z M841,155h-44v-50.62l44,0.16V155z
				 M841,42.14l-92,0.15V25.68l92,0.21V42.14z"/>
			<linearGradient id="SVGID_2_" gradientUnits="userSpaceOnUse" x1="725.1494" y1="61.0756" x2="924.9348" y2="188.749">
				<stop  offset="0" style="stop-color:#FFFFFF"/>
				<stop  offset="1" style="stop-color:#F87268"/>
			</linearGradient>
			<polygon class="st3" points="749,104.11 923,243.03 923,132 749.12,48 			"/>
			<linearGradient id="SVGID_3_" gradientUnits="userSpaceOnUse" x1="948.7412" y1="104.122" x2="806.8641" y2="52.1004">
				<stop  offset="0" style="stop-color:#F0F0F0"/>
				<stop  offset="1" style="stop-color:#E4E4E4"/>
			</linearGradient>
			<polygon class="st4" points="749.11,48 841.03,48 1126.58,132.01 923,132 			"/>
			<polygon class="st2" points="378,498 378,778.49 304,777.84 304,498.28 			"/>
			<path class="st2" d="M580.26,104.3"/>
			<linearGradient id="SVGID_4_" gradientUnits="userSpaceOnUse" x1="323.2213" y1="528.6185" x2="539.0772" y2="158.5792">
				<stop  offset="0" style="stop-color:#F0F0F0"/>
				<stop  offset="1" style="stop-color:#E4E4E4"/>
			</linearGradient>
			<polygon class="st5" points="304,498.28 378,498 603,104 580,104 			"/>
		</g>
	</g>
	<polygon class="st2" points="1126.51,132 923,132 923,243.03 1126.55,243 	"/>
	<linearGradient id="SVGID_5_" gradientUnits="userSpaceOnUse" x1="664.8161" y1="142.9969" x2="329.0703" y2="716.7843">
		<stop  offset="0" style="stop-color:#FFFFFF"/>
		<stop  offset="1" style="stop-color:#F87268"/>
	</linearGradient>
	<polygon class="st6" points="603,104 378,498 378,777.79 603,190 	"/>
	<polygon class="st7" points="608,155.01 608,48 744,48 744,154.95 	"/>
	<polygon class="st7" points="841,235 749,235.01 749,195.59 840.96,195.63 	"/>
	<g>
		<path class="st8" d="M656.35,369.68c0.94,3.65-4.04,11.27-10.89,15.21c-21.34,12.31-25.93-16.63-29.88-27.79l-15.77-72.25
			c-8.22-41.43,42.13-47.76,44.46-9.14L656.35,369.68z"/>
		<polygon class="st9" points="684.54,747.97 683.9,774.75 636.31,773.89 651.96,745.03 		"/>
		<g>
			<path class="st8" d="M722.72,373.54c-0.95,3.65,4.04,11.27,10.88,15.21c21.34,12.3,25.93-16.63,29.88-27.79l15.77-72.25
				c8.22-41.43-42.12-47.76-44.46-9.13L722.72,373.54z"/>
			<polygon class="st9" points="700.19,747.9 700.83,774.11 748.42,773.26 732.77,745.03 			"/>
			<rect x="671.07" y="205.69" class="st10" width="42.34" height="35.21"/>
			<path class="st10" d="M692.78,222.43c-0.11,0.02-0.23,0.02-0.35,0.02c-4.37,0.03-6.54-0.05-8.91-1.05
				c-2.29-0.97-3.4-3.23-6.55-6.26c-2.69-2.58-7.5-5.22-8.68-8.03c-1.42-3.42-1.08-7.16-1.69-12.14c-2.49,1.37-5.16-5.75-5.68-8.1
				c-0.78-3.44-3.27-9.31-4.04-13.25c-0.45-2.25-0.18-4.04,0.58-4.61c1.61-1.2,3.28-0.55,5.68,2.73c0.16-2.78,0.34-5.64,0.24-8.68
				c-0.17-5.7-0.33-10.41,0.37-14.41c0.71-4.04,2.29-7.39,5.58-10.34l0,0v-0.01c1.83-1.61,3.89-2.99,6.14-4.13
				c0.02,0,0.05-0.02,0.07-0.03c0.15-0.07,0.3-0.14,0.45-0.22c0.08-0.04,0.16-0.07,0.25-0.11c0.11-0.06,0.24-0.12,0.36-0.16
				c0.11-0.05,0.23-0.1,0.35-0.15c0.13-0.06,0.25-0.11,0.38-0.16c0.11-0.05,0.22-0.1,0.34-0.15c0.16-0.07,0.31-0.13,0.48-0.19
				c0.08-0.02,0.15-0.06,0.23-0.09c0.24-0.1,0.47-0.18,0.71-0.26c0,0,0,0,0.01-0.01c5.98-2.17,12.77-2.77,19.2-1.82
				c6.41,0.95,12.45,3.45,16.94,7.46c3.28,2.94,4.84,6.27,5.55,10.29c0.7,3.99,0.56,8.68,0.4,14.36c-0.09,3.05,0.1,5.94,0.26,8.73
				c2.37-3.19,4.02-3.82,5.62-2.63c0.76,0.56,1.03,2.35,0.58,4.61c-0.78,3.94-3.26,9.81-4.04,13.25c-0.52,2.32-3.13,9.3-5.6,8.14
				c-0.54,4.83-0.25,8.47-1.63,11.84c-1.17,2.83-5.95,5.49-8.61,8.1c-3.15,3.08-4.25,5.33-6.53,6.35
				C698.92,222.28,696.82,222.42,692.78,222.43z"/>
			<path class="st11" d="M660.7,170.21c-6.02-24.43-0.79-53.3,33.46-49.9c32.21-1.73,38.54,26.03,30.57,51.4
				c-4.33,30.59-17.19,44.22-32.41,48.05C674.93,213.16,668.54,211.15,660.7,170.21z"/>
			<polygon class="st12" points="689.45,496.93 685.94,750.87 666.37,754.67 647.64,749.91 633.68,480.38 641.39,413.83 
				691.99,406.66 691.99,495.73 			"/>
			<polygon class="st12" points="689.45,496.93 686.04,750.87 667.15,754.78 661.84,453.77 663.21,410.73 692.84,406.66 
				694.1,479.8 693.38,495.73 			"/>
			<polygon class="st12" points="696.33,496.93 702.63,749.26 719.11,751.87 738.04,745.73 752.1,480.38 744.39,413.83 
				693.79,406.66 693.79,495.73 			"/>
			<polygon class="st12" points="696.33,496.93 698.34,749.69 719.38,751.78 723.95,453.77 722.57,410.73 692.62,406.87 
				693.15,495.83 			"/>
			<path class="st13" d="M713.85,221.85c0.65,4.61,2.06,6.71,5.12,9.05l-13.13,22.43h-27.21L665.5,230.9
				c3.06-2.33,4.46-4.44,5.11-9.05C680.9,226.28,704.14,227.18,713.85,221.85z"/>
			<path class="st8" d="M764.91,287.57l-15.25,63.54c-4.59,19.11-6.17,29.14-3.8,49.59l7.86,77.55h-59.05l-2.22-43.08l-2.53,43.08
				h-59.04c3.35-33.16,7.68-77.54,0.2-108.71l-22-96.2c-1.29-5.63,0.71-20.84,6.32-22.65c27.91-8.99,38.94-11.46,49.83-20.21
				c4.12,4.51,48.81,3.3,54.46,0.17c10.75,9.68,17.39,12.94,45.55,24.13C775.58,258.88,766.7,280.09,764.91,287.57z"/>
			<path class="st8" d="M764.91,287.57l-15.25,63.54c-4.59,19.11-6.17,29.14-3.8,49.59l7.86,77.55h-22.3l-7.86-77.55
				c-2.36-20.45-0.78-30.48,3.81-49.59c6.94-35.66,14.2-67.04,25.61-101.27c3.58,1.47,7.62,3.09,12.26,4.94
				C775.58,258.88,766.7,280.09,764.91,287.57L764.91,287.57z M672.37,478.25h-4.75l2.52-43.08L672.37,478.25z"/>
		</g>
	</g>
</g>
<g id="Calque_3">
</g>
</svg>
