<?xml version="1.0" encoding="utf-8"?>
<!-- Generator: Adobe Illustrator 23.0.3, SVG Export Plug-In . SVG Version: 6.00 Build 0)  -->
<svg version="1.1" xmlns="http://www.w3.org/2000/svg" xmlns:xlink="http://www.w3.org/1999/xlink" x="0px" y="0px"
	 viewBox="0 0 1229.12 841.25" style="enable-background:new 0 0 1229.12 841.25;" xml:space="preserve">
<style type="text/css">
	.st0{fill:#F87268;}
	.st1{opacity:0.44;fill:#F87268;}
	.st2{fill:#FFFFFF;}
	.st3{fill:#CACACA;}
	.st4{opacity:0.42;fill:#B1B1B1;}
	.st5{fill:#979797;}
	.st6{fill:#FFD7CD;}
	.st7{fill:#E4E4E4;}
	.st8{fill:#CCCECF;}
	.st9{fill:#B1B1B1;}
	.st10{fill:#87898C;}
	.st11{fill:#666666;}
	.st12{clip-path:url(#SVGID_2_);fill:#87898C;}
	.st13{opacity:0.5;fill:#FFFFFF;}
	.st14{opacity:0.5;}
	.st15{opacity:0.55;fill:#FFFFFF;}
	.st16{clip-path:url(#SVGID_4_);fill:#87898C;}
	.st17{clip-path:url(#SVGID_6_);fill:#87898C;}
	.st18{clip-path:url(#SVGID_8_);fill:#87898C;}
	.st19{clip-path:url(#SVGID_10_);fill:#87898C;}
	.st20{clip-path:url(#SVGID_12_);fill:#87898C;}
	.st21{clip-path:url(#SVGID_14_);fill:#87898C;}
	.st22{clip-path:url(#SVGID_16_);fill:#87898C;}
	.st23{clip-path:url(#SVGID_18_);fill:#87898C;}
	.st24{clip-path:url(#SVGID_20_);fill:#87898C;}
</style>
<g id="phone">
	<g>
		<path class="st0" d="M429.38,106.34L33.43,261.42c-33,12.93-36.62,39.4-9.33,58.66L696.15,794.4
			c27.27,19.25,75.76,24.44,108.75,11.51l395.95-155.08c32.99-12.92,37.88-38.97,10.59-58.23L539.36,118.26
			C512.08,99,462.36,93.42,429.38,106.34z"/>
		<path class="st1" d="M428.86,104.78L23.05,266c-28,17.67-35.69,65.08,6.71,96.18l651.86,459.77
			c27.92,19.69,86.86,27.99,128.23,7.12l384.69-150.88c28.18-11.39,46.57-53.08,25.04-79.75L535.26,116
			C507.33,96.3,463.38,90.5,428.86,104.78z"/>
		<path class="st2" d="M211.36,239.25l126.68-49.62c4.02-1.57,9.79-1.06,13.07,1.26c3.25,2.29,2.53,5.35-1.48,6.92l-126.68,49.62
			c-4,1.57-9.8,1.06-13.04-1.23C206.64,243.88,207.36,240.82,211.36,239.25z"/>
		<path class="st2" d="M166.12,253.64c5.96-2.33,14.7-1.46,19.52,1.94c4.83,3.41,3.92,8.06-2.04,10.4
			c-5.95,2.33-14.7,1.46-19.53-1.95C159.26,260.63,160.17,255.97,166.12,253.64z"/>
		<path class="st2" d="M978.85,711.41c-16.57,6.49-40.89,4.06-54.35-5.43c-13.46-9.5-10.88-22.42,5.69-28.91
			c16.55-6.49,40.84-4.09,54.3,5.41C997.95,691.98,995.4,704.93,978.85,711.41z"/>
		<polygon class="st2" points="1146.35,569.77 673.21,755.09 85.3,340.16 558.45,154.84 		"/>
	</g>
</g>
<g id="immeubles">
	<path class="st3" d="M253.22,200.63"/>
	<path class="st3" d="M525.36,398.73"/>
	<path class="st3" d="M862.74,334.25"/>
	<line class="st1" x1="729.04" y1="275.24" x2="799.55" y2="317.35"/>
	<path class="st4" d="M812.65,334.25c0,0-306.85,201.93-552.42,129.4L85.3,340.16l135.07-52.91c0,0,3.35,2.97,10,7.5
		c35.91,24.48,168.18,94.67,390.33-9.71l75.18-33.21L812.65,334.25"/>
	<path class="st4" d="M456.71,602.67c0,0,47.61-27.49,142.5-57.7c148.01-47.13,386.25-91.39,547.42,24.87L673.21,755.09"/>
	<path class="st5" d="M642.15,300.9l74.83,56.9l18.71,14.23l9.35,7.1l4.68,3.56l1.17,0.89l0.58,0.44c0.15,0.12,0.16,0.14,0.24,0.22
		c0.28,0.26,0.56,0.51,0.88,0.75l0.47,0.37c0.15,0.11,0.24,0.26,0.38,0.39c0.23,0.27,0.49,0.52,0.77,0.78
		c0.32,0.24,0.45,0.54,0.67,0.81c0.21,0.27,0.43,0.54,0.68,0.8c0.17,0.27,0.31,0.56,0.48,0.84c0.15,0.28,0.45,0.54,0.5,0.84
		c0.11,0.29,0.23,0.57,0.36,0.85c0.06,0.14,0.17,0.29,0.21,0.42l0.1,0.43c0.66,2.28,0.6,4.58-0.43,6.67
		c-1.09,2.08-2.97,3.93-5.53,5.4c-0.15,0.09-0.27,0.21-0.44,0.29l-0.54,0.24c-0.37,0.16-0.7,0.33-1.04,0.51
		c-0.1,0.05-0.12,0.07-0.28,0.15l-0.67,0.28l-1.34,0.57l-2.69,1.14l-10.79,4.56l-43.09,18.22l-86.18,36.43l-43.1,18.22l-5.38,2.27
		l-2.7,1.15c-1.34,0.61-2.76,1.27-4.11,1.92c-1.34,0.67-2.76,1.29-3.98,2.03c-1.25,0.73-2.49,1.47-3.69,2.22l-1.81,1.13
		c-0.57,0.38-1.11,0.8-1.66,1.21c-1.09,0.81-2.16,1.63-3.21,2.47c-1.12,0.81-1.96,1.73-2.9,2.61c-0.93,0.89-1.84,1.79-2.71,2.7
		c-0.77,0.94-1.53,1.9-2.29,2.85c-0.71,0.96-1.52,1.9-2.07,2.92c-1.16,2.02-2.43,4-3.16,6.13c-0.4,1.05-0.8,2.1-1.16,3.16
		c-0.31,1.07-0.52,2.15-0.75,3.24c-0.94,4.33-0.75,8.81-0.02,13.29c0.22,1.12,0.56,2.24,0.88,3.36c0.35,1.12,0.59,2.25,1.09,3.37
		c0.46,1.11,0.97,2.23,1.48,3.34l0.8,1.67l0.96,1.64c0.67,1.1,1.36,2.2,2.05,3.29c0.67,1.09,1.59,2.14,2.4,3.22
		c0.86,1.06,1.68,2.13,2.61,3.18c0.99,1.03,1.98,2.07,3,3.09c1.95,2.08,4.35,4.01,6.69,5.95l1.74,1.42l1.16,0.88l2.34,1.78
		l37.44,28.47l149.76,113.86l15.27,11.38l57.47-22.47l-16.37-12.61L640.6,576.5l-37.42-28.45l-2.33-1.77l-1.18-0.89
		c-0.25-0.2-0.3-0.28-0.46-0.42c-0.55-0.51-1.29-0.96-1.7-1.51c-0.25-0.26-0.53-0.52-0.8-0.77c-0.24-0.26-0.4-0.55-0.63-0.81
		c-0.18-0.28-0.51-0.53-0.65-0.82c-0.14-0.28-0.3-0.56-0.48-0.84l-0.29-0.41l-0.17-0.42c-0.11-0.29-0.24-0.57-0.4-0.85
		c-0.19-0.28-0.13-0.57-0.26-0.86c-0.06-0.29-0.2-0.57-0.25-0.85c-0.09-1.13-0.27-2.28,0.04-3.37l0.14-0.83
		c0.14-0.26,0.25-0.52,0.34-0.79c0.09-0.56,0.57-1.03,0.79-1.56c0.07-0.28,0.37-0.49,0.54-0.74c0.19-0.24,0.37-0.48,0.53-0.74
		c0.27-0.21,0.51-0.43,0.74-0.67c0.24-0.22,0.38-0.49,0.71-0.67c0.3-0.19,0.58-0.4,0.83-0.62c0.13-0.1,0.24-0.23,0.39-0.32l0.5-0.26
		c0.31-0.19,0.63-0.38,0.91-0.58c0.12-0.09,0.27-0.17,0.43-0.24c0.12-0.05,0.23-0.09,0.34-0.14c0.1-0.04,0.18-0.08,0.27-0.12
		c0.36-0.16,0.66-0.33,1.03-0.53l2.69-1.14l5.38-2.28l43.1-18.22l86.2-36.44l43.08-18.23l10.77-4.55l2.69-1.14l1.34-0.56l0.68-0.29
		l1.01-0.46c1.38-0.64,2.76-1.29,4.11-1.96l2.02-0.99c0.66-0.35,1.27-0.72,1.89-1.09c10.08-5.78,17.51-13.13,21.59-21.33
		c4.06-8.21,4.61-17.26,1.84-26.22l-0.51-1.68c-0.2-0.56-0.46-1.11-0.69-1.67c-0.48-1.11-0.99-2.23-1.51-3.34
		c-0.48-1.12-1.24-2.2-1.87-3.3c-0.69-1.1-1.35-2.19-2.1-3.28c-0.81-1.06-1.64-2.14-2.5-3.21c-0.87-1.06-1.66-2.13-2.71-3.15
		c-0.98-1.04-1.98-2.06-3.02-3.08c-0.52-0.51-1.01-1.03-1.57-1.52l-1.72-1.47c-1.16-0.98-2.33-1.95-3.51-2.92l-0.87-0.69l-0.59-0.45
		l-1.17-0.89l-4.68-3.56l-9.35-7.11l-18.71-14.23l-4.13-5.55L538.33,162.72l0,0l-19.59,7.67l20.46,15.57l-5.75,2.41l-15.68-11.91
		l-5.06-3.71c0,0-17.13,6.23-26.01,9.96l5.79,4.4L642.15,300.9z M562.07,541.56l-7.33,0.55c-4.57-9.92-2.55-20.3,5.55-28.3l6.7,2.68
		C559.81,523.58,558.01,532.77,562.07,541.56 M749.28,689.01l15.67,11.92l15.88,12.01l-5.88,2.33l-15.75-11.92l-15.67-11.92
		L749.28,689.01z M674.42,632.1l31.36,23.84l-5.75,2.41l-31.36-23.84L674.42,632.1z M599.57,575.19l15.68,11.92l15.67,11.92
		l-5.75,2.41l-15.67-11.92l-15.69-11.93L599.57,575.19z M631.25,486.37l-18.06,7.63l-5-3.78l18.05-7.63l18.05-7.63l5,3.77
		L631.25,486.37z M699.38,457.57l-5-3.77l36.1-15.26l5.01,3.77L699.38,457.57z M789.1,406.18c2-4.05,2.59-8.45,1.76-12.88l7.55,0.15
		c0.95,5,0.28,9.97-1.98,14.55c-2.24,4.58-6.07,8.76-11.22,12.26l-6.05-3.22C783.73,413.95,787.12,410.24,789.1,406.18
		 M732.41,332.86l31.36,23.84l-5.76,2.4l-31.35-23.83L732.41,332.86z M657.55,275.95l15.68,11.92l15.68,11.92l-5.75,2.41
		l-15.68-11.93l-15.68-11.91L657.55,275.95z M582.7,219.04l31.36,23.85l-5.75,2.41l-31.36-23.84L582.7,219.04z"/>
	<g>
		<polygon class="st0" points="428.38,257.15 397.38,234.91 397.38,205.37 428.38,224.51 		"/>
		<polygon class="st6" points="524.38,187.73 428.38,224.36 428.38,257.1 524.38,220.39 		"/>
		<polygon class="st7" points="397.17,205.37 428.38,224.51 524.38,187.73 495.58,170 		"/>
	</g>
	<g>
		<path class="st8" d="M166.46,366.84c3.92,2.27,3.94,5.94,0.05,8.2c-3.89,2.26-10.23,2.26-14.16,0c-3.92-2.26-3.94-5.93-0.04-8.2
			C156.2,364.58,162.54,364.58,166.46,366.84"/>
		<path class="st9" d="M159.44,375.39c-2.48,0-4.8-0.55-6.53-1.55c-1.54-0.89-2.39-2.01-2.4-3.15c0-1.13,0.83-2.24,2.35-3.12
			c1.72-1,4.03-1.55,6.51-1.55c2.48,0,4.8,0.55,6.53,1.55c1.55,0.89,2.4,2.01,2.4,3.15c0,1.13-0.83,2.24-2.36,3.12
			C164.23,374.84,161.92,375.39,159.44,375.39"/>
		<path class="st10" d="M153.24,369.01c1.72-1,4.03-1.55,6.51-1.55c2.48,0,4.8,0.55,6.53,1.55c0.95,0.55,1.63,1.18,2.02,1.85
			c0-0.04,0.01-0.09,0.01-0.13c0-1.14-0.85-2.26-2.4-3.15c-1.73-1-4.05-1.55-6.53-1.55c-2.48,0-4.79,0.55-6.51,1.55
			c-1.52,0.88-2.36,1.99-2.35,3.12c0,0.44,0.13,0.88,0.38,1.3C150.95,370.91,151.78,369.86,153.24,369.01"/>
		<path class="st5" d="M159.39,372.06c-0.68,0-1.84-0.55-1.84-1.23l0.61-18.45c0-0.68,0.55-1.23,1.23-1.23
			c0.68,0,1.23,0.55,1.23,1.23l0.61,18.45C161.23,371.51,160.07,372.06,159.39,372.06"/>
		<path class="st11" d="M161.07,365.86l-0.45-13.48c0-0.68-0.55-1.23-1.23-1.23c-0.68,0-1.23,0.55-1.23,1.23l-0.47,14.32
			C158.66,366.14,159.88,365.86,161.07,365.86"/>
		<path class="st9" d="M165.37,360.16C165.36,360.16,165.36,360.16,165.37,360.16c0.44-0.89,0.7-1.91,0.7-2.98
			c0-3.68-2.99-17.12-6.67-17.12c-3.69,0-6.67,13.44-6.67,17.12c0,1.08,0.26,2.09,0.71,2.99c0,0-0.01,0-0.01-0.01
			c0.01,0.02,0.02,0.04,0.03,0.06c0.26,0.5,0.58,0.97,0.95,1.39c0.03,0.04,0.06,0.07,0.1,0.11c0.38,0.41,0.81,0.78,1.29,1.08
			c0.04,0.03,0.09,0.05,0.13,0.08c0.2,0.12,0.41,0.24,0.63,0.34c0.05,0.02,0.09,0.05,0.14,0.07c0.25,0.11,0.51,0.21,0.78,0.29
			c0.04,0.01,0.09,0.02,0.14,0.04c0.23,0.06,0.46,0.11,0.69,0.15c0.08,0.01,0.15,0.02,0.23,0.03c0.28,0.04,0.57,0.06,0.86,0.06
			c0.29,0,0.58-0.03,0.86-0.06c0.08-0.01,0.15-0.02,0.22-0.03c0.24-0.04,0.47-0.09,0.69-0.15c0.04-0.01,0.09-0.02,0.14-0.04
			c0.27-0.08,0.53-0.18,0.79-0.29c0.05-0.02,0.09-0.04,0.14-0.07c0.22-0.1,0.43-0.22,0.63-0.34c0.04-0.03,0.09-0.05,0.13-0.08
			c0.24-0.15,0.47-0.32,0.69-0.5c0,0,0,0,0.01-0.01c0.21-0.18,0.41-0.37,0.59-0.57c0.03-0.04,0.07-0.08,0.1-0.11
			c0.37-0.42,0.69-0.88,0.95-1.38C165.34,360.19,165.36,360.18,165.37,360.16z"/>
		<g>
			<defs>
				<path id="SVGID_1_" d="M149.39,372.95c0,1.49,0.98,2.99,2.96,4.13c3.92,2.26,10.26,2.26,14.16,0c1.94-1.13,2.9-2.6,2.91-4.07
					l0-2.04c0,1.48-0.97,2.95-2.91,4.07c-3.89,2.26-10.23,2.26-14.16,0c-1.97-1.14-2.96-2.64-2.95-4.13L149.39,372.95z"/>
			</defs>
			<clipPath id="SVGID_2_">
				<use xlink:href="#SVGID_1_"  style="overflow:visible;"/>
			</clipPath>
			<path class="st12" d="M169.42,370.97l0,2.04c0,1.47-0.97,2.95-2.91,4.07c-3.89,2.26-10.23,2.26-14.16,0
				c-1.97-1.14-2.96-2.63-2.96-4.13l0.01-2.04c0,1.49,0.98,2.99,2.95,4.13c3.92,2.26,10.26,2.26,14.16,0
				C168.44,373.92,169.41,372.44,169.42,370.97"/>
		</g>
	</g>
	<g>
		<polygon class="st0" points="464.38,283.2 433.38,260.96 433.38,231.42 464.38,250.56 		"/>
		<polygon class="st6" points="562.38,213.78 464.38,250.4 464.38,283.15 562.38,246.44 		"/>
		<polygon class="st7" points="433.38,231.42 464.38,250.56 562.37,213.78 532.6,196.05 		"/>
	</g>
	<g>
		<g>
			<polygon class="st0" points="947.38,630.19 821.38,543.81 821.38,252.59 947.38,331.22 			"/>
			<polygon class="st6" points="1052.38,291.37 947.38,330.83 947.38,630.06 1052.38,590.41 			"/>
			<polygon class="st7" points="821.49,252.59 947.81,331.51 1052.5,291.37 927.93,213.49 			"/>
		</g>
		<path class="st13" d="M922.51,354.43c1.64,0.97,2.96,3.33,2.95,5.28l0,3.08c0,1.94-1.33,2.73-2.97,1.76l-82.73-49.01
			c-1.64-0.98-2.97-3.35-2.97-5.29l0.01-3.08c0-1.94,1.34-2.72,2.99-1.75L922.51,354.43z"/>
		<path class="st13" d="M922.51,387.71c1.64,0.98,2.96,3.33,2.95,5.27l0,3.09c0,1.95-1.33,2.74-2.97,1.76l-82.73-49
			c-1.64-0.98-2.97-3.35-2.97-5.29l0.01-3.1c0-1.94,1.34-2.71,2.99-1.73L922.51,387.71z"/>
		<path class="st13" d="M922.51,420.98c1.64,0.97,2.96,3.33,2.95,5.28l0,3.08c0,1.94-1.33,2.73-2.97,1.76l-82.73-49
			c-1.64-0.98-2.97-3.35-2.97-5.29l0.01-3.08c0-1.94,1.34-2.72,2.99-1.75L922.51,420.98z"/>
		<path class="st13" d="M922.51,454.26c1.64,0.98,2.96,3.32,2.95,5.26l0,3.1c0,1.94-1.33,2.73-2.97,1.76l-82.73-49.01
			c-1.64-0.97-2.97-3.35-2.97-5.28l0.01-3.1c0-1.93,1.34-2.71,2.99-1.73L922.51,454.26z"/>
		<path class="st13" d="M922.51,487.52c1.64,0.98,2.96,3.34,2.95,5.28l0,3.08c0,1.94-1.33,2.73-2.97,1.76l-82.73-49
			c-1.64-0.98-2.97-3.35-2.97-5.29l0.01-3.08c0-1.94,1.34-2.73,2.99-1.75L922.51,487.52z"/>
		<path class="st13" d="M922.51,522.95c1.64,0.98,2.96,3.34,2.95,5.28l0,3.08c0,1.94-1.33,2.73-2.97,1.76l-82.73-49
			c-1.64-0.98-2.97-3.35-2.97-5.29l0.01-3.08c0-1.94,1.34-2.73,2.99-1.75L922.51,522.95z"/>
		<g class="st14">
			<path class="st2" d="M959.42,361.73c-2.31,0.81-1.99,3.37-2.29,5.29v2.39c-0.02,3.24,3.34,1.61,5.12,0.91l78.19-29.84
				c1.78-0.71,2.22-2.14,2.52-4.05v-1.75c0.3-1.92-1.17-3.91-4.24-2.89L959.42,361.73z"/>
			<path class="st2" d="M959.42,395.21c-2.31,0.81-1.99,3.37-2.29,5.29v2.39c-0.02,3.24,3.34,1.61,5.12,0.91l78.19-29.84
				c1.78-0.71,2.22-2.13,2.52-4.05v-1.75c0.3-1.91-1.17-3.91-4.24-2.89L959.42,395.21z"/>
			<path class="st2" d="M959.42,425.19c-2.31,0.81-1.99,3.37-2.29,5.29v2.39c-0.02,3.24,3.34,1.61,5.12,0.91l78.19-29.84
				c1.78-0.7,2.22-2.13,2.52-4.05v-1.75c0.3-1.92-1.17-3.91-4.24-2.89L959.42,425.19z"/>
			<path class="st2" d="M959.42,455.17c-2.31,0.81-1.99,3.37-2.29,5.29v2.39c-0.02,3.24,3.34,1.61,5.12,0.91l78.19-29.84
				c1.78-0.7,2.22-2.13,2.52-4.05v-1.75c0.3-1.92-1.17-3.91-4.24-2.89L959.42,455.17z"/>
			<path class="st2" d="M959.42,487.64c-2.31,0.81-1.99,3.37-2.29,5.29v2.4c-0.02,3.23,3.34,1.61,5.12,0.91l78.19-29.84
				c1.78-0.7,2.22-2.13,2.52-4.05v-1.75c0.3-1.92-1.17-3.91-4.24-2.89L959.42,487.64z"/>
			<path class="st2" d="M959.42,520.21c-2.31,0.81-1.99,3.37-2.29,5.29v2.4c-0.02,3.23,3.34,1.61,5.12,0.91l78.19-29.84
				c1.78-0.7,2.22-2.13,2.52-4.05v-1.75c0.3-1.92-1.17-3.91-4.24-2.89L959.42,520.21z"/>
		</g>
	</g>
	<g>
		<g>
			<polygon class="st0" points="796.38,645.77 690.38,573.4 690.38,329.38 796.38,395.26 			"/>
			<polygon class="st6" points="884.38,361.87 796.38,394.94 796.38,645.66 884.38,612.44 			"/>
			<polygon class="st7" points="690.38,329.38 796.62,395.51 884.34,361.87 779.96,296.62 			"/>
		</g>
		<path class="st13" d="M775.42,414.71c1.38,0.81,2.48,2.79,2.47,4.42l0,2.58c0,1.63-1.12,2.29-2.49,1.48l-69.32-41.07
			c-1.37-0.82-2.49-2.8-2.48-4.43l0.01-2.58c0-1.62,1.13-2.28,2.5-1.46L775.42,414.71z"/>
		<path class="st13" d="M775.42,442.6c1.38,0.82,2.48,2.79,2.47,4.42l0,2.59c0,1.63-1.12,2.3-2.49,1.48l-69.32-41.06
			c-1.37-0.82-2.49-2.81-2.48-4.43l0.01-2.6c0-1.63,1.13-2.27,2.5-1.45L775.42,442.6z"/>
		<path class="st13" d="M775.42,470.47c1.38,0.82,2.48,2.8,2.47,4.43l0,2.58c0,1.63-1.12,2.29-2.49,1.47l-69.32-41.06
			c-1.37-0.82-2.49-2.81-2.48-4.43l0.01-2.58c0-1.62,1.13-2.28,2.5-1.46L775.42,470.47z"/>
		<path class="st13" d="M775.42,498.36c1.38,0.82,2.48,2.79,2.47,4.41l0,2.59c0,1.62-1.12,2.29-2.49,1.48l-69.32-41.07
			c-1.37-0.82-2.49-2.8-2.48-4.43l0.01-2.6c0-1.62,1.13-2.27,2.5-1.45L775.42,498.36z"/>
		<path class="st13" d="M775.42,526.23c1.38,0.82,2.48,2.8,2.47,4.43l0,2.58c0,1.63-1.12,2.29-2.49,1.47l-69.32-41.06
			c-1.37-0.82-2.49-2.81-2.48-4.43l0.01-2.58c0-1.62,1.13-2.28,2.5-1.46L775.42,526.23z"/>
		<path class="st13" d="M775.42,555.92c1.38,0.82,2.48,2.8,2.47,4.42l0,2.58c0,1.63-1.12,2.29-2.49,1.47l-69.32-41.06
			c-1.37-0.82-2.49-2.81-2.48-4.43l0.01-2.58c0-1.63,1.13-2.28,2.5-1.46L775.42,555.92z"/>
		<g class="st14">
			<path class="st2" d="M806.35,420.83c-1.94,0.68-1.67,2.83-1.92,4.43v2.01c-0.02,2.71,2.8,1.35,4.29,0.76l65.52-25
				c1.49-0.59,1.86-1.79,2.11-3.39v-1.47c0.25-1.61-0.98-3.27-3.55-2.42L806.35,420.83z"/>
			<path class="st2" d="M806.35,448.88c-1.94,0.68-1.67,2.83-1.92,4.43v2.01c-0.02,2.71,2.8,1.35,4.29,0.76l65.52-25
				c1.49-0.59,1.86-1.79,2.11-3.39v-1.47c0.25-1.61-0.98-3.28-3.55-2.42L806.35,448.88z"/>
			<path class="st2" d="M806.35,474c-1.94,0.68-1.67,2.83-1.92,4.43v2.01c-0.02,2.71,2.8,1.35,4.29,0.76l65.52-25
				c1.49-0.59,1.86-1.79,2.11-3.4v-1.47c0.25-1.61-0.98-3.28-3.55-2.42L806.35,474z"/>
			<path class="st2" d="M806.35,499.12c-1.94,0.68-1.67,2.83-1.92,4.43v2.01c-0.02,2.71,2.8,1.35,4.29,0.76l65.52-25
				c1.49-0.59,1.86-1.79,2.11-3.39v-1.47c0.25-1.61-0.98-3.27-3.55-2.42L806.35,499.12z"/>
			<path class="st2" d="M806.35,526.33c-1.94,0.68-1.67,2.82-1.92,4.43v2.01c-0.02,2.71,2.8,1.35,4.29,0.76l65.52-25
				c1.49-0.59,1.86-1.79,2.11-3.39v-1.47c0.25-1.61-0.98-3.28-3.55-2.42L806.35,526.33z"/>
			<path class="st2" d="M806.35,553.62c-1.94,0.68-1.67,2.83-1.92,4.43v2.01c-0.02,2.71,2.8,1.35,4.29,0.76l65.52-25
				c1.49-0.59,1.86-1.79,2.11-3.4v-1.47c0.25-1.61-0.98-3.28-3.55-2.42L806.35,553.62z"/>
		</g>
	</g>
	<polyline class="st0" points="830.61,632.78 851.38,625.01 851.38,593.68 830.71,600.03 	"/>
	<polyline class="st0" points="992.84,612.9 1013.38,605.13 1013.38,573.81 992.83,580.15 	"/>
	<g>
		<g>
			<g>
				<polygon class="st0" points="544.38,649.86 472.38,604.64 472.38,452.16 544.38,493.33 				"/>
				<polygon class="st6" points="603.38,472.46 544.38,493.12 544.38,649.79 603.38,629.03 				"/>
				<polygon class="st7" points="472.38,452.16 544.38,493.33 603.07,472.46 532.7,431.33 				"/>
			</g>
		</g>
		<g class="st14">
			<polygon class="st2" points="492.38,497.46 504.38,504.29 504.38,482.77 492.38,475.91 			"/>
			<polygon class="st2" points="518.38,543.26 518.38,523.85 505.38,516.45 505.38,535.86 			"/>
			<polygon class="st2" points="491.38,539.49 481.38,533.8 481.38,552.21 491.38,557.9 			"/>
			<polygon class="st2" points="504.38,535.29 504.38,515.88 492.38,509.05 492.38,528.46 			"/>
			<polygon class="st2" points="504.38,546.88 492.38,540.05 492.38,558.46 504.38,565.29 			"/>
			<polygon class="st2" points="519.38,573.83 533.38,581.8 533.38,563.38 519.38,555.42 			"/>
			<polygon class="st2" points="491.38,508.49 481.38,502.8 481.38,522.21 491.38,527.9 			"/>
			<polygon class="st2" points="505.38,483.34 505.38,504.86 518.38,512.26 518.38,490.78 			"/>
			<polygon class="st2" points="519.38,512.83 533.38,520.8 533.38,499.35 519.38,491.35 			"/>
			<polygon class="st2" points="491.38,569.49 481.38,563.8 481.38,579.74 491.38,586.02 			"/>
			<polygon class="st2" points="491.38,496.9 491.38,475.34 481.38,469.62 481.38,491.21 			"/>
			<polygon class="st2" points="519.38,585.42 519.38,603.61 533.38,612.41 533.38,593.38 			"/>
			<polygon class="st2" points="504.38,594.19 504.38,576.88 492.38,570.05 492.38,586.65 			"/>
			<polygon class="st2" points="518.38,584.85 505.38,577.45 505.38,594.82 518.38,602.98 			"/>
			<polygon class="st2" points="519.38,543.83 533.38,551.8 533.38,532.38 519.38,524.42 			"/>
			<polygon class="st2" points="505.38,547.45 505.38,565.86 518.38,573.26 518.38,554.85 			"/>
		</g>
	</g>
	<g>
		<g>
			<g>
				<polygon class="st0" points="268.38,409.63 225.38,381.39 225.38,286.2 268.38,311.9 				"/>
				<polygon class="st6" points="305.38,298.88 268.38,311.9 268.38,409.58 305.38,396.62 				"/>
				<polygon class="st4" points="225.38,286.2 268.38,311.9 305.38,298.88 260.21,272.83 				"/>
			</g>
		</g>
		<g class="st14">
			<polygon class="st2" points="286.38,350.61 286.38,334.98 281.38,336.71 281.38,352.36 			"/>
			<polygon class="st2" points="281.38,331.36 286.38,329.61 286.38,312.4 281.38,314.18 			"/>
			<polygon class="st2" points="280.38,358.05 275.38,359.77 275.38,378.46 280.38,376.71 			"/>
			<polygon class="st2" points="293.38,372.15 298.38,370.4 298.38,351.84 293.38,353.57 			"/>
			<polygon class="st2" points="292.38,348.51 292.38,332.91 287.38,334.64 287.38,350.26 			"/>
			<polygon class="st2" points="286.38,355.98 281.38,357.71 281.38,376.36 286.38,374.61 			"/>
			<polygon class="st2" points="280.38,337.05 275.38,338.77 275.38,354.46 280.38,352.71 			"/>
			<polygon class="st2" points="287.38,312.04 287.38,329.26 292.38,327.51 292.38,310.26 			"/>
			<polygon class="st2" points="292.38,377.91 287.38,379.64 287.38,395.49 292.38,393.6 			"/>
			<polygon class="st2" points="280.38,382.05 275.38,383.77 275.38,400.03 280.38,398.14 			"/>
			<polygon class="st2" points="286.38,395.87 286.38,379.98 281.38,381.71 281.38,397.76 			"/>
			<polygon class="st2" points="293.38,377.57 293.38,393.22 298.38,391.33 298.38,375.84 			"/>
			<polygon class="st2" points="280.38,331.71 280.38,314.54 275.38,316.32 275.38,317.33 275.38,333.46 			"/>
			<polygon class="st2" points="293.38,327.15 298.38,325.4 298.38,308.13 293.38,309.91 			"/>
			<polygon class="st2" points="287.38,355.64 287.38,374.26 292.38,372.51 292.38,353.91 			"/>
			<polygon class="st2" points="293.38,348.15 298.38,346.4 298.38,330.84 293.38,332.57 			"/>
		</g>
	</g>
	<path class="st0" d="M532.96,253.42"/>
	<polygon class="st15" points="481.38,269.45 477.38,270.95 477.38,278.89 481.38,277.36 	"/>
	<polygon class="st13" points="496.38,252.15 468.38,263 468.38,269.46 496.38,258.57 	"/>
	<polygon class="st13" points="531.24,244.78 558.38,233.89 558.38,227.47 531.1,238.32 	"/>
	<polygon class="st13" points="499.98,257.12 527.38,246.23 527.38,239.81 499.97,250.66 	"/>
	<polygon class="st13" points="496.38,243.23 468.38,254.09 468.38,260.54 496.38,249.66 	"/>
	<polygon class="st13" points="531.24,235.87 558.38,224.98 558.38,218.56 531.1,229.41 	"/>
	<polygon class="st13" points="499.98,248.21 527.38,237.32 527.38,230.9 499.97,241.75 	"/>
	<g>
		<path class="st8" d="M204.46,394.84c3.92,2.27,3.94,5.94,0.05,8.2c-3.89,2.26-10.23,2.26-14.16,0c-3.92-2.26-3.94-5.93-0.04-8.2
			C194.2,392.58,200.54,392.58,204.46,394.84"/>
		<path class="st9" d="M197.44,403.39c-2.48,0-4.8-0.55-6.53-1.55c-1.54-0.89-2.39-2.01-2.4-3.15c0-1.13,0.83-2.24,2.35-3.12
			c1.72-1,4.03-1.55,6.51-1.55c2.48,0,4.8,0.55,6.53,1.55c1.55,0.89,2.4,2.01,2.4,3.15c0,1.13-0.83,2.24-2.36,3.12
			C202.23,402.84,199.92,403.39,197.44,403.39"/>
		<path class="st10" d="M191.24,397.01c1.72-1,4.03-1.55,6.51-1.55c2.48,0,4.8,0.55,6.53,1.55c0.95,0.55,1.63,1.18,2.02,1.85
			c0-0.04,0.01-0.09,0.01-0.13c0-1.14-0.85-2.26-2.4-3.15c-1.73-1-4.05-1.55-6.53-1.55c-2.48,0-4.79,0.55-6.51,1.55
			c-1.52,0.88-2.36,1.99-2.35,3.12c0,0.44,0.13,0.88,0.38,1.3C188.95,398.91,189.78,397.86,191.24,397.01"/>
		<path class="st5" d="M197.39,400.06c-0.68,0-1.84-0.55-1.84-1.23l0.61-18.45c0-0.68,0.55-1.23,1.23-1.23
			c0.68,0,1.23,0.55,1.23,1.23l0.61,18.45C199.23,399.51,198.07,400.06,197.39,400.06"/>
		<path class="st11" d="M199.07,393.86l-0.45-13.48c0-0.68-0.55-1.23-1.23-1.23c-0.68,0-1.23,0.55-1.23,1.23l-0.47,14.32
			C196.66,394.14,197.88,393.86,199.07,393.86"/>
		<path class="st9" d="M203.37,388.16C203.36,388.16,203.36,388.16,203.37,388.16c0.44-0.89,0.7-1.91,0.7-2.98
			c0-3.68-2.99-17.12-6.67-17.12c-3.69,0-6.67,13.44-6.67,17.12c0,1.08,0.26,2.09,0.71,2.99c0,0-0.01,0-0.01-0.01
			c0.01,0.02,0.02,0.04,0.03,0.06c0.26,0.5,0.58,0.97,0.95,1.39c0.03,0.04,0.06,0.07,0.1,0.11c0.38,0.41,0.81,0.78,1.29,1.08
			c0.04,0.03,0.09,0.05,0.13,0.08c0.2,0.12,0.41,0.24,0.63,0.34c0.05,0.02,0.09,0.05,0.14,0.07c0.25,0.11,0.51,0.21,0.78,0.29
			c0.04,0.01,0.09,0.02,0.14,0.04c0.23,0.06,0.46,0.11,0.69,0.15c0.08,0.01,0.15,0.02,0.23,0.03c0.28,0.04,0.57,0.06,0.86,0.06
			c0.29,0,0.58-0.03,0.86-0.06c0.08-0.01,0.15-0.02,0.22-0.03c0.24-0.04,0.47-0.09,0.69-0.15c0.04-0.01,0.09-0.02,0.14-0.04
			c0.27-0.08,0.53-0.18,0.79-0.29c0.05-0.02,0.09-0.04,0.14-0.07c0.22-0.1,0.43-0.22,0.63-0.34c0.04-0.03,0.09-0.05,0.13-0.08
			c0.24-0.15,0.47-0.32,0.69-0.5c0,0,0,0,0.01-0.01c0.21-0.18,0.41-0.37,0.59-0.57c0.03-0.04,0.07-0.08,0.1-0.11
			c0.37-0.42,0.69-0.88,0.95-1.38C203.34,388.19,203.36,388.18,203.37,388.16z"/>
		<g>
			<defs>
				<path id="SVGID_3_" d="M187.39,400.95c0,1.49,0.98,2.99,2.96,4.13c3.92,2.26,10.26,2.26,14.16,0c1.94-1.13,2.9-2.6,2.91-4.07
					l0-2.04c0,1.48-0.97,2.95-2.91,4.07c-3.89,2.26-10.23,2.26-14.16,0c-1.97-1.14-2.96-2.64-2.95-4.13L187.39,400.95z"/>
			</defs>
			<clipPath id="SVGID_4_">
				<use xlink:href="#SVGID_3_"  style="overflow:visible;"/>
			</clipPath>
			<path class="st16" d="M207.42,398.97l0,2.04c0,1.47-0.97,2.95-2.91,4.07c-3.89,2.26-10.23,2.26-14.16,0
				c-1.97-1.14-2.96-2.63-2.96-4.13l0.01-2.04c0,1.49,0.98,2.99,2.95,4.13c3.92,2.26,10.26,2.26,14.16,0
				C206.44,401.92,207.41,400.44,207.42,398.97"/>
		</g>
	</g>
	<g>
		<path class="st8" d="M244.46,423.84c3.92,2.27,3.94,5.94,0.05,8.2c-3.89,2.26-10.23,2.26-14.16,0c-3.92-2.26-3.94-5.93-0.04-8.2
			C234.2,421.58,240.54,421.58,244.46,423.84"/>
		<path class="st9" d="M237.44,432.39c-2.48,0-4.8-0.55-6.53-1.55c-1.54-0.89-2.39-2.01-2.4-3.15c0-1.13,0.83-2.24,2.35-3.12
			c1.72-1,4.03-1.55,6.51-1.55c2.48,0,4.8,0.55,6.53,1.55c1.55,0.89,2.4,2.01,2.4,3.15c0,1.13-0.83,2.24-2.36,3.12
			C242.23,431.84,239.92,432.39,237.44,432.39"/>
		<path class="st10" d="M231.24,426.01c1.72-1,4.03-1.55,6.51-1.55c2.48,0,4.8,0.55,6.53,1.55c0.95,0.55,1.63,1.18,2.02,1.85
			c0-0.04,0.01-0.09,0.01-0.13c0-1.14-0.85-2.26-2.4-3.15c-1.73-1-4.05-1.55-6.53-1.55c-2.48,0-4.79,0.55-6.51,1.55
			c-1.52,0.88-2.36,1.99-2.35,3.12c0,0.44,0.13,0.88,0.38,1.3C228.95,427.91,229.78,426.86,231.24,426.01"/>
		<path class="st5" d="M237.39,429.06c-0.68,0-1.84-0.55-1.84-1.23l0.61-18.45c0-0.68,0.55-1.23,1.23-1.23
			c0.68,0,1.23,0.55,1.23,1.23l0.61,18.45C239.23,428.51,238.07,429.06,237.39,429.06"/>
		<path class="st11" d="M239.07,422.86l-0.45-13.48c0-0.68-0.55-1.23-1.23-1.23c-0.68,0-1.23,0.55-1.23,1.23l-0.47,14.32
			C236.66,423.14,237.88,422.86,239.07,422.86"/>
		<path class="st9" d="M243.37,417.16C243.36,417.16,243.36,417.16,243.37,417.16c0.44-0.89,0.7-1.91,0.7-2.98
			c0-3.68-2.99-17.12-6.67-17.12c-3.69,0-6.67,13.44-6.67,17.12c0,1.08,0.26,2.09,0.71,2.99c0,0-0.01,0-0.01-0.01
			c0.01,0.02,0.02,0.04,0.03,0.06c0.26,0.5,0.58,0.97,0.95,1.39c0.03,0.04,0.06,0.07,0.1,0.11c0.38,0.41,0.81,0.78,1.29,1.08
			c0.04,0.03,0.09,0.05,0.13,0.08c0.2,0.12,0.41,0.24,0.63,0.34c0.05,0.02,0.09,0.05,0.14,0.07c0.25,0.11,0.51,0.21,0.78,0.29
			c0.04,0.01,0.09,0.02,0.14,0.04c0.23,0.06,0.46,0.11,0.69,0.15c0.08,0.01,0.15,0.02,0.23,0.03c0.28,0.04,0.57,0.06,0.86,0.06
			c0.29,0,0.58-0.03,0.86-0.06c0.08-0.01,0.15-0.02,0.22-0.03c0.24-0.04,0.47-0.09,0.69-0.15c0.04-0.01,0.09-0.02,0.14-0.04
			c0.27-0.08,0.53-0.18,0.79-0.29c0.05-0.02,0.09-0.04,0.14-0.07c0.22-0.1,0.43-0.22,0.63-0.34c0.04-0.03,0.09-0.05,0.13-0.08
			c0.24-0.15,0.47-0.32,0.69-0.5c0,0,0,0,0.01-0.01c0.21-0.18,0.41-0.37,0.59-0.57c0.03-0.04,0.07-0.08,0.1-0.11
			c0.37-0.42,0.69-0.88,0.95-1.38C243.34,417.19,243.36,417.18,243.37,417.16z"/>
		<g>
			<defs>
				<path id="SVGID_5_" d="M227.39,429.95c0,1.49,0.98,2.99,2.96,4.13c3.92,2.26,10.26,2.26,14.16,0c1.94-1.13,2.9-2.6,2.91-4.07
					l0-2.04c0,1.48-0.97,2.95-2.91,4.07c-3.89,2.26-10.23,2.26-14.16,0c-1.97-1.14-2.96-2.64-2.95-4.13L227.39,429.95z"/>
			</defs>
			<clipPath id="SVGID_6_">
				<use xlink:href="#SVGID_5_"  style="overflow:visible;"/>
			</clipPath>
			<path class="st17" d="M247.42,427.97l0,2.04c0,1.47-0.97,2.95-2.91,4.07c-3.89,2.26-10.23,2.26-14.16,0
				c-1.97-1.14-2.96-2.63-2.96-4.13l0.01-2.04c0,1.49,0.98,2.99,2.95,4.13c3.92,2.26,10.26,2.26,14.16,0
				C246.44,430.92,247.41,429.44,247.42,427.97"/>
		</g>
	</g>
	<g>
		<path class="st8" d="M345.46,320.84c3.92,2.27,3.94,5.94,0.05,8.2c-3.89,2.26-10.23,2.26-14.16,0c-3.92-2.26-3.94-5.93-0.04-8.2
			C335.2,318.58,341.54,318.58,345.46,320.84"/>
		<path class="st9" d="M338.44,329.39c-2.48,0-4.8-0.55-6.53-1.55c-1.54-0.89-2.39-2.01-2.4-3.15c0-1.13,0.83-2.24,2.35-3.12
			c1.72-1,4.03-1.55,6.51-1.55c2.48,0,4.8,0.55,6.53,1.55c1.55,0.89,2.4,2.01,2.4,3.15c0,1.13-0.83,2.24-2.36,3.12
			C343.23,328.84,340.92,329.39,338.44,329.39"/>
		<path class="st10" d="M332.24,323.01c1.72-1,4.03-1.55,6.51-1.55c2.48,0,4.8,0.55,6.53,1.55c0.95,0.55,1.63,1.18,2.02,1.85
			c0-0.04,0.01-0.09,0.01-0.13c0-1.14-0.85-2.26-2.4-3.15c-1.73-1-4.05-1.55-6.53-1.55c-2.48,0-4.79,0.55-6.51,1.55
			c-1.52,0.88-2.36,1.99-2.35,3.12c0,0.44,0.13,0.88,0.38,1.3C329.95,324.91,330.78,323.86,332.24,323.01"/>
		<path class="st5" d="M338.39,326.06c-0.68,0-1.84-0.55-1.84-1.23l0.61-18.45c0-0.68,0.55-1.23,1.23-1.23
			c0.68,0,1.23,0.55,1.23,1.23l0.61,18.45C340.23,325.51,339.07,326.06,338.39,326.06"/>
		<path class="st11" d="M340.07,319.86l-0.45-13.48c0-0.68-0.55-1.23-1.23-1.23c-0.68,0-1.23,0.55-1.23,1.23l-0.47,14.32
			C337.66,320.14,338.88,319.86,340.07,319.86"/>
		<path class="st9" d="M344.37,314.16C344.36,314.16,344.36,314.16,344.37,314.16c0.44-0.89,0.7-1.91,0.7-2.98
			c0-3.68-2.99-17.12-6.67-17.12c-3.69,0-6.67,13.44-6.67,17.12c0,1.08,0.26,2.09,0.71,2.99c0,0-0.01,0-0.01-0.01
			c0.01,0.02,0.02,0.04,0.03,0.06c0.26,0.5,0.58,0.97,0.95,1.39c0.03,0.04,0.06,0.07,0.1,0.11c0.38,0.41,0.81,0.78,1.29,1.08
			c0.04,0.03,0.09,0.05,0.13,0.08c0.2,0.12,0.41,0.24,0.63,0.34c0.05,0.02,0.09,0.05,0.14,0.07c0.25,0.11,0.51,0.21,0.78,0.29
			c0.04,0.01,0.09,0.02,0.14,0.04c0.23,0.06,0.46,0.11,0.69,0.15c0.08,0.01,0.15,0.02,0.23,0.03c0.28,0.04,0.57,0.06,0.86,0.06
			c0.29,0,0.58-0.03,0.86-0.06c0.08-0.01,0.15-0.02,0.22-0.03c0.24-0.04,0.47-0.09,0.69-0.15c0.04-0.01,0.09-0.02,0.14-0.04
			c0.27-0.08,0.53-0.18,0.79-0.29c0.05-0.02,0.09-0.04,0.14-0.07c0.22-0.1,0.43-0.22,0.63-0.34c0.04-0.03,0.09-0.05,0.13-0.08
			c0.24-0.15,0.47-0.32,0.69-0.5c0,0,0,0,0,0c0.21-0.18,0.41-0.37,0.6-0.57c0.03-0.04,0.07-0.08,0.1-0.11
			c0.37-0.42,0.69-0.88,0.95-1.38C344.34,314.19,344.36,314.18,344.37,314.16z"/>
		<g>
			<defs>
				<path id="SVGID_7_" d="M328.39,326.95c0,1.49,0.98,2.99,2.96,4.13c3.92,2.26,10.26,2.26,14.16,0c1.94-1.13,2.9-2.6,2.91-4.07
					l0-2.04c0,1.48-0.97,2.95-2.91,4.07c-3.89,2.26-10.23,2.26-14.16,0c-1.97-1.14-2.96-2.64-2.95-4.13L328.39,326.95z"/>
			</defs>
			<clipPath id="SVGID_8_">
				<use xlink:href="#SVGID_7_"  style="overflow:visible;"/>
			</clipPath>
			<path class="st18" d="M348.42,324.97l0,2.04c0,1.47-0.97,2.95-2.91,4.07c-3.89,2.26-10.23,2.26-14.16,0
				c-1.97-1.14-2.96-2.63-2.96-4.13l0.01-2.04c0,1.49,0.98,2.99,2.95,4.13c3.92,2.26,10.26,2.26,14.16,0
				C347.44,327.92,348.41,326.44,348.42,324.97"/>
		</g>
	</g>
	<g>
		<path class="st8" d="M384.46,321.84c3.92,2.27,3.94,5.94,0.05,8.2c-3.89,2.26-10.23,2.26-14.16,0c-3.92-2.26-3.94-5.93-0.04-8.2
			C374.2,319.58,380.54,319.58,384.46,321.84"/>
		<path class="st9" d="M377.44,330.39c-2.48,0-4.8-0.55-6.53-1.55c-1.54-0.89-2.39-2.01-2.4-3.15c0-1.13,0.83-2.24,2.35-3.12
			c1.72-1,4.03-1.55,6.51-1.55c2.48,0,4.8,0.55,6.53,1.55c1.55,0.89,2.4,2.01,2.4,3.15c0,1.13-0.83,2.24-2.36,3.12
			C382.23,329.84,379.92,330.39,377.44,330.39"/>
		<path class="st10" d="M371.24,324.01c1.72-1,4.03-1.55,6.51-1.55c2.48,0,4.8,0.55,6.53,1.55c0.95,0.55,1.63,1.18,2.02,1.85
			c0-0.04,0.01-0.09,0.01-0.13c0-1.14-0.85-2.26-2.4-3.15c-1.73-1-4.05-1.55-6.53-1.55c-2.48,0-4.79,0.55-6.51,1.55
			c-1.52,0.88-2.36,1.99-2.35,3.12c0,0.44,0.13,0.88,0.38,1.3C368.95,325.91,369.78,324.86,371.24,324.01"/>
		<path class="st5" d="M377.39,327.06c-0.68,0-1.84-0.55-1.84-1.23l0.61-18.45c0-0.68,0.55-1.23,1.23-1.23
			c0.68,0,1.23,0.55,1.23,1.23l0.61,18.45C379.23,326.51,378.07,327.06,377.39,327.06"/>
		<path class="st11" d="M379.07,320.86l-0.45-13.48c0-0.68-0.55-1.23-1.23-1.23c-0.68,0-1.23,0.55-1.23,1.23l-0.47,14.32
			C376.66,321.14,377.88,320.86,379.07,320.86"/>
		<path class="st9" d="M383.37,315.16C383.36,315.16,383.36,315.16,383.37,315.16c0.44-0.89,0.7-1.91,0.7-2.98
			c0-3.68-2.99-17.12-6.67-17.12c-3.69,0-6.67,13.44-6.67,17.12c0,1.08,0.26,2.09,0.71,2.99c0,0-0.01,0-0.01-0.01
			c0.01,0.02,0.02,0.04,0.03,0.06c0.26,0.5,0.58,0.97,0.95,1.39c0.03,0.04,0.06,0.07,0.1,0.11c0.38,0.41,0.81,0.78,1.29,1.08
			c0.04,0.03,0.09,0.05,0.13,0.08c0.2,0.12,0.41,0.24,0.63,0.34c0.05,0.02,0.09,0.05,0.14,0.07c0.25,0.11,0.51,0.21,0.78,0.29
			c0.04,0.01,0.09,0.02,0.14,0.04c0.23,0.06,0.46,0.11,0.69,0.15c0.08,0.01,0.15,0.02,0.23,0.03c0.28,0.04,0.57,0.06,0.86,0.06
			c0.29,0,0.58-0.03,0.86-0.06c0.08-0.01,0.15-0.02,0.22-0.03c0.24-0.04,0.47-0.09,0.69-0.15c0.04-0.01,0.09-0.02,0.14-0.04
			c0.27-0.08,0.53-0.18,0.79-0.29c0.05-0.02,0.09-0.04,0.14-0.07c0.22-0.1,0.43-0.22,0.63-0.34c0.04-0.03,0.09-0.05,0.13-0.08
			c0.24-0.15,0.47-0.32,0.69-0.5c0,0,0,0,0,0c0.21-0.18,0.41-0.37,0.6-0.57c0.03-0.04,0.07-0.08,0.1-0.11
			c0.37-0.42,0.69-0.88,0.95-1.38C383.34,315.19,383.36,315.18,383.37,315.16z"/>
		<g>
			<defs>
				<path id="SVGID_9_" d="M367.39,327.95c0,1.49,0.98,2.99,2.96,4.13c3.92,2.26,10.26,2.26,14.16,0c1.94-1.13,2.9-2.6,2.91-4.07
					l0-2.04c0,1.48-0.97,2.95-2.91,4.07c-3.89,2.26-10.23,2.26-14.16,0c-1.97-1.14-2.96-2.64-2.95-4.13L367.39,327.95z"/>
			</defs>
			<clipPath id="SVGID_10_">
				<use xlink:href="#SVGID_9_"  style="overflow:visible;"/>
			</clipPath>
			<path class="st19" d="M387.42,325.97l0,2.04c0,1.47-0.97,2.95-2.91,4.07c-3.89,2.26-10.23,2.26-14.16,0
				c-1.97-1.14-2.96-2.63-2.96-4.13l0.01-2.04c0,1.49,0.98,2.99,2.95,4.13c3.92,2.26,10.26,2.26,14.16,0
				C386.44,328.92,387.41,327.44,387.42,325.97"/>
		</g>
	</g>
	<g>
		<path class="st8" d="M425.46,320.84c3.92,2.27,3.94,5.94,0.05,8.2c-3.89,2.26-10.23,2.26-14.16,0c-3.92-2.26-3.94-5.93-0.04-8.2
			C415.2,318.58,421.54,318.58,425.46,320.84"/>
		<path class="st9" d="M418.44,329.39c-2.48,0-4.8-0.55-6.53-1.55c-1.54-0.89-2.39-2.01-2.4-3.15c0-1.13,0.83-2.24,2.35-3.12
			c1.72-1,4.03-1.55,6.51-1.55c2.48,0,4.8,0.55,6.53,1.55c1.55,0.89,2.4,2.01,2.4,3.15c0,1.13-0.83,2.24-2.36,3.12
			C423.23,328.84,420.92,329.39,418.44,329.39"/>
		<path class="st10" d="M412.24,323.01c1.72-1,4.03-1.55,6.51-1.55c2.48,0,4.8,0.55,6.53,1.55c0.95,0.55,1.63,1.18,2.02,1.85
			c0-0.04,0.01-0.09,0.01-0.13c0-1.14-0.85-2.26-2.4-3.15c-1.73-1-4.05-1.55-6.53-1.55c-2.48,0-4.79,0.55-6.51,1.55
			c-1.52,0.88-2.36,1.99-2.35,3.12c0,0.44,0.13,0.88,0.38,1.3C409.95,324.91,410.78,323.86,412.24,323.01"/>
		<path class="st5" d="M418.39,326.06c-0.68,0-1.84-0.55-1.84-1.23l0.61-18.45c0-0.68,0.55-1.23,1.23-1.23
			c0.68,0,1.23,0.55,1.23,1.23l0.61,18.45C420.23,325.51,419.07,326.06,418.39,326.06"/>
		<path class="st11" d="M420.07,319.86l-0.45-13.48c0-0.68-0.55-1.23-1.23-1.23c-0.68,0-1.23,0.55-1.23,1.23l-0.47,14.32
			C417.66,320.14,418.88,319.86,420.07,319.86"/>
		<path class="st9" d="M424.37,314.16C424.36,314.16,424.36,314.16,424.37,314.16c0.44-0.89,0.7-1.91,0.7-2.98
			c0-3.68-2.99-17.12-6.67-17.12c-3.69,0-6.67,13.44-6.67,17.12c0,1.08,0.26,2.09,0.71,2.99c0,0-0.01,0-0.01-0.01
			c0.01,0.02,0.02,0.04,0.03,0.06c0.26,0.5,0.58,0.97,0.95,1.39c0.03,0.04,0.06,0.07,0.1,0.11c0.38,0.41,0.81,0.78,1.29,1.08
			c0.04,0.03,0.09,0.05,0.13,0.08c0.2,0.12,0.41,0.24,0.63,0.34c0.05,0.02,0.09,0.05,0.14,0.07c0.25,0.11,0.51,0.21,0.78,0.29
			c0.04,0.01,0.09,0.02,0.14,0.04c0.23,0.06,0.46,0.11,0.69,0.15c0.08,0.01,0.15,0.02,0.23,0.03c0.28,0.04,0.57,0.06,0.86,0.06
			c0.29,0,0.58-0.03,0.86-0.06c0.08-0.01,0.15-0.02,0.22-0.03c0.24-0.04,0.47-0.09,0.69-0.15c0.04-0.01,0.09-0.02,0.14-0.04
			c0.27-0.08,0.53-0.18,0.79-0.29c0.05-0.02,0.09-0.04,0.14-0.07c0.22-0.1,0.43-0.22,0.63-0.34c0.04-0.03,0.09-0.05,0.13-0.08
			c0.24-0.15,0.47-0.32,0.69-0.5c0,0,0,0,0,0c0.21-0.18,0.41-0.37,0.6-0.57c0.03-0.04,0.07-0.08,0.1-0.11
			c0.37-0.42,0.69-0.88,0.95-1.38C424.34,314.19,424.36,314.18,424.37,314.16z"/>
		<g>
			<defs>
				<path id="SVGID_11_" d="M408.39,326.95c0,1.49,0.98,2.99,2.96,4.13c3.92,2.26,10.26,2.26,14.16,0c1.94-1.13,2.9-2.6,2.91-4.07
					l0-2.04c0,1.48-0.97,2.95-2.91,4.07c-3.89,2.26-10.23,2.26-14.16,0c-1.97-1.14-2.96-2.64-2.95-4.13L408.39,326.95z"/>
			</defs>
			<clipPath id="SVGID_12_">
				<use xlink:href="#SVGID_11_"  style="overflow:visible;"/>
			</clipPath>
			<path class="st20" d="M428.42,324.97l0,2.04c0,1.47-0.97,2.95-2.91,4.07c-3.89,2.26-10.23,2.26-14.16,0
				c-1.97-1.14-2.96-2.63-2.96-4.13l0.01-2.04c0,1.49,0.98,2.99,2.95,4.13c3.92,2.26,10.26,2.26,14.16,0
				C427.44,327.92,428.41,326.44,428.42,324.97"/>
		</g>
	</g>
	<g>
		<path class="st8" d="M504.46,310.84c3.92,2.27,3.94,5.94,0.05,8.2c-3.89,2.26-10.23,2.26-14.16,0c-3.92-2.26-3.94-5.93-0.04-8.2
			C494.2,308.58,500.54,308.58,504.46,310.84"/>
		<path class="st9" d="M497.44,319.39c-2.48,0-4.8-0.55-6.53-1.55c-1.54-0.89-2.39-2.01-2.4-3.15c0-1.13,0.83-2.24,2.35-3.12
			c1.72-1,4.03-1.55,6.51-1.55c2.48,0,4.8,0.55,6.53,1.55c1.55,0.89,2.4,2.01,2.4,3.15c0,1.13-0.83,2.24-2.36,3.12
			C502.23,318.84,499.92,319.39,497.44,319.39"/>
		<path class="st10" d="M491.24,313.01c1.72-1,4.03-1.55,6.51-1.55c2.48,0,4.8,0.55,6.53,1.55c0.95,0.55,1.63,1.18,2.02,1.85
			c0-0.04,0.01-0.09,0.01-0.13c0-1.14-0.85-2.26-2.4-3.15c-1.73-1-4.05-1.55-6.53-1.55c-2.48,0-4.79,0.55-6.51,1.55
			c-1.52,0.88-2.36,1.99-2.35,3.12c0,0.44,0.13,0.88,0.38,1.3C488.95,314.91,489.78,313.86,491.24,313.01"/>
		<path class="st5" d="M497.39,316.06c-0.68,0-1.84-0.55-1.84-1.23l0.61-18.45c0-0.68,0.55-1.23,1.23-1.23
			c0.68,0,1.23,0.55,1.23,1.23l0.61,18.45C499.23,315.51,498.07,316.06,497.39,316.06"/>
		<path class="st11" d="M499.07,309.86l-0.45-13.48c0-0.68-0.55-1.23-1.23-1.23c-0.68,0-1.23,0.55-1.23,1.23l-0.47,14.32
			C496.66,310.14,497.88,309.86,499.07,309.86"/>
		<path class="st9" d="M503.37,304.16C503.36,304.16,503.36,304.16,503.37,304.16c0.44-0.89,0.7-1.91,0.7-2.98
			c0-3.68-2.99-17.12-6.67-17.12c-3.69,0-6.67,13.44-6.67,17.12c0,1.08,0.26,2.09,0.71,2.99c0,0-0.01,0-0.01-0.01
			c0.01,0.02,0.02,0.04,0.03,0.06c0.26,0.5,0.58,0.97,0.95,1.39c0.03,0.04,0.06,0.07,0.1,0.11c0.38,0.41,0.81,0.78,1.29,1.08
			c0.04,0.03,0.09,0.05,0.13,0.08c0.2,0.12,0.41,0.24,0.63,0.34c0.05,0.02,0.09,0.05,0.14,0.07c0.25,0.11,0.51,0.21,0.78,0.29
			c0.04,0.01,0.09,0.02,0.14,0.04c0.23,0.06,0.46,0.11,0.69,0.15c0.08,0.01,0.15,0.02,0.23,0.03c0.28,0.04,0.57,0.06,0.86,0.06
			c0.29,0,0.58-0.03,0.86-0.06c0.08-0.01,0.15-0.02,0.22-0.03c0.24-0.04,0.47-0.09,0.69-0.15c0.04-0.01,0.09-0.02,0.14-0.04
			c0.27-0.08,0.53-0.18,0.79-0.29c0.05-0.02,0.09-0.04,0.14-0.07c0.22-0.1,0.43-0.22,0.63-0.34c0.04-0.03,0.09-0.05,0.13-0.08
			c0.24-0.15,0.47-0.32,0.69-0.5c0,0,0,0,0,0c0.21-0.18,0.41-0.37,0.6-0.57c0.03-0.04,0.07-0.08,0.1-0.11
			c0.37-0.42,0.69-0.88,0.95-1.38C503.34,304.19,503.36,304.18,503.37,304.16z"/>
		<g>
			<defs>
				<path id="SVGID_13_" d="M487.39,316.95c0,1.49,0.98,2.99,2.96,4.13c3.92,2.26,10.26,2.26,14.16,0c1.94-1.13,2.9-2.6,2.91-4.07
					l0-2.04c0,1.48-0.97,2.95-2.91,4.07c-3.89,2.26-10.23,2.26-14.16,0c-1.97-1.14-2.96-2.64-2.95-4.13L487.39,316.95z"/>
			</defs>
			<clipPath id="SVGID_14_">
				<use xlink:href="#SVGID_13_"  style="overflow:visible;"/>
			</clipPath>
			<path class="st21" d="M507.42,314.97l0,2.04c0,1.47-0.97,2.95-2.91,4.07c-3.89,2.26-10.23,2.26-14.16,0
				c-1.97-1.14-2.96-2.63-2.96-4.13l0.01-2.04c0,1.49,0.98,2.99,2.95,4.13c3.92,2.26,10.26,2.26,14.16,0
				C506.44,317.92,507.41,316.44,507.42,314.97"/>
		</g>
	</g>
	<g>
		<path class="st8" d="M466.46,318.84c3.92,2.27,3.94,5.94,0.05,8.2c-3.89,2.26-10.23,2.26-14.16,0c-3.92-2.26-3.94-5.93-0.04-8.2
			C456.2,316.58,462.54,316.58,466.46,318.84"/>
		<path class="st9" d="M459.44,327.39c-2.48,0-4.8-0.55-6.53-1.55c-1.54-0.89-2.39-2.01-2.4-3.15c0-1.13,0.83-2.24,2.35-3.12
			c1.72-1,4.03-1.55,6.51-1.55c2.48,0,4.8,0.55,6.53,1.55c1.55,0.89,2.4,2.01,2.4,3.15c0,1.13-0.83,2.24-2.36,3.12
			C464.23,326.84,461.92,327.39,459.44,327.39"/>
		<path class="st10" d="M453.24,321.01c1.72-1,4.03-1.55,6.51-1.55c2.48,0,4.8,0.55,6.53,1.55c0.95,0.55,1.63,1.18,2.02,1.85
			c0-0.04,0.01-0.09,0.01-0.13c0-1.14-0.85-2.26-2.4-3.15c-1.73-1-4.05-1.55-6.53-1.55c-2.48,0-4.79,0.55-6.51,1.55
			c-1.52,0.88-2.36,1.99-2.35,3.12c0,0.44,0.13,0.88,0.38,1.3C450.95,322.91,451.78,321.86,453.24,321.01"/>
		<path class="st5" d="M459.39,324.06c-0.68,0-1.84-0.55-1.84-1.23l0.61-18.45c0-0.68,0.55-1.23,1.23-1.23
			c0.68,0,1.23,0.55,1.23,1.23l0.61,18.45C461.23,323.51,460.07,324.06,459.39,324.06"/>
		<path class="st11" d="M461.07,317.86l-0.45-13.48c0-0.68-0.55-1.23-1.23-1.23c-0.68,0-1.23,0.55-1.23,1.23l-0.47,14.32
			C458.66,318.14,459.88,317.86,461.07,317.86"/>
		<path class="st9" d="M465.37,312.16C465.36,312.16,465.36,312.16,465.37,312.16c0.44-0.89,0.7-1.91,0.7-2.98
			c0-3.68-2.99-17.12-6.67-17.12c-3.69,0-6.67,13.44-6.67,17.12c0,1.08,0.26,2.09,0.71,2.99c0,0-0.01,0-0.01-0.01
			c0.01,0.02,0.02,0.04,0.03,0.06c0.26,0.5,0.58,0.97,0.95,1.39c0.03,0.04,0.06,0.07,0.1,0.11c0.38,0.41,0.81,0.78,1.29,1.08
			c0.04,0.03,0.09,0.05,0.13,0.08c0.2,0.12,0.41,0.24,0.63,0.34c0.05,0.02,0.09,0.05,0.14,0.07c0.25,0.11,0.51,0.21,0.78,0.29
			c0.04,0.01,0.09,0.02,0.14,0.04c0.23,0.06,0.46,0.11,0.69,0.15c0.08,0.01,0.15,0.02,0.23,0.03c0.28,0.04,0.57,0.06,0.86,0.06
			c0.29,0,0.58-0.03,0.86-0.06c0.08-0.01,0.15-0.02,0.22-0.03c0.24-0.04,0.47-0.09,0.69-0.15c0.04-0.01,0.09-0.02,0.14-0.04
			c0.27-0.08,0.53-0.18,0.79-0.29c0.05-0.02,0.09-0.04,0.14-0.07c0.22-0.1,0.43-0.22,0.63-0.34c0.04-0.03,0.09-0.05,0.13-0.08
			c0.24-0.15,0.47-0.32,0.69-0.5c0,0,0,0,0,0c0.21-0.18,0.41-0.37,0.6-0.57c0.03-0.04,0.07-0.08,0.1-0.11
			c0.37-0.42,0.69-0.88,0.95-1.38C465.34,312.19,465.36,312.18,465.37,312.16z"/>
		<g>
			<defs>
				<path id="SVGID_15_" d="M449.39,324.95c0,1.49,0.98,2.99,2.96,4.13c3.92,2.26,10.26,2.26,14.16,0c1.94-1.13,2.9-2.6,2.91-4.07
					l0-2.04c0,1.48-0.97,2.95-2.91,4.07c-3.89,2.26-10.23,2.26-14.16,0c-1.97-1.14-2.96-2.64-2.95-4.13L449.39,324.95z"/>
			</defs>
			<clipPath id="SVGID_16_">
				<use xlink:href="#SVGID_15_"  style="overflow:visible;"/>
			</clipPath>
			<path class="st22" d="M469.42,322.97l0,2.04c0,1.47-0.97,2.95-2.91,4.07c-3.89,2.26-10.23,2.26-14.16,0
				c-1.97-1.14-2.96-2.63-2.96-4.13l0.01-2.04c0,1.49,0.98,2.99,2.95,4.13c3.92,2.26,10.26,2.26,14.16,0
				C468.44,325.92,469.41,324.44,469.42,322.97"/>
		</g>
	</g>
	<g>
		<path class="st8" d="M539.46,300.84c3.92,2.27,3.94,5.94,0.05,8.2c-3.89,2.26-10.23,2.26-14.16,0c-3.92-2.26-3.94-5.93-0.04-8.2
			C529.2,298.58,535.54,298.58,539.46,300.84"/>
		<path class="st9" d="M532.44,309.39c-2.48,0-4.8-0.55-6.53-1.55c-1.54-0.89-2.39-2.01-2.4-3.15c0-1.13,0.83-2.24,2.35-3.12
			c1.72-1,4.03-1.55,6.51-1.55c2.48,0,4.8,0.55,6.53,1.55c1.55,0.89,2.4,2.01,2.4,3.15c0,1.13-0.83,2.24-2.36,3.12
			C537.23,308.84,534.92,309.39,532.44,309.39"/>
		<path class="st10" d="M526.24,303.01c1.72-1,4.03-1.55,6.51-1.55c2.48,0,4.8,0.55,6.53,1.55c0.95,0.55,1.63,1.18,2.02,1.85
			c0-0.04,0.01-0.09,0.01-0.13c0-1.14-0.85-2.26-2.4-3.15c-1.73-1-4.05-1.55-6.53-1.55c-2.48,0-4.79,0.55-6.51,1.55
			c-1.52,0.88-2.36,1.99-2.35,3.12c0,0.44,0.13,0.88,0.38,1.3C523.95,304.91,524.78,303.86,526.24,303.01"/>
		<path class="st5" d="M532.39,306.06c-0.68,0-1.84-0.55-1.84-1.23l0.61-18.45c0-0.68,0.55-1.23,1.23-1.23
			c0.68,0,1.23,0.55,1.23,1.23l0.61,18.45C534.23,305.51,533.07,306.06,532.39,306.06"/>
		<path class="st11" d="M534.07,299.86l-0.45-13.48c0-0.68-0.55-1.23-1.23-1.23c-0.68,0-1.23,0.55-1.23,1.23l-0.47,14.32
			C531.66,300.14,532.88,299.86,534.07,299.86"/>
		<path class="st9" d="M538.37,294.16C538.36,294.16,538.36,294.16,538.37,294.16c0.44-0.89,0.7-1.91,0.7-2.98
			c0-3.68-2.99-17.12-6.67-17.12c-3.69,0-6.67,13.44-6.67,17.12c0,1.08,0.26,2.09,0.71,2.99c0,0-0.01,0-0.01-0.01
			c0.01,0.02,0.02,0.04,0.03,0.06c0.26,0.5,0.58,0.97,0.95,1.39c0.03,0.04,0.06,0.07,0.1,0.11c0.38,0.41,0.81,0.78,1.29,1.08
			c0.04,0.03,0.09,0.05,0.13,0.08c0.2,0.12,0.41,0.24,0.63,0.34c0.05,0.02,0.09,0.05,0.14,0.07c0.25,0.11,0.51,0.21,0.78,0.29
			c0.04,0.01,0.09,0.02,0.14,0.04c0.23,0.06,0.46,0.11,0.69,0.15c0.08,0.01,0.15,0.02,0.23,0.03c0.28,0.04,0.57,0.06,0.86,0.06
			c0.29,0,0.58-0.03,0.86-0.06c0.08-0.01,0.15-0.02,0.22-0.03c0.24-0.04,0.47-0.09,0.69-0.15c0.04-0.01,0.09-0.02,0.14-0.04
			c0.27-0.08,0.53-0.18,0.79-0.29c0.05-0.02,0.09-0.04,0.14-0.07c0.22-0.1,0.43-0.22,0.63-0.34c0.04-0.03,0.09-0.05,0.13-0.08
			c0.24-0.15,0.47-0.32,0.69-0.5c0,0,0,0,0,0c0.21-0.18,0.41-0.37,0.6-0.57c0.03-0.04,0.07-0.08,0.1-0.11
			c0.37-0.42,0.69-0.88,0.95-1.38C538.34,294.19,538.36,294.18,538.37,294.16z"/>
		<g>
			<defs>
				<path id="SVGID_17_" d="M522.39,306.95c0,1.49,0.98,2.99,2.96,4.13c3.92,2.26,10.26,2.26,14.16,0c1.94-1.13,2.9-2.6,2.91-4.07
					l0-2.04c0,1.48-0.97,2.95-2.91,4.07c-3.89,2.26-10.23,2.26-14.16,0c-1.97-1.14-2.96-2.64-2.95-4.13L522.39,306.95z"/>
			</defs>
			<clipPath id="SVGID_18_">
				<use xlink:href="#SVGID_17_"  style="overflow:visible;"/>
			</clipPath>
			<path class="st23" d="M542.42,304.97l0,2.04c0,1.47-0.97,2.95-2.91,4.07c-3.89,2.26-10.23,2.26-14.16,0
				c-1.97-1.14-2.96-2.63-2.96-4.13l0.01-2.04c0,1.49,0.98,2.99,2.95,4.13c3.92,2.26,10.26,2.26,14.16,0
				C541.44,307.92,542.41,306.44,542.42,304.97"/>
		</g>
	</g>
	<g>
		<path class="st8" d="M573.46,288.84c3.92,2.27,3.94,5.94,0.05,8.2c-3.89,2.26-10.23,2.26-14.16,0c-3.92-2.26-3.94-5.93-0.04-8.2
			C563.2,286.58,569.54,286.58,573.46,288.84"/>
		<path class="st9" d="M566.44,297.39c-2.48,0-4.8-0.55-6.53-1.55c-1.54-0.89-2.39-2.01-2.4-3.15c0-1.13,0.83-2.24,2.35-3.12
			c1.72-1,4.03-1.55,6.51-1.55c2.48,0,4.8,0.55,6.53,1.55c1.55,0.89,2.4,2.01,2.4,3.15c0,1.13-0.83,2.24-2.36,3.12
			C571.23,296.84,568.92,297.39,566.44,297.39"/>
		<path class="st10" d="M560.24,291.01c1.72-1,4.03-1.55,6.51-1.55c2.48,0,4.8,0.55,6.53,1.55c0.95,0.55,1.63,1.18,2.02,1.85
			c0-0.04,0.01-0.09,0.01-0.13c0-1.14-0.85-2.26-2.4-3.15c-1.73-1-4.05-1.55-6.53-1.55c-2.48,0-4.79,0.55-6.51,1.55
			c-1.52,0.88-2.36,1.99-2.35,3.12c0,0.44,0.13,0.88,0.38,1.3C557.95,292.91,558.78,291.86,560.24,291.01"/>
		<path class="st5" d="M566.39,294.06c-0.68,0-1.84-0.55-1.84-1.23l0.61-18.45c0-0.68,0.55-1.23,1.23-1.23
			c0.68,0,1.23,0.55,1.23,1.23l0.61,18.45C568.23,293.51,567.07,294.06,566.39,294.06"/>
		<path class="st11" d="M568.07,287.86l-0.45-13.48c0-0.68-0.55-1.23-1.23-1.23c-0.68,0-1.23,0.55-1.23,1.23l-0.47,14.32
			C565.66,288.14,566.88,287.86,568.07,287.86"/>
		<path class="st9" d="M572.37,282.16C572.36,282.16,572.36,282.16,572.37,282.16c0.44-0.89,0.7-1.91,0.7-2.98
			c0-3.68-2.99-17.12-6.67-17.12c-3.69,0-6.67,13.44-6.67,17.12c0,1.08,0.26,2.09,0.71,2.99c0,0-0.01,0-0.01-0.01
			c0.01,0.02,0.02,0.04,0.03,0.06c0.26,0.5,0.58,0.97,0.95,1.39c0.03,0.04,0.06,0.07,0.1,0.11c0.38,0.41,0.81,0.78,1.29,1.08
			c0.04,0.03,0.09,0.05,0.13,0.08c0.2,0.12,0.41,0.24,0.63,0.34c0.05,0.02,0.09,0.05,0.14,0.07c0.25,0.11,0.51,0.21,0.78,0.29
			c0.04,0.01,0.09,0.02,0.14,0.04c0.23,0.06,0.46,0.11,0.69,0.15c0.08,0.01,0.15,0.02,0.23,0.03c0.28,0.04,0.57,0.06,0.86,0.06
			c0.29,0,0.58-0.03,0.86-0.06c0.08-0.01,0.15-0.02,0.22-0.03c0.24-0.04,0.47-0.09,0.69-0.15c0.04-0.01,0.09-0.02,0.14-0.04
			c0.27-0.08,0.53-0.18,0.79-0.29c0.05-0.02,0.09-0.04,0.14-0.07c0.22-0.1,0.43-0.22,0.63-0.34c0.04-0.03,0.09-0.05,0.13-0.08
			c0.24-0.15,0.47-0.32,0.69-0.5c0,0,0,0,0,0c0.21-0.18,0.41-0.37,0.6-0.57c0.03-0.04,0.07-0.08,0.1-0.11
			c0.37-0.42,0.69-0.88,0.95-1.38C572.34,282.19,572.36,282.18,572.37,282.16z"/>
		<g>
			<defs>
				<path id="SVGID_19_" d="M556.39,294.95c0,1.49,0.98,2.99,2.96,4.13c3.92,2.26,10.26,2.26,14.16,0c1.94-1.13,2.9-2.6,2.91-4.07
					l0-2.04c0,1.48-0.97,2.95-2.91,4.07c-3.89,2.26-10.23,2.26-14.16,0c-1.97-1.14-2.96-2.64-2.95-4.13L556.39,294.95z"/>
			</defs>
			<clipPath id="SVGID_20_">
				<use xlink:href="#SVGID_19_"  style="overflow:visible;"/>
			</clipPath>
			<path class="st24" d="M576.42,292.97l0,2.04c0,1.47-0.97,2.95-2.91,4.07c-3.89,2.26-10.23,2.26-14.16,0
				c-1.97-1.14-2.96-2.63-2.96-4.13l0.01-2.04c0,1.49,0.98,2.99,2.95,4.13c3.92,2.26,10.26,2.26,14.16,0
				C575.44,295.92,576.41,294.44,576.42,292.97"/>
		</g>
	</g>
	<g class="st14">
		<polygon class="st2" points="237.38,317.66 244.38,321.95 244.38,308.43 237.38,304.12 		"/>
		<polygon class="st2" points="253.38,346.42 253.38,334.23 245.38,329.58 245.38,341.78 		"/>
		<polygon class="st2" points="236.38,344.05 230.38,340.48 230.38,352.04 236.38,355.62 		"/>
		<polygon class="st2" points="244.38,341.42 244.38,329.23 237.38,324.94 237.38,337.13 		"/>
		<polygon class="st2" points="244.38,348.7 237.38,344.41 237.38,355.98 244.38,360.27 		"/>
		<polygon class="st2" points="254.38,365.63 262.38,370.63 262.38,359.07 254.38,354.06 		"/>
		<polygon class="st2" points="236.38,324.58 230.38,321 230.38,333.2 236.38,336.77 		"/>
		<polygon class="st2" points="245.38,308.79 245.38,322.3 253.38,326.95 253.38,313.46 		"/>
		<polygon class="st2" points="254.38,327.31 262.38,332.31 262.38,318.84 254.38,313.81 		"/>
		<polygon class="st2" points="236.38,362.9 230.38,359.32 230.38,369.34 236.38,373.29 		"/>
		<polygon class="st2" points="236.38,317.3 236.38,303.76 230.38,300.16 230.38,313.72 		"/>
		<polygon class="st2" points="254.38,372.91 254.38,384.34 262.38,389.86 262.38,377.91 		"/>
		<polygon class="st2" points="244.38,378.42 244.38,367.55 237.38,363.26 237.38,373.68 		"/>
		<polygon class="st2" points="253.38,372.55 245.38,367.9 245.38,378.81 253.38,383.94 		"/>
		<polygon class="st2" points="253.38,388.55 245.38,383.9 245.38,394.81 253.38,399.94 		"/>
		<polygon class="st2" points="254.38,346.78 262.38,351.79 262.38,339.59 254.38,334.59 		"/>
		<polygon class="st2" points="245.38,349.06 245.38,360.62 253.38,365.27 253.38,353.71 		"/>
	</g>
	<g class="st14">
		<polygon class="st2" points="574.38,549.95 574.38,526.84 566.38,529.39 566.38,552.54 		"/>
		<polygon class="st2" points="566.38,521.48 574.38,518.89 574.38,493.45 566.38,496.08 		"/>
		<polygon class="st2" points="565.38,560.95 557.38,563.5 557.38,591.14 565.38,588.55 		"/>
		<polygon class="st2" points="584.38,581.81 592.38,579.22 592.38,551.78 584.38,554.32 		"/>
		<polygon class="st2" points="583.38,546.84 583.38,523.78 575.38,526.33 575.38,549.43 		"/>
		<polygon class="st2" points="574.38,557.89 566.38,560.44 566.38,588.03 574.38,585.44 		"/>
		<polygon class="st2" points="565.38,529.9 557.38,532.45 557.38,555.65 565.38,553.06 		"/>
		<polygon class="st2" points="575.38,492.92 575.38,518.38 583.38,515.78 583.38,490.29 		"/>
		<polygon class="st2" points="583.38,590.33 575.38,592.87 575.38,616.32 583.38,613.52 		"/>
		<polygon class="st2" points="565.38,596.44 557.38,598.99 557.38,623.03 565.38,620.23 		"/>
		<polygon class="st2" points="574.38,616.88 574.38,593.38 566.38,595.93 566.38,619.67 		"/>
		<polygon class="st2" points="584.38,589.82 584.38,612.96 592.38,610.17 592.38,587.27 		"/>
		<polygon class="st2" points="565.38,522 565.38,496.61 557.38,499.24 557.38,500.74 557.38,524.59 		"/>
		<polygon class="st2" points="584.38,515.26 592.38,512.67 592.38,487.13 584.38,489.76 		"/>
		<polygon class="st2" points="575.38,557.38 575.38,584.92 583.38,582.33 583.38,554.83 		"/>
		<polygon class="st2" points="584.38,546.32 592.38,543.73 592.38,520.72 584.38,523.27 		"/>
	</g>
	<polygon class="st13" points="518.38,613.85 505.38,606.45 505.38,624.82 518.38,632.98 	"/>
	<circle class="st2" cx="516.5" cy="622.71" r="0.56"/>
</g>
<g id="nuage">
	<path class="st0" d="M143.5,474.45c-18.32,7.19-33.57,28.58-34.04,47.77c-0.09,3.66,0.38,6.97,1.3,9.91
		c-4.64,2.32-8.34,7.85-8.46,12.82c-0.02,0.9,0.1,1.72,0.29,2.46c-11.23,5.46-20.25,18.75-20.54,30.75
		c-0.31,12.71,9.29,19.14,21.44,14.38l50.79-19.94l32.71-12.85l58.57-23L278.04,524l97.99-38.47l27.53-10.81l30.87-12.12
		c7.25-2.85,13.28-11.3,13.46-18.89c0.18-7.58-5.54-11.42-12.79-8.58l-3.2,1.26c-1.24,0.49-2.45,1.15-3.61,1.93
		c-0.93-11.78-10.6-17.45-22.64-12.72c-6.51,2.56-12.45,7.66-16.79,13.81c-1.41,0.1-2.9,0.45-4.46,1.06
		c-4.92,1.93-9.33,6.12-12.16,11c-2.78-1.21-6.21-1.37-9.99-0.24c0.21-0.79,0.34-1.59,0.36-2.38c0.1-4.34-2.95-6.68-6.99-5.55
		c1.15-3.93,1.72-7.89,1.57-11.73c-0.59-14.81-12.17-22.41-26.69-17.5c-0.51,0.18-1.02,0.36-1.53,0.56
		c-13.15,5.17-24.47,18.68-28.32,32.64c-1.54-0.63-3.49-0.6-5.6,0.23c-5.21,2.05-9.53,8.11-9.66,13.56l0,0.14
		c-0.65,0.32-1.29,0.68-1.94,1.04c-5.5-2.1-12.22-2.14-19.52,0.34c-0.64,0.22-1.28,0.45-1.92,0.7c-4.86,1.91-9.52,4.72-13.81,8.18
		c-7.41-4.82-17.69-5.57-29.18-1.06c-0.75,0.29-1.5,0.61-2.26,0.95c-8.39,3.75-16.23,9.88-22.77,17.33
		c-0.74,0.16-1.46,0.32-2.21,0.56l0.02-0.18c0.15-6.24-4.56-9.4-10.52-7.05c-2.43,0.95-4.69,2.68-6.54,4.82
		C171.03,474.03,158.57,468.53,143.5,474.45"/>
	<path class="st0" d="M804,104.59c-18.32,7.19-33.57,28.58-34.04,47.76c-0.09,3.67,0.38,6.97,1.3,9.91
		c-4.63,2.32-8.34,7.85-8.46,12.82c-0.02,0.9,0.09,1.72,0.28,2.46c-11.23,5.46-20.25,18.75-20.54,30.75
		c-0.31,12.71,9.29,19.14,21.43,14.38l50.79-19.94l32.71-12.85l58.57-23l32.47-12.75l97.99-38.48l27.53-10.81l30.87-12.12
		c7.25-2.85,13.28-11.3,13.46-18.89c0.18-7.58-5.54-11.42-12.79-8.58l-3.2,1.26c-1.24,0.49-2.45,1.15-3.61,1.93
		c-0.93-11.78-10.6-17.45-22.64-12.72c-6.51,2.56-12.46,7.66-16.79,13.81c-1.41,0.1-2.9,0.45-4.45,1.06
		c-4.93,1.93-9.33,6.13-12.16,11c-2.78-1.21-6.21-1.37-9.99-0.24c0.21-0.79,0.34-1.59,0.36-2.38c0.1-4.34-2.95-6.68-6.99-5.55
		c1.16-3.93,1.72-7.89,1.57-11.73c-0.58-14.81-12.17-22.41-26.69-17.5c-0.51,0.18-1.02,0.36-1.53,0.56
		c-13.15,5.16-24.47,18.68-28.32,32.64c-1.54-0.63-3.49-0.6-5.6,0.23c-5.21,2.05-9.53,8.11-9.66,13.56l0,0.14
		c-0.65,0.32-1.29,0.68-1.94,1.04c-5.5-2.1-12.22-2.14-19.52,0.34c-0.64,0.22-1.28,0.45-1.92,0.7c-4.86,1.91-9.52,4.72-13.81,8.18
		c-7.41-4.82-17.69-5.57-29.18-1.06c-0.75,0.29-1.5,0.61-2.26,0.95c-8.39,3.75-16.23,9.88-22.77,17.33
		c-0.74,0.16-1.46,0.32-2.21,0.56l0.02-0.18c0.15-6.24-4.56-9.4-10.53-7.06c-2.43,0.95-4.69,2.68-6.54,4.82
		C831.52,104.17,819.07,98.67,804,104.59"/>
	<path class="st0" d="M607,2.2c-16.22,6.73-29.34,26.92-29.31,45.09c0.01,3.47,0.49,6.62,1.38,9.39c-4.09,2.2-7.27,7.4-7.26,12.11
		c0,0.86,0.1,1.64,0.3,2.33c-9.91,5.13-17.67,17.67-17.65,29.04c0.02,12.04,8.76,18.18,19.5,13.72l73.88-30.68
		c16.24-6.74,29.36-26.94,29.32-45.1c-0.03-17.13-11.74-26.33-26.67-21.68v-0.16c-0.01-5.91-4.29-8.93-9.56-6.74
		c-2.16,0.9-4.13,2.52-5.74,4.54C631.6,1.93,620.34-3.34,607,2.2"/>
	<path class="st0" d="M631.88,533.83"/>
</g>
</svg>
