<?xml version="1.0" encoding="utf-8"?>
<!-- Generator: Adobe Illustrator 23.0.3, SVG Export Plug-In . SVG Version: 6.00 Build 0)  -->
<svg version="1.1" xmlns="http://www.w3.org/2000/svg" xmlns:xlink="http://www.w3.org/1999/xlink" x="0px" y="0px"
	 viewBox="0 0 1927 958" style="enable-background:new 0 0 1927 958;" xml:space="preserve">
<style type="text/css">
	.st0{fill:url(#SVGID_1_);}
	.st1{fill:#FFFFFF;}
	.st2{fill:#FF8A85;}
	.st3{clip-path:url(#SVGID_3_);fill:#FFFFFF;}
	.st4{opacity:0.37;clip-path:url(#SVGID_3_);}
	.st5{opacity:0.69;fill:#B1B1B1;}
	.st6{fill:#808080;}
	.st7{fill:#E4E4E4;}
	.st8{fill:#666666;}
	.st9{opacity:0.37;clip-path:url(#SVGID_3_);fill:#E4E4E4;}
	.st10{opacity:0.37;clip-path:url(#SVGID_3_);fill:#808080;}
	.st11{fill-rule:evenodd;clip-rule:evenodd;fill:#FFD3B6;}
	.st12{fill-rule:evenodd;clip-rule:evenodd;fill:#1F1C1D;}
	.st13{fill-rule:evenodd;clip-rule:evenodd;fill:#CACACA;}
	.st14{fill:#F87268;}
	.st15{fill:#FFD3B6;}
	.st16{fill:#B1B1B1;}
	.st17{opacity:0.9;}
	.st18{opacity:0.9;fill:#F87268;}
	.st19{fill:none;}
	.st20{fill:#979797;}
	.st21{fill:#FFD7CD;}
	.st22{fill:#CACACA;}
</style>
<g id="sol">
	<linearGradient id="SVGID_1_" gradientUnits="userSpaceOnUse" x1="963.5" y1="1119.4731" x2="963.5" y2="-605.6548">
		<stop  offset="0" style="stop-color:#FFFFFF"/>
		<stop  offset="1" style="stop-color:#F87268"/>
	</linearGradient>
	<polygon class="st0" points="319.98,660 1573.9,660 1927,958 0,958 	"/>
</g>
<g id="porte_x2B_homme">
	<ellipse class="st1" cx="491.5" cy="448.5" rx="4.5" ry="16.5"/>
	<g>
		<path class="st2" d="M645,220H430v440h215V220L645,220z"/>
		<g>
			<defs>
				<polyline id="SVGID_2_" points="622,246 622,660 458,660 458,246 622,246 				"/>
			</defs>
			<clipPath id="SVGID_3_">
				<use xlink:href="#SVGID_2_"  style="overflow:visible;"/>
			</clipPath>
			<rect x="460" y="247" class="st3" width="162" height="420"/>
			<g class="st4">
				<rect x="451.41" y="355.44" class="st5" width="181.43" height="161.87"/>
				<g>
					<rect x="458.74" y="467.23" class="st6" width="79.4" height="50.05"/>
					<rect x="461.22" y="470.1" class="st6" width="74.45" height="47.18"/>
					<rect x="497.39" y="470.1" class="st6" width="2.11" height="47.18"/>
					<rect x="502.33" y="489.8" class="st6" width="2.53" height="12.63"/>
					<rect x="492.03" y="489.8" class="st6" width="2.53" height="12.63"/>
				</g>
				<g>
					<rect x="458.83" y="376.57" class="st7" width="31.96" height="26.77"/>
					<rect x="461.29" y="378.34" class="st7" width="27.06" height="23.22"/>
					<polygon class="st7" points="475.63,401.56 488.34,395.92 488.34,393.15 469.33,401.56 					"/>
					<rect x="458.83" y="403.34" class="st7" width="31.96" height="2.17"/>
				</g>
				<g>
					<rect x="458.83" y="421.9" class="st7" width="31.96" height="26.77"/>
					<rect x="461.29" y="423.68" class="st7" width="27.06" height="23.21"/>
					<polygon class="st7" points="475.63,446.89 488.34,441.26 488.34,438.49 469.33,446.89 					"/>
					<rect x="458.83" y="448.67" class="st7" width="31.96" height="2.17"/>
				</g>
				<g>
					<rect x="504.3" y="421.9" class="st7" width="31.96" height="26.77"/>
					<rect x="506.75" y="423.68" class="st1" width="27.06" height="23.21"/>
					<rect x="504.3" y="448.67" class="st7" width="31.96" height="2.17"/>
				</g>
				<g>
					<rect x="549.67" y="421.9" class="st7" width="31.96" height="26.77"/>
					<rect x="552.12" y="423.68" class="st1" width="27.06" height="23.21"/>
					<rect x="549.67" y="448.67" class="st7" width="31.96" height="2.17"/>
				</g>
				<g>
					<rect x="595.04" y="421.9" class="st7" width="31.96" height="26.77"/>
					<rect x="597.49" y="423.68" class="st1" width="27.06" height="23.21"/>
					<rect x="595.04" y="448.67" class="st7" width="31.96" height="2.17"/>
				</g>
				<g>
					<line class="st7" x1="640.51" y1="448.67" x2="640.51" y2="450.84"/>
				</g>
				<g>
					<rect x="504.3" y="378.69" class="st7" width="31.96" height="26.77"/>
					<rect x="506.75" y="380.46" class="st1" width="27.06" height="23.21"/>
					<rect x="504.3" y="405.46" class="st7" width="31.96" height="2.17"/>
				</g>
				<g>
					<rect x="549.67" y="378.69" class="st7" width="31.96" height="26.77"/>
					<rect x="552.12" y="380.46" class="st1" width="27.06" height="23.21"/>
					<rect x="549.67" y="405.46" class="st7" width="31.96" height="2.17"/>
				</g>
				<g>
					<rect x="595.04" y="378.69" class="st7" width="31.96" height="26.77"/>
					<rect x="597.49" y="380.46" class="st1" width="27.06" height="23.21"/>
					<rect x="595.04" y="405.46" class="st7" width="31.96" height="2.17"/>
				</g>
				<g>
					<rect x="543.83" y="467.45" class="st7" width="143.04" height="40.62"/>
					<rect x="545.5" y="468.72" class="st1" width="139.69" height="38.08"/>
					<rect x="610.42" y="468.71" class="st7" width="2.56" height="38.09"/>
					<rect x="563.09" y="468.71" class="st7" width="2.56" height="38.09"/>
					<rect x="661.55" y="468.71" class="st7" width="2.56" height="38.09"/>
				</g>
				<g>
					<rect x="545.1" y="311.65" class="st7" width="145.36" height="44.14"/>
					<g>
						<g>
							<rect x="556.73" y="323.56" class="st1" width="22.45" height="18.81"/>
							<rect x="558.45" y="324.81" class="st1" width="19.01" height="16.31"/>
							<polygon class="st1" points="568.53,341.12 577.46,337.16 577.46,335.22 564.1,341.12 							"/>
							<rect x="556.73" y="342.37" class="st1" width="22.45" height="1.53"/>
						</g>
						<g>
							<rect x="606.55" y="323.56" class="st1" width="22.45" height="18.81"/>
							<rect x="608.27" y="324.81" class="st1" width="19.01" height="16.31"/>
							<polygon class="st1" points="618.35,341.12 627.28,337.16 627.28,335.22 613.92,341.12 							"/>
							<rect x="606.55" y="342.37" class="st1" width="22.45" height="1.53"/>
						</g>
						<rect x="538.14" y="297.93" class="st8" width="97.41" height="15.06"/>
					</g>
				</g>
				<rect x="454.57" y="340.73" class="st8" width="195.25" height="15.06"/>
			</g>
			<path class="st9" d="M263.6,554.75v74.94c0.49,1.05,1.06,1.64,1.75,1.64h516.95v-76.59C782.29,554.74,263.6,554.75,263.6,554.75z
				"/>
			<rect x="403" y="620.78" class="st10" width="318.6" height="64.99"/>
		</g>
		<g>
			<polygon class="st2" points="507,718 430,660 430,220 507,178 			"/>
		</g>
		<rect x="507" y="178" class="st1" width="6" height="540"/>
	</g>
	<ellipse class="st1" cx="491.5" cy="449.5" rx="4.5" ry="16.5"/>
	<g>
		<rect x="613.65" y="364.03" class="st11" width="32.23" height="26.8"/>
		<path class="st11" d="M630.48,377.54c-0.1,0.01-0.2,0.01-0.3,0.01c-3.76,0.03-5.63-0.04-7.68-0.87c-1.97-0.81-2.93-2.68-5.64-5.2
			c-2.31-2.14-6.46-4.32-7.47-6.66c-1.23-2.84-2.12-11.09-2.64-15.21c-0.42-0.58-1.5-18.78-1.59-21.3
			c-0.15-4.72-0.28-8.63,0.32-11.95c0.61-3.35,1.97-6.13,4.8-8.57l0,0v-0.01c1.58-1.34,3.35-2.48,5.28-3.42
			c0.02-0.01,0.04-0.02,0.06-0.02c0.13-0.06,0.26-0.11,0.38-0.18c0.07-0.03,0.14-0.06,0.21-0.09c0.1-0.05,0.21-0.1,0.31-0.13
			c0.1-0.04,0.19-0.09,0.3-0.13c0.11-0.05,0.22-0.1,0.32-0.13c0.1-0.05,0.19-0.09,0.29-0.13c0.14-0.06,0.27-0.11,0.41-0.16
			c0.06-0.02,0.13-0.05,0.2-0.07c0.21-0.08,0.41-0.15,0.61-0.22c0,0,0,0,0.01-0.01c5.15-1.8,10.99-2.3,16.53-1.51
			c5.52,0.79,10.72,2.86,14.59,6.18c2.82,2.43,4.17,5.2,4.78,8.53c0.6,3.31,0.49,7.2,0.34,11.91c-0.08,2.53,0.09,4.92,0.23,7.23
			c0,0-1.71,16.04-1.38,15.33c-0.47,4-1.8,11.06-2.98,13.86c-1.01,2.34-5.12,4.55-7.42,6.71c-2.71,2.55-3.66,4.42-5.62,5.26
			C635.77,377.41,633.96,377.53,630.48,377.54z"/>
		<path class="st12" d="M640.6,767.11c0.28,7.55,0.33,7.55,0.33,13.53c1.01,4.29,19.82,10.85,24.41,0.13
			c-5.47-10.93-7.92-15.15-7.92-15.15L640.6,767.11z"/>
		<path class="st12" d="M621.95,767.11c-0.28,7.55-0.33,7.55-0.33,13.53c-1.01,4.29-19.82,10.85-24.41,0.13
			c5.47-10.93,7.92-15.15,7.92-15.15L621.95,767.11z"/>
		<g>
			<path class="st13" d="M675.53,543.37l-5.4-31L654,510.01v0l-0.28-0.03L632,506.91v0.28l-1.14-0.09l0.4-0.19L631,507v-0.09
				l-21.84,3.02l-1.16,0.08v0l-16.68,2.35l-5.9,32.48l10.61,223.36c0,0,3.48,3.62,14.25,3.62c10.78,0,0.58-0.12,0.58-0.12
				s-10.94,0.2,0,0.2c10.94,0,14.38-2.98,14.38-2.98l2.77-193.31l2.99-0.86v0.02l2.25,0.84l1.45,192.41c0,0,8.47,1.43,16.85,1.43
				c8.37,0,13.17-4.45,13.17-4.45L675.53,543.37z"/>
			<path class="st14" d="M676.4,440.69"/>
			<path class="st15" d="M560.08,422.94l-15.87,18.16l-13.21-14.32c0,0,4.23-9.34,4.84-14.83c0.6-5.5,2.12-8.82,1.97-9.42
				c-0.15-0.6-4.39-2.32-6.55,6.35c0,0-2.72,4.54-5.29,1.36c-2.57-3.18-6.45-16.88-6.45-16.88s-0.76-3.52-3.27-3.07
				c0,0-1.92,0-1.46,2.97c0.69,4.55,0.92,4.43,3.56,12.65l-7.54-13.71c0,0-1.41-2.07-2.87-0.76c-1.46,1.31-0.71,2.37,0,3.83
				c0.71,1.46,4.18,9.52,4.38,9.93c0.2,0.4,1.33,2.87,1.33,2.87s-4.76-4.74-6.93-7c-2.17-2.27-6.1-1.21-3.33,2.37
				c2.77,3.58,6.55,9.14,6.55,9.14s0.37,2.11-6.49-3.54c-4.25-3.5-5.73,0.71-3.32,2.68c7.27,5.91,9.21,9.81,11.43,11.68
				c2.2,1.85,4.05,8.89,9.59,8.13c0.22,1.48,4.26,28.29,12.69,32.79c0,0,4.98,2.81,11.69,0c0,0,20.63-10.63,29.73-17.6
				c0,0,5.62-5.37,5.54-5.55l-0.11-0.27"/>
			<path class="st15" d="M751.93,366.24c0,0-5.85,6.83-6.25,7.22c-0.39,0.39-1.37-0.39-1.37-0.39s3.3-12.68,3.11-16.97
				c-0.2-4.29-3.34-0.97-3.34-0.97s-3.88,13.66-4.47,14.43c-0.58,0.78-1.61-0.15-1.61-0.15v-19.75c-2-3.9-4.05,0-4.05,0l-1.48,20.48
				l-2.84-16.19c-3.71-3.9-3.47,3.12-3.47,3.12c1.17,2.92,1.97,23.41,1.97,23.41c-1.37,4.29-7.01,0.59-7.01,0.59
				c-7.02-6.05-8.58-3.32-8.58-2.44s4.1,4.2,4.1,4.2c10.92,13.85,15.02,15.8,15.02,15.8l-3.9,20.3l-16.18-6.46
				c-0.74-0.37-9.66-3.7-9.66-3.7l-7.06,27.93c-0.07-0.21,9.46,0.99,9.53,0.86l34.88,1.85c7.61-1.95,9.56-8.59,9.56-8.59
				c0.19-11.31-6.05-31.6-6.05-31.6c8.39-2.73,7.41-21.46,7.41-21.46s0.39-1.56,2.92-7.03
				C755.64,365.26,751.93,366.24,751.93,366.24z"/>
			<path class="st16" d="M676.4,437.1l-1.01,98.43c0,0-50.68,15.06-90.84,0.71l1.08-95.55c0,0-8.41,4.82-15.14,9.44
				c-3.95-9.36-8.56-22.35-15.78-20.32c-2.69-2.96,22.99-33.19,30.73-40.04c7.74-6.85,26.64-9.52,27.48-8.97
				c10.4,6.81,21.16,12.19,33.35-1.08c0,0,21.76,2.93,33.29,11.1c8.08,5.72,31.55,16.38,33.17,22.25c0,0,0,0-3.51-1.55
				c0,0-5.79,3.13-7.19,16.8c-0.6,5.84,0.26,9.06,0.26,9.06C683.83,439.53,676.4,437.1,676.4,437.1z"/>
			<path d="M657.36,326.17c0,0-1.58-26.13-26.83-25.42c0,0-25.77-3.16-27.35,25.95c0.2-0.1,0.52,0.18,2.8-0.88
				c2.36-1.09,1.8-7.92,6.84-9.47c9.12-2.81,12.27,10.87,26.65,1.58c10.66-6.89,13.83,3.98,15.08,7.71
				C654.73,326.17,656.95,324.7,657.36,326.17z"/>
			<path class="st14" d="M652.13,346h-17.98c0,0-1.1-5.39-4.29-5.39c-3.2,0-4.29,5.39-4.29,5.39h-16.29c-0.13,0-1.29-0.1-2.52-0.65
				c-1.81-0.82-2.76-2.46-2.76-4.5v-13.94c0-1.93,1.17-3.92,4.62-3.92h43.8c0.09,0,4.27,0.47,4.86,3.51
				c0.03,0.18,0.08,0.27,0.03,13.23c0.02,0.48,0.05,3.07-1.57,4.8C654.83,345.49,653.59,346,652.13,346z"/>
			<path class="st14" d="M634.23,361.89c0,2.96-1.81,5.36-4.05,5.36c-2.24,0-4.05-2.4-4.05-5.36c0-2.96,1.81-5.36,4.05-5.36
				C632.42,356.53,634.23,358.93,634.23,361.89z"/>
		</g>
	</g>
</g>
<g id="robot">
	<g>
		<polyline class="st1" points="280.8,658.06 336.66,667.64 325.11,735 316.37,733.5 299,821.75 257.69,822 276.12,729.13 
			268.25,727.5 280.8,658.06 		"/>
		<g>
			<g class="st17">
				<polygon class="st14" points="283.83,619.27 306.54,612.14 312.9,632.28 290.19,639.41 				"/>
				<polygon class="st14" points="360.28,617.38 337.58,624.52 331.22,604.38 353.92,597.24 				"/>
				<polygon class="st18" points="241.82,654.62 226.18,659.54 219.98,639.35 235.46,634.48 				"/>
				<polygon class="st14" points="307.52,611.83 330.23,604.69 336.59,624.83 313.89,631.96 				"/>
				<polygon class="st14" points="354.91,596.93 370.1,592.16 376.29,612.34 361.27,617.07 				"/>
				<polygon class="st18" points="236.45,634.17 259.15,627.03 265.51,647.17 242.81,654.31 				"/>
				<polygon class="st14" points="260.14,626.72 282.85,619.58 289.2,639.72 266.5,646.86 				"/>
			</g>
			<g>
				<path class="st1" d="M269.17,818.11l21.86-108.73c-4.22-3.03-6.97-7.87-6.97-13.35c0-9.18,7.69-16.62,17.17-16.62
					c9.48,0,17.17,7.44,17.17,16.62c0,7.93-5.74,14.55-13.42,16.21l-21.85,108.64L269.17,818.11z"/>
				<g>
					<polygon class="st19" points="311.46,839.29 307.2,824 307.39,824 					"/>
					<polygon class="st19" points="249.38,824 249.56,824 245.56,839.29 					"/>
					<polygon class="st19" points="377.93,615.96 227.56,662.83 264.67,781.99 227.6,662.83 377.93,615.96 					"/>
					<path class="st19" d="M315.44,605.45l-96.62,30.15l150.37-46.92l-14.86,4.63l-10.46-33.44l-38.89,12.16L315.44,605.45z
						 M319,604.34l-9.34-29.86l31.77-9.94l9.34,29.88L319,604.34z"/>
					<polygon class="st19" points="356.89,785.3 389,775.52 389,775.54 					"/>
					<polygon points="334.12,842 334.11,842 335.15,833.57 					"/>
					<polygon points="414.11,842 414.09,842 412.59,833.57 					"/>
					<polygon class="st16" points="365.46,731.86 313.26,749.17 316.37,733.5 325.11,735 336.66,667.64 296.9,660.82 339.39,647.5 
											"/>
					<polygon class="st16" points="264.85,671.5 273.41,701.13 269.25,725.42 277.66,726.86 271.08,759.94 245.41,678.07 					"/>
					<polygon class="st14" points="338.77,806.1 335.15,835.91 338.77,807 407.32,807 412.59,835.91 407.32,806.32 412.59,834.49 
						414.09,842 334.12,842 335.15,834.38 					"/>
					<path class="st14" d="M214.34,589.71l131.67-41.09c15.08,14.99,21.49,34.2,23.18,40.06l-14.86,4.63l-10.46-33.44l-38.89,12.16
						l10.45,33.42l-96.62,30.15C216.84,629.84,211.02,610.43,214.34,589.71z"/>
					<path class="st16" d="M309.66,574.48l9.34,29.86l31.78-9.92l-9.34-29.88L309.66,574.48z M317.37,584.59
						c0-6.95,5.82-12.58,13-12.58c7.18,0,13,5.63,13,12.58c0,6.95-5.82,12.58-13,12.58C323.19,597.18,317.37,591.54,317.37,584.59z"
						/>
					<path class="st2" d="M218.99,576.46c8.65-18,25.41-30.94,49.82-38.46c26.06-8.03,48.61-6.81,67.02,3.61
						c4.1,2.32,7.81,5.01,11.16,7.91l-132.83,40.92C215.23,585.76,216.78,581.06,218.99,576.46z"/>
					<polygon class="st14" points="389,800.52 389,804 357,804 357,800.52 357,784.55 389,775.54 					"/>
					<path class="st1" d="M330.37,572.01c7.18,0,13,5.63,13,12.58c0,6.95-5.82,12.58-13,12.58c-7.18,0-13-5.64-13-12.58
						C317.37,577.65,323.19,572.01,330.37,572.01z"/>
					<path class="st20" d="M332.44,569.94c7.18,0,13,5.63,13,12.58c0,6.95-5.82,12.58-13,12.58c-7.18,0-13-5.63-13-12.58
						C319.44,575.58,325.26,569.94,332.44,569.94z"/>
					<path class="st7" d="M330.91,616.54c0-4.03-3.28-7.3-7.3-7.3c-4.03,0-7.3,3.28-7.3,7.3c0,4.03,3.28,7.3,7.3,7.3
						C327.64,623.84,330.91,620.57,330.91,616.54z"/>
					<line class="st1" x1="383.16" y1="633.7" x2="382.6" y2="631.92"/>
					<line class="st1" x1="410.01" y1="719.75" x2="409.46" y2="717.97"/>
					<polygon class="st1" points="382.6,631.92 382.6,631.92 383.16,633.7 383.16,633.7 					"/>
					<polygon class="st1" points="409.45,718.41 409.46,718.41 410.01,719.88 410.01,719.88 					"/>
					<polygon class="st1" points="292.62,662.16 292.06,660.39 292.87,660.13 296.9,660.82 					"/>
					<polygon class="st1" points="367.51,732.18 367.78,733.05 312.84,751.28 313.26,749.17 365.46,731.86 339.39,647.5 
						296.9,660.82 292.87,660.13 340.61,645.16 					"/>
					<polygon class="st1" points="275.89,703 274.1,703.52 273.41,701.13 274.13,696.92 					"/>
					<polygon class="st1" points="271.84,762.35 272.34,762.22 272.82,764.02 270.6,764.62 270.33,763.75 271.08,759.94 					"/>
					<polygon class="st1" points="266.1,669.11 274.13,696.92 273.41,701.13 264.85,671.5 245.41,678.07 271.08,759.94 
						270.33,763.75 243.08,676.88 					"/>
					<polygon class="st7" points="352.76,641.05 353.03,641.94 379.67,729.03 410.01,719.75 414.8,735.11 309.53,767.96 
						312.84,751.28 367.78,733.05 367.51,732.18 340.61,645.16 292.87,660.13 280.8,658.06 274.13,696.92 266.1,669.11 
						243.08,676.88 270.33,763.75 266.84,781.28 264.59,781.99 227.4,662.83 377.62,615.96 382.6,631.92 					"/>
				</g>
			</g>
			<path class="st14" d="M299.47,793.77l1.78-8.74l-1.04,5.36l2.13-10.4h0.01l8.71-44.33l9.63,1.1l11.47-66.85l-54.07-9.26
				l-11.47,66.87l9.48,1.6l-12.44,62.56l-0.98,5.27l-5,25.04h36.1L299.47,793.77z M283.83,810.46l-12.63-2.5l19.77-98.32
				c-3.82-2.74-6.31-7.12-6.31-12.07c0-8.3,6.95-15.03,15.53-15.03c8.57,0,15.53,6.73,15.53,15.03c0,7.17-5.19,13.16-12.13,14.66
				L283.83,810.46z"/>
			<polygon class="st14" points="409.42,740.58 404.2,767.97 304.06,796.58 308.96,771.92 			"/>
			<path class="st16" d="M325.02,607.6c-4.36,0-7.9,3.54-7.9,7.9c0,4.36,3.53,7.89,7.9,7.89c4.36,0,7.89-3.53,7.89-7.89
				C332.92,611.13,329.38,607.6,325.02,607.6z"/>
			<path class="st1" d="M325.02,610.07c-2.43,0-4.39,1.96-4.39,4.39c0,2.42,1.97,4.39,4.39,4.39c2.42,0,4.39-1.96,4.39-4.39
				C329.42,612.03,327.45,610.07,325.02,610.07z"/>
			<path class="st21" d="M270.21,807.76L290,715.59c-4.22-3.03-6.97-7.87-6.97-13.35c0-9.18,7.69-16.62,17.17-16.62
				c9.48,0,17.17,7.44,17.17,16.62c0,7.93-5.74,14.55-13.42,16.21l-19.78,92.08L270.21,807.76z"/>
			
				<rect x="365.65" y="634.34" transform="matrix(0.9552 -0.2959 0.2959 0.9552 -184.2009 143.2949)" class="st1" width="31.47" height="91.92"/>
			<polygon class="st22" points="355.09,642.29 383.16,633.7 409.45,717.97 380.91,726.7 			"/>
			<polygon class="st14" points="242.36,838.67 242.46,838.8 246.45,824 304.1,824 308.35,838.8 308.45,838.92 308.35,838.54 
				313.27,857 237.84,857 242.46,838.42 			"/>
		</g>
	</g>
	<path class="st1" d="M369.19,588.68"/>
</g>
</svg>
