<?xml version="1.0" encoding="utf-8"?>
<!-- Generator: Adobe Illustrator 23.0.3, SVG Export Plug-In . SVG Version: 6.00 Build 0)  -->
<svg version="1.1" id="robot2" xmlns="http://www.w3.org/2000/svg" xmlns:xlink="http://www.w3.org/1999/xlink" x="0px" y="0px"
	 viewBox="0 0 1927 958" style="enable-background:new 0 0 1927 958;" xml:space="preserve">
<style type="text/css">
	.st0{fill:#CACACA;}
	.st1{fill:#F87268;}
	.st2{fill:#FFFFFF;}
	.st3{fill:#FFD7CD;}
	.st4{opacity:0.54;fill:#FFFFFF;}
	.st5{opacity:0.25;fill:#F87268;}
	.st6{opacity:0.54;fill:#F87268;}
	.st7{fill:#FF8A85;}
	.st8{opacity:0.4;fill:#FFFFFF;}
	.st9{opacity:0.27;fill:#FFFFFF;}
	.st10{opacity:0.58;}
</style>
<g>
	<g>
		<polygon class="st0" points="848,326 957.52,326 979.11,279 805.73,279 		"/>
		<g>
			<path class="st1" d="M978.29,201.98c-0.02-0.17-1.12-10.95-7.26-22.54l-31.3,18.94l-0.6-0.99l-0.6-1l31.38-18.97
				c-3.42-5.9-8.19-11.85-14.85-16.57c-2.59-1.83-5.35-3.39-8.27-4.7l-23.67,25.17l-0.85-0.8l-0.85-0.8l23.07-24.53
				c-10.4-4.07-22.77-5.04-36.99-2.88l-156.75,49.52L804.98,270H1037v-67h-58.61L978.29,201.98z"/>
			<path class="st1" d="M985.85,127l-65.21,20.63c15.08-0.58,27.85,3.04,38.11,10.32c19.02,13.5,23.32,36.05,24.06,42.05H1039v-73
				H985.85z"/>
			<path class="st2" d="M946.78,156.16l1.06-1.12l-0.85-0.8l-1.34,1.42C946.03,155.82,946.4,155.99,946.78,156.16z"/>
			<path class="st2" d="M946.99,154.23l-0.85-0.8l-1.65,1.76c0.39,0.15,0.78,0.3,1.16,0.47L946.99,154.23z"/>
			<path class="st2" d="M922.26,180.52l0.85,0.8l23.67-25.17c-0.38-0.17-0.75-0.34-1.13-0.5L922.26,180.52z"/>
			<path class="st2" d="M971.03,179.47l3.2-1.94l-0.6-1l-3.15,1.9C970.67,178.79,970.85,179.13,971.03,179.47z"/>
			<path class="st2" d="M973.63,176.54l-0.6-1l-3.13,1.89c0.2,0.34,0.39,0.68,0.58,1.01L973.63,176.54z"/>
			<path class="st2" d="M939.13,197.4l31.35-18.96c-0.19-0.34-0.39-0.67-0.58-1.01l-31.38,18.97L939.13,197.4z"/>
		</g>
		<polygon class="st0" points="704,291 907,291 907,279 711.28,279 		"/>
		<polygon class="st3" points="730.87,232 914,232 914,224 742.71,224 		"/>
		<path class="st4" d="M943.66,214.1c0,21.21-17.19,38.4-38.4,38.4c-21.21,0-38.4-17.19-38.4-38.4c0-21.21,17.19-38.4,38.4-38.4
			C926.47,175.7,943.66,192.89,943.66,214.1z"/>
	</g>
	<g>
		<g>
			<path class="st5" d="M1368.96,38.38l-4.27,0.68C1364.69,39.06,1366.14,39.13,1368.96,38.38z"/>
			<path class="st1" d="M1657.08,74.43"/>
		</g>
		<g>
			<g>
				<g>
					<g>
						<g>
							<path class="st1" d="M1149.93,249H1275V15.73l-122.68,82.8C1152.32,98.53,1149.68,249,1149.93,249z"/>
							<rect x="1359" y="132" class="st6" width="166" height="77"/>
							<rect x="995" y="846" class="st1" width="182" height="77"/>
							<rect x="1430" y="846" class="st1" width="181" height="77"/>
							<rect x="1670" y="846" class="st1" width="179" height="77"/>
							<path class="st7" d="M1056.58,774.3l18.35-2.23c0.94-0.11,1.87-0.23,2.79-0.35c2.67-0.36,5.17-0.69,7.44-0.69
								c8.9,0,17.93,1.57,27.6,4.78l15.49,5.15l23.84-129.22l-20.93,4.65c-3.98,0.88-7.6,1.31-11.08,1.31
								c-9.07,0-17.85-2.52-26.1-7.47l-18.4-11.06L1056.58,774.3z"/>
							<rect x="1394" class="st6" width="76" height="127"/>
							<path class="st7" d="M1013,834.22l-7.07,21.78h158.39l-6.9-21.69c-11-30.35-40.04-50.74-72.27-50.74
								C1053.19,783.58,1024.2,803.92,1013,834.22z"/>
							<path class="st0" d="M1680,281.22c23,11.25,72.58,42.22,72.58,63.25c0,1.16,0.29,2.78,0.06,4.44
								c-0.11,0.86,0.02,1.79-0.09,2.67l-2.59,23.14l30.3-11.29l51.02-165.72L1752,167.68v94.22c0,2.73,6.29-1.89,3.56-1.89H1680
								V281.22z"/>
							<rect x="1053" y="167" class="st0" width="91" height="69"/>
							<path class="st7" d="M1731.17,657.69c-4.05,0-8.37-0.67-13.58-2.13l-20.84-5.79l18.24,131.85l16.3-5.56
								c9.95-3.39,19.05-5.04,27.83-5.04c2.14,0,4.57,0.33,7.23,0.69c1.09,0.15,2.17,0.3,3.25,0.43l17.47,2.12l-12.35-133.76
								l-19.03,10.55C1747.76,655.46,1739.5,657.69,1731.17,657.69z"/>
							<polygon class="st1" points="1301.1,716.82 1182.52,835.4 1234.75,887.68 1356.16,766.27 							"/>
							<polygon class="st1" points="1598,33.23 1580.12,0 1470,0 1470,127.22 1529,126.81 1529,212.95 1353,213.59 1353,127 
								1394,127 1394,0 1297.36,0 1279,9.14 1279,249 1598,249 							"/>
							<path class="st7" d="M1703,564.07c8.4-5.58,18.14-8.54,28.17-8.54c4.42,0,9.05,0.78,14.6,2.44l20.77,10.88l-21.56-185.75
								l-19.15,12.49c-9.98,6.5-21.42,9.93-33.07,9.93c-5.74,0-11.85-1.08-18.69-3.32l-22.77-7.45L1685.1,576L1703,564.07z"/>
							<path class="st7" d="M1625.8,417.7C1625.51,417.77,1626.09,417.62,1625.8,417.7C1625.45,417.67,1625.8,417.7,1625.8,417.7
								l-17.6-5.32l-59.15,140.98l15.27,4.66c8.75,2.66,16.57,7.54,22.63,14.09l12.55,13.57l54.17-85.56
								c0.45-0.42,0.96-0.93,1.45-1.5l4.5-5.17L1646.73,424L1625.8,417.7z"/>
							<path class="st1" d="M1549.58,551.95c-30.14,0-54.67,24.51-54.67,54.64c0,30.15,24.52,54.68,54.67,54.68
								c30.13,0,54.65-24.53,54.65-54.68C1604.23,576.46,1579.72,551.95,1549.58,551.95z"/>
							<path class="st7" d="M1279.03,717.65c-10.23-4.76-21.6-7.27-32.89-7.27c-20.51,0-39.76,7.95-54.21,22.39
								c-22.72,22.74-28.8,57.75-15.11,87.1l8.57,18.38l112.03-112.02L1279.03,717.65z"/>
							<path class="st7" d="M1514.67,771.02c8.62,0,17.62,1.62,27.5,4.96l15.53,5.24l23.93-129.54l-20.97,4.69
								c-3.97,0.89-7.59,1.32-11.07,1.32c-7.07,0-14.07-1.53-20.81-4.58l-16.53-7.42l-23.42,127.73l18.56-1.61
								c1.3-0.12,2.58-0.28,4.01-0.47C1512.71,771.17,1513.85,771.02,1514.67,771.02z"/>
							<path class="st7" d="M1831.31,834.24c-11.15-30.3-40.16-52-72.2-52c-32.06,0-61.08,22.37-72.21,52.68l-7.02,21.09h158.45
								L1831.31,834.24z"/>
							<path class="st7" d="M1203.55,400.96c-3.27,0.55-6.77,1.06-10.14,1.06c-14.47,0-28.65-5.47-39.94-15.39l-17.81-15.66
								l-44.1,188.64l20.83-3.26c2.97-0.47,5.42-0.82,7.69-0.82c11.63,0,22.75,4.09,32.15,11.82l16.24,13.35l57.99-183.6
								L1203.55,400.96z"/>
							<path class="st7" d="M1442.44,834.24l-7.02,21.76h158.46l-7.02-21.76c-11.14-30.3-40.16-50.66-72.2-50.66
								C1482.61,783.58,1453.58,803.93,1442.44,834.24z"/>
							<path class="st0" d="M1329.81,271.29l-3.92-11.29H1194.7l34.64,29.05c15.81,11.69,24.87,31.15,24.87,50.44
								c0,11.26-3.29,23.25-9.49,33.09l-17.26,27.77l157.78-28.48l-54.75-97.41C1330.29,273.93,1330.07,271.8,1329.81,271.29z"/>
							<path class="st7" d="M1184.95,725.76c3.33-3.33,7.22-6.5,12.23-9.94l14.25-9.8l-50.25-48.95L1135,798.92l38.71-59.29
								C1176.97,734.64,1180.75,729.96,1184.95,725.76z"/>
							<path class="st0" d="M1440.95,362.5l55.58,13.26L1552.7,260h-216.2l59.07,106.79
								C1395.57,366.79,1440.24,362.29,1440.95,362.5z"/>
							<path class="st1" d="M1186.7,412.98c40.56,0,73.56-32.99,73.56-73.55c0-40.57-33-73.57-73.56-73.57
								c-40.57,0-73.59,33-73.59,73.57C1113.11,379.99,1146.13,412.98,1186.7,412.98z"/>
						</g>
						<g>
							<path class="st0" d="M1648,260v5.83l1.46-5.83h-85.68l-57.63,118.62l140.58,43.9l-4.93-25.35c-0.22-1.21,0.04-1.99,0.78-3.14
								l5.11-7.68l-5.29-7.69c-6.85-10.11-10.48-21.81-10.48-34.01c0-19.63,9.63-37.97,25.83-49.42l9.96-3.41l-0.01-31.82H1648z"/>
							<polygon class="st1" points="1603,39.48 1603,249 1640.49,249 1656.86,249 1659.17,249 1668.49,249 1744,249 1744,98.98 
															"/>
						</g>
					</g>
					<path class="st1" d="M1685.59,417.92c42.66,0,77.35-34.7,77.35-77.36c0-42.66-34.7-77.37-77.35-77.37
						c-42.68,0-77.4,34.71-77.4,77.37C1608.19,383.21,1642.91,417.92,1685.59,417.92z"/>
				</g>
			</g>
			<polygon class="st8" points="1182.52,446.41 1144.03,439.41 1112.38,556.36 1152.22,567.36 			"/>
			<polygon class="st8" points="1567.18,642.48 1528.35,637.71 1503.49,756.29 1543.89,764.97 			"/>
			<polygon class="st8" points="1725.96,433.58 1687.94,442.8 1706.48,562.53 1747.35,556.41 			"/>
			<path class="st8" d="M1129.47,660.7l-7.74,45.05c0,0-2.77,27.1-23.72,23.82c-14.57-2.28-10.1-26.65-10.1-26.65l8.11-45.86
				L1129.47,660.7z"/>
			<path class="st8" d="M1753.11,651.4l5.32,45.4c0,0,5.01,26.78-16.02,29.55c-14.62,1.94-17.23-22.71-17.23-22.71l-5.19-46.28
				L1753.11,651.4z"/>
			<path class="st1" d="M1730.59,665.77c30.86,0,55.97-25.11,55.97-55.96c0-30.87-25.11-55.98-55.97-55.98
				c-30.87,0-56,25.11-56,55.98C1674.6,640.66,1699.72,665.77,1730.59,665.77z"/>
			<circle class="st9" cx="1730.59" cy="607.08" r="39.5"/>
			<path class="st9" d="M1238.73,340.97c0,28.74-23.3,52.04-52.05,52.04s-52.05-23.3-52.05-52.04c0-28.75,23.3-52.05,52.05-52.05
				S1238.73,312.22,1238.73,340.97z"/>
			<path class="st9" d="M1737.12,340.97c0,28.74-23.3,52.04-52.05,52.04s-52.05-23.3-52.05-52.04c0-28.75,23.3-52.05,52.05-52.05
				S1737.12,312.22,1737.12,340.97z"/>
			<g>
				<path class="st1" d="M1176.4,606.59c0-31.05-25.27-56.32-56.32-56.32c-31.07,0-56.35,25.27-56.35,56.32
					c0,31.07,25.28,56.35,56.35,56.35C1151.13,662.94,1176.4,637.66,1176.4,606.59z"/>
				<circle class="st9" cx="1120.16" cy="607.08" r="39.5"/>
			</g>
			<g class="st10">
				<path class="st1" d="M1238.88,340.87l-89.75-36.9c-4.32,4.54-7.89,9.93-10.42,16.07c-2.65,6.45-3.9,13.12-3.91,19.68
					l89.12,36.64c4.61-4.67,8.41-10.29,11.06-16.74C1237.51,353.48,1238.76,347.13,1238.88,340.87z"/>
			</g>
			<g class="st10">
				<path class="st1" d="M1160.99,608.1l-71.52-29.4c-3.44,3.62-6.29,7.91-8.3,12.81c-2.11,5.14-3.11,10.45-3.12,15.68l71.02,29.2
					c3.67-3.73,6.7-8.2,8.81-13.34C1159.9,618.15,1160.89,613.09,1160.99,608.1z"/>
			</g>
			<g class="st10">
				<path class="st1" d="M1765.08,583.18l-74.94,19.08c-0.6,4.96-0.33,10.1,0.98,15.23c1.37,5.38,3.74,10.24,6.86,14.44l74.41-18.95
					c0.72-5.18,0.48-10.58-0.89-15.96C1770.19,591.9,1767.98,587.25,1765.08,583.18z"/>
			</g>
			<g class="st10">
				<path class="st1" d="M1722.43,303.77l-89.55,37.38c0.16,6.26,1.44,12.6,4,18.73c2.69,6.43,6.52,12.03,11.15,16.68l88.92-37.12
					c-0.05-6.56-1.33-13.23-4.02-19.66C1730.38,313.66,1726.77,308.29,1722.43,303.77z"/>
			</g>
		</g>
		<path class="st8" d="M1035.65,841.44l-4.73,14.56h105.9l-4.61-14.5c-7.35-20.29-26.77-33.92-48.32-33.92
			C1062.53,807.58,1043.14,821.18,1035.65,841.44z"/>
		<path class="st8" d="M1464.65,841.44l-4.73,14.56h105.9l-4.61-14.5c-7.35-20.29-26.77-33.92-48.32-33.92
			C1491.53,807.58,1472.14,821.18,1464.65,841.44z"/>
		<path class="st8" d="M1713.65,841.44l-4.73,14.56h105.9l-4.61-14.5c-7.35-20.29-26.77-33.92-48.32-33.92
			C1740.53,807.58,1721.14,821.18,1713.65,841.44z"/>
		<path class="st8" d="M1197.82,805.86l7.03,13.6l74.48-75.28l-13.55-6.92c-19.6-9.05-42.95-4.83-58.1,10.49
			C1192.65,762.94,1188.68,786.28,1197.82,805.86z"/>
		<path class="st9" d="M1124.85,753.77c0,7.6-6.16,13.75-13.75,13.75s-13.75-6.16-13.75-13.75c0-7.59,6.16-13.75,13.75-13.75
			S1124.85,746.18,1124.85,753.77z"/>
		<path class="st1" d="M1549.58,551.95c-30.14,0-54.67,24.51-54.67,54.64c0,30.15,24.52,54.68,54.67,54.68
			c30.13,0,54.65-24.53,54.65-54.68C1604.23,576.46,1579.72,551.95,1549.58,551.95z"/>
		<circle class="st9" cx="1548.51" cy="607.08" r="39.5"/>
		<g class="st10">
			<path class="st1" d="M1579.46,578.84l-71.66,29.06c0.07,4.99,1.05,10.05,3.04,14.96c2.09,5.15,5.1,9.64,8.75,13.38l71.16-28.86
				c0.01-5.23-0.96-10.55-3.04-15.7C1585.71,586.78,1582.88,582.47,1579.46,578.84z"/>
		</g>
		<rect x="1224" y="140" class="st9" width="30" height="31"/>
		<rect x="1496" y="83" class="st9" width="30" height="31"/>
		<rect x="1700" y="226" class="st9" width="33" height="15"/>
		<rect x="1664" y="109" class="st9" width="41" height="42"/>
		<path class="st9" d="M1745.93,750.71c1.32,7.48-3.67,14.61-11.15,15.93c-7.48,1.32-14.61-3.67-15.93-11.15
			c-1.32-7.48,3.67-14.61,11.15-15.93C1737.47,738.24,1744.61,743.23,1745.93,750.71z"/>
		<path class="st9" d="M1776.78,749.69c1.32,7.48-3.67,14.61-11.15,15.93c-7.48,1.32-14.61-3.67-15.93-11.15
			c-1.32-7.48,3.67-14.61,11.15-15.93C1768.33,737.22,1775.46,742.21,1776.78,749.69z"/>
	</g>
</g>
<circle class="st9" cx="1080.53" cy="749.41" r="13.75"/>
</svg>
