<?xml version="1.0" standalone="no"?>
<!DOCTYPE svg PUBLIC "-//W3C//DTD SVG 20010904//EN"
 "http://www.w3.org/TR/2001/REC-SVG-20010904/DTD/svg10.dtd">
<svg version="1.0" xmlns="http://www.w3.org/2000/svg"
 width="710.000000pt" height="710.000000pt" viewBox="0 0 710.000000 710.000000"
 preserveAspectRatio="xMidYMid meet">
<metadata>
Created by potrace 1.11, written by Peter Selinger 2001-2013
</metadata>
<g transform="translate(0.000000,710.000000) scale(0.100000,-0.100000)"
fill="#000000" stroke="none">
<path d="M2073 6109 l-1473 -851 0 -1708 0 -1707 1474 -851 1474 -852 1476
853 1476 852 0 1705 0 1706 -1471 849 c-809 468 -1474 851 -1478 852 -3 1
-669 -381 -1478 -848z m1682 -1800 c57 -21 146 -96 190 -159 34 -49 38 -45
-83 -111 l-73 -40 -53 55 c-58 60 -92 72 -172 63 -119 -13 -195 -159 -181
-347 10 -128 56 -218 130 -257 93 -47 230 8 239 97 3 25 2 25 -79 28 l-83 3 0
104 0 105 196 0 196 0 -4 -147 c-3 -134 -6 -153 -30 -205 -73 -158 -234 -239
-418 -211 -142 22 -246 97 -309 220 -53 105 -66 165 -65 303 1 108 4 135 27
198 63 180 167 283 319 317 77 18 181 11 253 -16z m895 21 c182 -29 297 -148
352 -363 17 -67 20 -101 15 -192 -13 -278 -146 -452 -372 -487 -306 -47 -525
170 -525 522 0 280 141 483 360 519 77 12 96 12 170 1z m-2799 -515 c109 -275
199 -503 199 -507 0 -5 -53 -8 -119 -8 l-118 0 -38 100 -38 100 -191 0 -191 0
-39 -100 -38 -100 -119 0 c-65 0 -119 2 -119 4 0 2 86 222 191 488 105 265
195 493 200 506 8 22 12 23 115 20 l107 -3 198 -500z m994 480 c179 -67 242
-321 123 -500 -18 -26 -51 -60 -75 -74 -23 -14 -43 -29 -43 -32 0 -3 41 -90
90 -192 50 -103 90 -189 90 -192 0 -3 -55 -4 -122 -3 l-123 3 -90 177 -90 178
-97 0 -98 0 0 -180 0 -180 -110 0 -110 0 0 511 0 511 303 -4 c263 -4 308 -7
352 -23z m2740 -231 c99 -141 192 -277 207 -303 l28 -46 0 303 0 302 110 0
110 0 0 -510 0 -510 -98 0 -98 0 -164 232 c-91 127 -186 263 -212 302 l-48 70
0 -302 0 -302 -110 0 -110 0 0 510 0 510 103 0 103 0 179 -256z m-4330 -1105
c29 -85 56 -162 60 -171 5 -13 2 -18 -8 -18 -10 0 -22 19 -32 50 l-17 51 -71
-3 -71 -3 -17 -45 c-15 -40 -39 -66 -39 -42 0 8 77 235 116 341 9 27 24 -4 79
-160z m155 59 c1 -178 21 -228 94 -228 75 0 96 47 96 223 0 76 4 117 11 117 7
0 9 -49 7 -154 -3 -134 -5 -157 -22 -175 -49 -54 -150 -47 -186 12 -17 28 -20
51 -20 175 0 88 4 142 10 142 6 0 10 -44 10 -112z m519 91 c22 -13 30 -24 24
-30 -7 -7 -23 -2 -48 12 -35 21 -40 22 -78 8 -55 -19 -82 -71 -81 -154 1 -94
43 -155 107 -155 41 0 67 17 83 55 22 54 19 65 -21 65 -19 0 -35 5 -35 10 0 6
23 10 50 10 l50 0 -6 -42 c-10 -64 -31 -98 -71 -114 -63 -27 -129 0 -163 66
-24 47 -27 153 -6 203 33 80 122 111 195 66z m231 -126 c34 -82 63 -149 64
-150 1 -1 31 65 65 147 35 83 68 150 72 150 5 0 9 -81 9 -180 0 -215 -18 -250
-22 -42 l-3 137 -59 -138 c-69 -159 -56 -160 -126 13 -24 58 -47 109 -52 115
-4 5 -8 -53 -8 -128 0 -85 -4 -137 -10 -137 -6 0 -10 67 -10 180 0 101 4 180
9 180 5 0 37 -66 71 -147z m518 130 c3 -10 -18 -13 -82 -13 l-86 0 0 -65 0
-65 55 0 c42 0 55 -3 55 -15 0 -12 -13 -15 -55 -15 l-55 0 0 -70 0 -69 87 -3
c58 -2 88 -7 91 -15 3 -10 -22 -13 -102 -13 l-106 0 0 173 c0 96 3 177 7 181
13 12 186 2 191 -11z m223 -135 l94 -153 3 153 c2 116 6 152 15 149 9 -3 13
-52 15 -181 2 -162 1 -177 -14 -174 -10 2 -59 70 -111 153 l-93 149 0 -152 c0
-128 -2 -152 -15 -152 -13 0 -15 26 -15 173 0 162 3 187 20 187 4 0 49 -69
101 -152z m434 137 c0 -5 -21 -11 -47 -13 l-48 -3 0 -165 c0 -139 -2 -164 -15
-164 -13 0 -15 25 -15 165 l0 165 -50 0 c-47 0 -60 7 -43 24 11 11 218 2 218
-9z m283 -2 c3 -10 -18 -13 -82 -13 l-86 0 0 -65 0 -65 55 0 c42 0 55 -3 55
-15 0 -12 -13 -15 -55 -15 l-55 0 0 -70 0 -69 87 -3 c58 -2 88 -7 91 -15 3
-10 -22 -13 -102 -13 l-106 0 0 173 c0 96 3 177 7 181 13 12 186 2 191 -11z
m275 -11 c49 -28 72 -76 72 -152 0 -126 -55 -179 -182 -180 l-63 0 0 173 c0
96 3 177 8 181 12 14 132 -2 165 -22z m470 13 c21 -9 47 -55 47 -85 0 -36 -28
-77 -60 -89 l-31 -10 41 -81 c32 -63 37 -80 24 -80 -10 0 -29 29 -52 80 l-36
80 -43 0 -43 0 0 -80 c0 -64 -3 -80 -15 -80 -13 0 -15 27 -15 181 l0 182 83
-6 c45 -3 90 -8 100 -12z m337 0 c0 -12 -16 -15 -85 -15 l-85 0 0 -65 0 -64
55 -3 c30 -2 55 -7 55 -13 0 -5 -25 -11 -55 -13 l-55 -3 0 -69 0 -70 90 0 c73
0 90 -3 90 -15 0 -12 -18 -15 -100 -15 l-100 0 0 180 0 180 95 0 c78 0 95 -3
95 -15z m289 -172 c41 -120 55 -173 46 -173 -7 0 -21 23 -31 50 l-18 51 -70
-3 -70 -3 -17 -45 c-9 -25 -23 -46 -31 -48 -11 -2 0 42 43 168 65 189 68 195
80 183 4 -4 35 -86 68 -180z m169 19 l2 -162 85 0 c69 0 85 -3 85 -15 0 -12
-18 -15 -100 -15 l-100 0 0 181 c0 140 3 180 13 177 9 -4 13 -48 15 -166z
m272 -12 c0 -113 -4 -180 -10 -180 -6 0 -10 67 -10 180 0 113 4 180 10 180 6
0 10 -67 10 -180z m310 165 c0 -11 -12 -15 -45 -15 l-45 0 0 -165 c0 -140 -2
-165 -15 -165 -13 0 -15 25 -15 165 l0 165 -50 0 c-46 0 -60 7 -43 23 3 4 53
7 110 7 85 0 103 -3 103 -15z m131 -67 c61 -122 56 -121 105 -27 24 45 50 89
58 98 31 30 17 -9 -39 -114 -51 -94 -55 -107 -55 -169 0 -37 -4 -66 -10 -66
-6 0 -10 29 -10 67 0 61 -4 74 -55 169 -56 105 -63 124 -45 124 5 0 28 -37 51
-82z"/>
<path d="M4485 4105 c-47 -26 -73 -55 -103 -114 -25 -52 -27 -65 -27 -181 0
-109 3 -131 23 -175 44 -95 101 -135 192 -135 144 0 229 136 218 347 -6 110
-40 189 -101 237 -32 26 -48 31 -105 34 -48 2 -76 -2 -97 -13z"/>
<path d="M1492 3867 c-28 -73 -54 -140 -58 -149 -6 -17 4 -18 110 -18 64 0
116 2 116 4 0 5 -111 289 -114 293 -1 1 -25 -57 -54 -130z"/>
<path d="M2410 3991 l0 -121 155 0 c174 0 203 8 225 60 19 46 8 117 -24 149
-26 26 -28 26 -191 29 l-165 3 0 -120z"/>
<path d="M1154 2979 l-32 -89 65 0 c48 0 64 3 61 13 -3 6 -15 44 -28 82 -12
39 -25 73 -29 77 -3 4 -20 -33 -37 -83z"/>
<path d="M3750 2951 l0 -151 50 0 c28 0 64 7 79 15 53 27 77 137 47 208 -22
52 -50 70 -116 75 l-60 4 0 -151z"/>
<path d="M4210 3030 l0 -70 68 0 c79 0 102 15 102 68 0 52 -29 72 -105 72
l-65 0 0 -70z"/>
<path d="M4882 2981 l-31 -91 64 0 64 0 -30 87 c-16 47 -31 88 -33 90 -2 2
-17 -37 -34 -86z"/>
</g>
</svg>
